<svg width="41" height="41" viewBox="0 0 41 41" fill="none" xmlns="http://www.w3.org/2000/svg">
<rect x="0.988281" y="0.127441" width="39.9889" height="39.9889" rx="19.9945" fill="#F7931A"/>
<path fill-rule="evenodd" clip-rule="evenodd" d="M30.5156 17.6319C30.9142 14.9619 28.8851 13.5267 26.1105 12.5693L27.0106 8.95262L24.8129 8.40403L23.9367 11.9255C23.359 11.7811 22.7656 11.6451 22.1759 11.5103L23.0585 7.96558L20.8622 7.41699L19.9616 11.0325C19.4835 10.9235 19.014 10.8157 18.5584 10.7021L18.5609 10.6907L15.5303 9.93259L14.9457 12.284C14.9457 12.284 16.5762 12.6584 16.5418 12.6815C17.4317 12.904 17.5927 13.4942 17.566 13.962L16.5406 18.0822C16.6019 18.0978 16.6814 18.1204 16.7691 18.1557C16.6958 18.1374 16.6178 18.1175 16.5368 18.0981L15.0997 23.87C14.9909 24.1409 14.7149 24.5473 14.0927 24.393C14.1147 24.425 12.4954 23.9937 12.4954 23.9937L11.4043 26.5138L14.2642 27.228C14.7962 27.3617 15.3176 27.5015 15.831 27.633L14.9216 31.2912L17.1167 31.8398L18.0173 28.2204C18.617 28.3835 19.199 28.5339 19.7687 28.6757L18.8711 32.278L21.0689 32.8266L21.9782 29.1753C25.7257 29.8858 28.5435 29.5993 29.7295 26.2037C30.6852 23.4698 29.6819 21.8929 27.7104 20.8646C29.1464 20.5328 30.228 19.5867 30.5164 17.6322L30.5157 17.6317L30.5156 17.6319ZM25.4945 24.6854C24.8153 27.4193 20.2205 25.9415 18.7308 25.5709L19.9376 20.7244C21.4272 21.097 26.2043 21.8342 25.4946 24.6854H25.4945ZM26.1741 17.5923C25.5546 20.079 21.7302 18.8157 20.4897 18.5059L21.5838 14.1104C22.8244 14.4202 26.8195 14.9984 26.1743 17.5923H26.1741Z" fill="white"/>
</svg>
