<svg width="88" height="88" viewBox="0 0 88 88" fill="none" xmlns="http://www.w3.org/2000/svg">
<path d="M44.1519 0.308105C20.1555 0.308105 0.703125 19.7375 0.703125 43.7055C0.703125 67.6735 20.1555 87.1029 44.1519 87.1029C68.1483 87.1029 87.6006 67.6735 87.6006 43.7055C87.6006 19.7375 68.1483 0.308105 44.1519 0.308105ZM44.1519 78.9659C24.685 78.9659 8.84977 63.1475 8.84977 43.7055C8.84977 24.2635 24.685 8.44512 44.1519 8.44512C63.6187 8.44512 79.454 24.2617 79.454 43.7055C79.454 63.1493 63.6169 78.9659 44.1519 78.9659Z" fill="#FFAB2D"/>
<path d="M46.3949 45.114H40.6905V53.5783H46.3949C47.5463 53.5783 48.6144 53.1118 49.3639 52.3289C50.1478 51.5784 50.6149 50.5134 50.6149 49.329C50.6167 47.0127 48.714 45.114 46.3949 45.114Z" fill="#FFAB2D"/>
<path d="M44.1519 12.0615C26.6819 12.0615 12.4705 26.2561 12.4705 43.7054C12.4705 61.1548 26.6819 75.3494 44.1519 75.3494C61.6219 75.3494 75.8333 61.153 75.8333 43.7054C75.8333 26.2579 61.6201 12.0615 44.1519 12.0615ZM50.5986 58.3593H46.862V64.2252H42.9426V58.3593H40.79V64.2252H36.8525V58.3593H29.9296V54.6777H33.7495V32.6174H29.9296V28.9359H36.8525V23.1875H40.79V28.9359H42.9426V23.1875H46.862V28.9359H50.2655C52.1664 28.9359 53.9188 29.7188 55.1698 30.9683C56.4207 32.2178 57.2046 33.9681 57.2046 35.8668C57.2046 39.5827 54.2682 42.6151 50.5986 42.7814C54.9018 42.7814 58.3723 46.2803 58.3723 50.5785C58.3723 54.8604 54.9036 58.3593 50.5986 58.3593Z" fill="#FFAB2D"/>
<path d="M48.915 39.9154C49.5993 39.2319 50.0157 38.3151 50.0157 37.2826C50.0157 35.2339 48.3483 33.5667 46.2954 33.5667H40.6905V41.0148H46.2954C47.3128 41.0148 48.2469 40.5808 48.915 39.9154Z" fill="#FFAB2D"/>
</svg>
