<svg width="88" height="88" viewBox="0 0 88 88" fill="none" xmlns="http://www.w3.org/2000/svg">
<path d="M45.1211 0.315366C21.1146 -0.118626 1.32654 18.9589 0.892034 42.9189C0.457529 66.8788 19.5577 86.6616 43.546 87.0956C67.5343 87.5296 87.3405 68.452 87.775 44.474C88.2095 20.5141 69.1094 0.731274 45.1211 0.315366ZM43.6908 78.9583C24.2286 78.5966 8.67692 62.5028 9.03901 43.0635C9.38299 23.6243 25.4959 8.09105 44.9581 8.43463C64.4384 8.79629 79.972 24.8901 79.628 44.3293C79.284 63.7686 63.153 79.3018 43.6908 78.9583Z" fill="#FF782C"/>
<path d="M44.9038 12.0512C27.4331 11.7438 12.9677 25.6858 12.6599 43.1359C12.5567 48.6259 13.8765 53.8175 16.2699 58.3672H26.2291V27.2174C26.2291 25.3133 28.8199 24.7075 29.6617 26.4163L44.3335 56.0923L59.0053 26.4182C59.8472 24.7075 62.4379 25.3133 62.4379 27.2174V58.3672H72.3664C74.5932 54.1394 75.9184 49.3655 76.0071 44.2751C76.3149 26.825 62.3745 12.3767 44.9038 12.0512Z" fill="#FF782C"/>
<path d="M58.817 60.1755V34.9642L45.9557 60.9765C45.3474 62.2116 43.3179 62.2116 42.7096 60.9765L29.85 34.9642V60.1755C29.85 61.1737 29.0407 61.9838 28.0396 61.9838H18.533C24.1652 69.8878 33.3224 75.1464 43.7632 75.3417C54.6204 75.5333 64.3099 70.217 70.1703 61.9838H60.6275C59.6263 61.9838 58.817 61.1737 58.817 60.1755Z" fill="#FF782C"/>
</svg>
