<svg width="88" height="88" viewBox="0 0 88 88" fill="none" xmlns="http://www.w3.org/2000/svg">
<path d="M44.3554 0.315366C20.349 -0.118626 0.560915 18.9589 0.126409 42.9189C-0.308096 66.8788 18.792 86.6616 42.7804 87.0956C66.7687 87.5296 86.5749 68.452 87.0094 44.474C87.4439 20.5141 68.3438 0.731274 44.3554 0.315366ZM42.9252 78.9583C23.463 78.5966 7.9113 62.5028 8.27339 43.0635C8.61737 23.6243 24.7303 8.09105 44.1925 8.43463C63.6728 8.79629 79.2064 24.8901 78.8624 44.3293C78.5184 63.7686 62.3874 79.3018 42.9252 78.9583Z" fill="#00ADA3"/>
<path d="M44.1418 12.0585C26.6711 11.751 12.2057 25.693 11.8979 43.1431C11.572 60.5751 25.5305 75.0234 43.0012 75.3489C60.472 75.6563 74.9374 61.7143 75.2452 44.2823C75.5529 26.8323 61.6125 12.384 44.1418 12.0585ZM43.5715 21.0782L53.6394 39.0184L44.4514 33.9117C43.9028 33.6079 43.2384 33.6079 42.6898 33.9117L33.5019 39.0184L43.5715 21.0782ZM43.5715 66.3273L33.5019 48.3872L42.6898 53.4938C42.9632 53.6457 43.2674 53.7217 43.5697 53.7217C43.872 53.7217 44.1762 53.6457 44.4496 53.4938L53.6376 48.3872L43.5715 66.3273ZM43.5715 49.8428L32.5206 43.7019L43.5715 37.5609L54.6206 43.7019L43.5715 49.8428Z" fill="#00ADA3"/>
</svg>
