<svg width="88" height="88" viewBox="0 0 88 88" fill="none" xmlns="http://www.w3.org/2000/svg">
<path d="M44.539 0.315366C20.5326 -0.118626 0.744508 18.9589 0.310003 42.9189C-0.124502 66.8788 18.9756 86.6616 42.964 87.0956C66.9523 87.5296 86.7585 68.452 87.193 44.474C87.6275 20.5141 68.5274 0.731274 44.539 0.315366ZM43.1088 78.9583C23.6466 78.5966 8.09489 62.5028 8.45698 43.0635C8.80096 23.6243 24.9139 8.09105 44.3761 8.43463C63.8564 8.79629 79.39 24.8901 79.046 44.3293C78.702 63.7686 62.571 79.3018 43.1088 78.9583Z" fill="#374C98"/>
<path d="M44.3254 12.0585C26.8547 11.751 12.3893 25.693 12.0815 43.1431C11.7556 60.5751 25.7141 75.0234 43.1848 75.3489C60.6556 75.6563 75.121 61.7143 75.4287 44.2823C75.7365 26.8323 61.7961 12.384 44.3254 12.0585ZM57.3787 62.076H28.5565L32.0868 42.5644L27.9952 43.4144V40.0871L32.7024 39.0925L35.762 22.3115H47.2583L44.6513 36.5971L48.6704 35.7472V39.0744L44.0357 40.0328L41.3563 54.7885H59.515L57.3787 62.076Z" fill="#374C98"/>
</svg>
