<svg width="26" height="26" viewBox="0 0 26 26" fill="none" xmlns="http://www.w3.org/2000/svg">
<g clip-path="url(#clip0_1_51291)">
<rect x="0.923828" y="0.133301" width="25" height="25" rx="12.5" fill="white"/>
<path d="M22.2566 3.79153C21.0969 2.62927 19.719 1.70759 18.202 1.07943C16.6851 0.451259 15.0589 0.128984 13.4171 0.131114C6.51289 0.131114 0.916016 5.72799 0.916016 12.6322C0.916016 16.0842 2.31602 19.2103 4.57852 21.4728C5.73823 22.635 7.11615 23.5567 8.63312 24.1849C10.1501 24.8131 11.7762 25.1353 13.4181 25.1332C20.3223 25.1332 25.9191 19.5363 25.9191 12.6322C25.9191 9.18007 24.5191 6.05403 22.2566 3.79153ZM20.6504 19.8613C19.7017 20.8125 18.5743 21.5668 17.3332 22.0809C16.092 22.595 14.7615 22.8588 13.4181 22.8572C7.76914 22.8572 3.18997 18.278 3.18997 12.629C3.18829 11.2856 3.45209 9.9551 3.96621 8.71394C4.48033 7.47279 5.23465 6.34546 6.18581 5.39674C7.13431 4.44556 8.26144 3.69123 9.50243 3.1771C10.7434 2.66298 12.0738 2.39919 13.4171 2.40091C19.065 2.40091 23.6441 6.98007 23.6441 12.628C23.6459 13.9713 23.3822 15.3017 22.868 16.5426C22.3539 17.7836 21.5995 18.9108 20.6483 19.8592L20.6504 19.8613Z" fill="url(#paint0_linear_1_51291)" style="mix-blend-mode:hard-light"/>
<path d="M15.0249 12.6333L19.0406 8.61769C19.2387 8.40178 19.3457 8.11771 19.3393 7.82477C19.333 7.53183 19.2137 7.25267 19.0065 7.04555C18.7992 6.83843 18.52 6.71936 18.227 6.7132C17.9341 6.70704 17.6501 6.81426 17.4343 7.01248L17.4354 7.01144L13.4197 11.0271L9.40411 7.01144C9.1882 6.81336 8.90413 6.70632 8.61119 6.71267C8.31826 6.71902 8.03909 6.83827 7.83197 7.04552C7.62485 7.25278 7.50578 7.53202 7.49962 7.82496C7.49346 8.11791 7.60068 8.40191 7.7989 8.61769L7.79786 8.61665L11.8135 12.6323L7.79786 16.6479C7.68488 16.7515 7.59404 16.877 7.53081 17.0167C7.46759 17.1564 7.43328 17.3074 7.42995 17.4607C7.42663 17.614 7.45436 17.7664 7.51147 17.9086C7.56859 18.0509 7.6539 18.1802 7.76229 18.2887C7.87067 18.3971 7.99988 18.4825 8.14214 18.5397C8.28439 18.5969 8.43675 18.6248 8.59004 18.6215C8.74334 18.6183 8.89439 18.5841 9.03412 18.521C9.17384 18.4578 9.29934 18.3671 9.40307 18.2541L9.40411 18.2531L13.4197 14.2375L17.4354 18.2531C17.539 18.3661 17.6645 18.4569 17.8041 18.5202C17.9438 18.5834 18.0949 18.6177 18.2482 18.621C18.4014 18.6243 18.5538 18.5966 18.6961 18.5395C18.8384 18.4824 18.9677 18.3971 19.0761 18.2887C19.1846 18.1803 19.27 18.0511 19.3272 17.9088C19.3844 17.7666 19.4122 17.6142 19.409 17.4609C19.4058 17.3076 19.3716 17.1566 19.3084 17.0168C19.2453 16.8771 19.1545 16.7516 19.0416 16.6479L19.0406 16.6469L15.0249 12.6333Z" fill="url(#paint1_linear_1_51291)" style="mix-blend-mode:hard-light"/>
</g>
<defs>
<linearGradient id="paint0_linear_1_51291" x1="0.916016" y1="0.131104" x2="2.38399" y2="26.5047" gradientUnits="userSpaceOnUse">
<stop stop-color="#414593"/>
<stop offset="1" stop-color="#00022E"/>
</linearGradient>
<linearGradient id="paint1_linear_1_51291" x1="7.42969" y1="6.7124" x2="8.12489" y2="19.2755" gradientUnits="userSpaceOnUse">
<stop stop-color="#414593"/>
<stop offset="1" stop-color="#00022E"/>
</linearGradient>
<clipPath id="clip0_1_51291">
<rect x="0.923828" y="0.133301" width="25" height="25" rx="12.5" fill="white"/>
</clipPath>
</defs>
</svg>
