<svg width="41" height="41" viewBox="0 0 41 41" fill="none" xmlns="http://www.w3.org/2000/svg">
<rect x="0.988281" y="0.900391" width="39.9889" height="39.9889" rx="19.9945" fill="#070A0E"/>
<path fill-rule="evenodd" clip-rule="evenodd" d="M12.5477 27.6037C11.9499 27.2378 11.584 26.588 11.584 25.8882V21.9813C11.584 21.5174 11.9619 21.1415 12.4258 21.1435C12.5737 21.1435 12.7197 21.1835 12.8476 21.2575L21.6632 26.398C22.179 26.6979 22.497 27.2498 22.497 27.8476V31.8945C22.499 32.4504 22.0491 32.9022 21.4932 32.9022C21.3073 32.9022 21.1233 32.8502 20.9654 32.7543L12.5477 27.6037ZM25.6881 20.1878C26.2039 20.4877 26.5198 21.0415 26.5218 21.6374V29.8511C26.5218 30.093 26.3919 30.3169 26.1799 30.4349L24.2505 31.5206C24.2265 31.5346 24.2005 31.5446 24.1725 31.5526V26.9919C24.1725 26.402 23.8626 25.8542 23.3547 25.5503L15.6129 20.9196V15.771C15.6129 15.3071 15.9908 14.9312 16.4546 14.9332C16.6026 14.9332 16.7486 14.9732 16.8765 15.0472L25.6881 20.1878ZM29.547 14.1214C30.0649 14.4214 30.3828 14.9752 30.3828 15.573V27.5697C30.3808 27.8156 30.2448 28.0416 30.0289 28.1595L28.1994 29.1473V20.7956C28.1994 20.2057 27.8895 19.6599 27.3856 19.356L19.4718 14.6093V9.72666C19.4718 9.5787 19.5118 9.43274 19.5838 9.30477C19.8177 8.90488 20.3316 8.76892 20.7314 9.00086L29.547 14.1214Z" fill="#00D395"/>
</svg>
