<svg width="32" height="32" viewBox="0 0 32 32" fill="none" xmlns="http://www.w3.org/2000/svg">
<path fill-rule="evenodd" clip-rule="evenodd" d="M17.3333 28.0003C17.3333 28.7377 17.9293 29.3337 18.6667 29.3337H22.6667C24.0813 29.3337 25.4373 28.7723 26.4373 27.7723C27.4373 26.7723 28 25.415 28 24.0003C28 23.235 28 22.667 28 22.667C28 21.931 27.4027 21.3337 26.6667 21.3337H18.6667C17.9293 21.3337 17.3333 21.931 17.3333 22.667V28.0003ZM13.3333 29.3337C14.0693 29.3337 14.6667 28.7377 14.6667 28.0003V14.667C14.6667 13.931 14.0693 13.3337 13.3333 13.3337H5.33333C4.596 13.3337 4 13.931 4 14.667V24.0003C4 25.415 4.56133 26.7723 5.56133 27.7723C6.56133 28.7723 7.91867 29.3337 9.33333 29.3337H13.3333ZM25.3333 24.0003H20V26.667H22.6667C23.3733 26.667 24.052 26.387 24.552 25.887C25.052 25.387 25.3333 24.7083 25.3333 24.0003ZM12 26.667V16.0003H6.66667V24.0003C6.66667 24.7083 6.94666 25.387 7.448 25.887C7.948 26.387 8.62533 26.667 9.33333 26.667H12ZM18.6667 2.66699C17.9293 2.66699 17.3333 3.26433 17.3333 4.00033V17.3337C17.3333 18.071 17.9293 18.667 18.6667 18.667H26.6667C27.4027 18.667 28 18.071 28 17.3337V8.00033C28 6.58699 27.4373 5.22966 26.4373 4.22966C25.4373 3.22965 24.0813 2.66699 22.6667 2.66699H18.6667ZM20 5.33366V16.0003H25.3333V8.00033C25.3333 7.29366 25.052 6.61499 24.552 6.11499C24.052 5.61499 23.3733 5.33366 22.6667 5.33366H20ZM14.6667 4.00033C14.6667 3.26433 14.0693 2.66699 13.3333 2.66699H9.33333C7.91867 2.66699 6.56133 3.22965 5.56133 4.22966C4.56133 5.22966 4 6.58699 4 8.00033V9.33366C4 10.071 4.596 10.667 5.33333 10.667H13.3333C14.0693 10.667 14.6667 10.071 14.6667 9.33366V4.00033ZM12 5.33366H9.33333C8.62533 5.33366 7.948 5.61499 7.448 6.11499C6.94666 6.61499 6.66667 7.29366 6.66667 8.00033H12V5.33366Z" fill="white"/>
</svg>
