<svg width="41" height="41" viewBox="0 0 41 41" fill="none" xmlns="http://www.w3.org/2000/svg">
<path d="M20.9827 40.5714C32.0254 40.5714 40.9772 31.6196 40.9772 20.577C40.9772 9.53434 32.0254 0.58252 20.9827 0.58252C9.9401 0.58252 0.988281 9.53434 0.988281 20.577C0.988281 31.6196 9.9401 40.5714 20.9827 40.5714Z" fill="#988430"/>
<path d="M20.9829 39.9311C31.6718 39.9311 40.3369 31.2661 40.3369 20.5771C40.3369 9.88822 31.6718 1.22314 20.9829 1.22314C10.294 1.22314 1.62891 9.88822 1.62891 20.5771C1.62891 31.2661 10.294 39.9311 20.9829 39.9311Z" fill="#7A6A2A"/>
<path d="M20.9814 39.5228C31.4451 39.5228 39.9276 31.0403 39.9276 20.5766C39.9276 10.1129 31.4451 1.63037 20.9814 1.63037C10.5177 1.63037 2.03516 10.1129 2.03516 20.5766C2.03516 31.0403 10.5177 39.5228 20.9814 39.5228Z" fill="#BA9F33"/>
<path fill-rule="evenodd" clip-rule="evenodd" d="M9.73005 18.4412C9.6168 18.3378 9.49716 18.2341 9.38711 18.1307C9.27706 18.0273 9.16402 17.9236 9.05077 17.8202L8.71423 17.5002C8.6592 17.4452 8.60098 17.3968 8.54595 17.3416C8.49093 17.2932 8.42631 17.2381 8.37128 17.1895C7.92468 16.7657 7.47553 16.342 7.03512 15.918C7.49131 16.3353 7.93791 16.7497 8.3941 17.1733L8.55256 17.332C8.60759 17.3868 8.66581 17.4354 8.72084 17.4904L9.05717 17.801C9.17042 17.9044 9.28047 18.0081 9.39372 18.1209C9.50697 18.2337 9.61701 18.3376 9.73026 18.4408L9.73005 18.4412ZM3.80295 18.3772C3.80295 18.3772 5.42703 18.5453 6.21977 18.6585C6.95407 18.7622 9.25125 19.1147 9.25125 19.1147L3.80295 18.3772ZM3.80295 18.3772C4.25914 18.4161 4.71533 18.4645 5.17153 18.5131C5.40442 18.5357 5.62772 18.5615 5.85102 18.5841L6.19375 18.6231C6.307 18.6391 6.41705 18.6553 6.5303 18.6716L7.88928 18.8882L8.56856 19.0015C8.79186 19.0403 9.01516 19.0825 9.24805 19.1213C9.02475 19.0987 8.79186 19.0663 8.56856 19.0339L7.88928 18.9369L6.5303 18.7364C6.41705 18.7202 6.307 18.6974 6.19375 18.6814L5.85081 18.6419C5.62751 18.6193 5.39461 18.5869 5.17131 18.5609C4.71512 18.5061 4.25893 18.4476 3.80273 18.3766L3.80295 18.3772ZM9.08959 19.5379C9.08959 19.5379 7.35546 19.9781 6.7698 20.1463C6.19396 20.3048 4.45002 20.8354 4.45002 20.8354L9.08937 19.5381L9.08959 19.5379Z" fill="#CFB66C"/>
<path fill-rule="evenodd" clip-rule="evenodd" d="M9.09119 19.5381C8.70623 19.6513 8.3234 19.7614 7.9329 19.865L6.7746 20.1756C6.38964 20.2888 6.00682 20.3989 5.62292 20.5121L5.04708 20.6706C4.8562 20.7256 4.66212 20.774 4.46484 20.8292C4.65551 20.7653 4.8498 20.6998 5.04068 20.6448L5.61652 20.4605C6.00148 20.3406 6.38431 20.2274 6.7682 20.1077C7.15956 20.0107 7.54474 19.9071 7.93609 19.8132C8.30804 19.7194 8.69962 19.6257 9.09119 19.5383V19.5381ZM4.69454 21.9033C4.88521 21.8321 7.08534 20.8066 7.59656 20.5671C7.85249 20.4473 8.59639 20.1832 8.59639 20.1832L4.69454 21.9033Z" fill="#CFB66C"/>
<path fill-rule="evenodd" clip-rule="evenodd" d="M4.69357 21.9034C4.86163 21.8394 5.02031 21.7611 5.18197 21.6867L5.66077 21.4634L6.62178 21.0008C6.9417 20.8487 7.25265 20.6809 7.58258 20.538C7.75086 20.467 7.91913 20.4087 8.08719 20.3537L8.34312 20.2729C8.43035 20.2503 8.51139 20.2243 8.59905 20.2017C8.27914 20.3537 7.94238 20.4832 7.62204 20.6318C7.30213 20.7905 6.97497 20.92 6.64482 21.0622L5.66781 21.4924C5.33979 21.6253 5.01988 21.7675 4.69336 21.9034H4.69357ZM4.90685 22.7991C4.90685 22.7991 6.89968 21.6312 7.58557 21.2559C7.94472 21.0554 9.10621 20.4793 9.10621 20.4793L4.90685 22.7991Z" fill="#CFB66C"/>
<path fill-rule="evenodd" clip-rule="evenodd" d="M4.90625 22.7993C5.24258 22.5922 5.58553 22.3819 5.92847 22.1685L6.44033 21.8577C6.615 21.7543 6.78328 21.6572 6.96136 21.5538C7.13603 21.4502 7.3043 21.3467 7.48218 21.2497C7.56685 21.1974 7.65557 21.152 7.74749 21.1138L8.0192 20.978C8.37835 20.8033 8.73751 20.6252 9.11607 20.4731C8.77312 20.69 8.42037 20.8745 8.06783 21.0652C7.89315 21.1622 7.71507 21.2497 7.5404 21.3467C7.36573 21.4438 7.19745 21.5474 7.01937 21.6412C6.8447 21.7447 6.67643 21.8417 6.49855 21.9356L5.97113 22.2235L4.90668 22.7993H4.90625ZM9.08941 20.735C9.08941 20.735 7.85029 21.6862 7.44912 21.9904C7.04795 22.2945 5.86705 23.1487 5.86705 23.1487L9.08941 20.735Z" fill="#CFB66C"/>
<path fill-rule="evenodd" clip-rule="evenodd" d="M16.2005 28.4067L15.5664 27.2064L15.9352 25.7052L18.5655 24.6894L17.446 22.3924L17.9992 20.0726L19.0379 17.9953L22.2474 17.4907L24.6058 15.2422L29.6984 15.6271L30.698 21.0722L28.773 27.9279L27.6763 31.4773L23.2308 31.6455L21.1668 30.2155L18.7499 29.2059L16.2005 28.4067Z" fill="#E2CC85"/>
<path fill-rule="evenodd" clip-rule="evenodd" d="M24.0002 28.3672C24.0002 28.3672 23.3854 28.6487 22.3367 28.5839C22.0332 28.1763 19.9077 27.9854 19.9077 27.9854C19.9077 27.9854 19.6424 27.9046 19.1732 28.0987C18.701 28.2906 18.2544 28.267 17.837 28.3704C17.4197 28.4738 17.0053 27.9304 16.6854 27.8172C16.3655 27.6975 15.9413 27.4096 15.9413 27.4096L15.0455 27.3222L13.2467 26.5618L10.3891 23.7148L9.61255 24.9305L9.37305 26.4349L10.237 28.2177L12.5632 30.3368L17.0991 31.4885L19.7877 30.6964L23.1557 29.2728L24.0002 28.367V28.3672Z" fill="#F1D789"/>
<path fill-rule="evenodd" clip-rule="evenodd" d="M7.88413 18.3053L8.45997 16.5615L9.14607 15.4355L11.3556 15.251L10.6923 17.1858L8.84514 20.473L9.61186 23.4074L8.25309 24.0867L7.8355 23.4463L7.49917 21.9774L7.47656 20.3273L7.88413 18.3053Z" fill="#F4ECB4"/>
<path fill-rule="evenodd" clip-rule="evenodd" d="M10.3614 28.2476L9.93764 27.6556C9.93764 27.6556 9.8244 27.3741 9.88923 27.1282C9.95321 26.8791 9.94404 26.8629 9.91184 26.769C9.87963 26.6752 9.60771 26.3516 9.62392 26.0733C9.63991 25.7918 9.60131 25.698 9.80819 25.4749C10.0249 25.2582 9.96025 24.8828 9.96025 24.8828L10.2418 25.0575L10.3058 24.9604C10.3058 24.9604 10.4092 25.0413 10.4092 25.1675C10.4318 24.9929 10.338 24.1839 10.5514 23.9996C10.7649 23.8154 11.1435 24.8634 11.1435 24.8634L10.9106 23.3428L10.3119 21.7835L9.24749 20.3599L9.18351 18.7906V18.6548C9.18351 18.6548 8.6949 19.4055 8.55904 19.9984C8.462 20.406 8.6949 20.901 8.64648 21.4866C8.60745 22.0691 8.55904 22.0237 8.70129 22.2544C8.84355 22.4852 9.18991 22.9597 9.05405 23.3027C8.9344 23.5972 8.52662 23.3901 8.52662 23.3901C8.52662 23.3901 8.44579 23.6294 8.33574 23.7168C8.29693 23.5746 8.25491 23.484 8.17728 23.3969C8.17067 23.452 8.15467 23.5264 8.15467 23.5264C8.15467 23.5264 8.08344 23.3031 8.01221 23.0216C7.91538 22.6464 7.81173 22.1514 7.71789 21.8861C7.67907 22.0382 7.58203 22.5008 7.58203 22.5008L7.63706 23.2127L7.90237 24.1897L8.1583 24.8295L8.4074 25.6124L8.62388 26.1384L8.79855 26.5395L8.95061 27.4423L9.68491 28.2186L10.0765 28.3935L10.361 28.2479L10.3614 28.2476Z" fill="#F3E19D"/>
<path fill-rule="evenodd" clip-rule="evenodd" d="M8.26654 16.8818C8.26654 16.8818 7.73911 17.7776 7.58726 18.6806C7.43541 19.5836 7.29934 20.5378 7.39531 21.7671C7.49235 23.0064 7.67683 23.7665 7.8257 24.3102C8.08163 25.2129 8.74448 26.4683 8.74448 26.4683L8.76709 26.4197C8.65567 26.2085 8.56675 25.9861 8.50178 25.7564C8.41433 25.4134 8.38192 25.0059 8.30109 24.8214C8.22985 24.6371 8.11021 24.4784 8.05198 24.2519C7.99696 24.0352 7.988 23.6923 7.81909 23.4368C7.74785 23.3332 7.66041 23.0614 7.6346 22.7897C7.60219 22.3819 7.65081 21.9258 7.612 21.5506C7.54076 20.9261 7.49235 20.5024 7.55697 20.1754C7.62159 19.8485 7.95836 18.9203 8.16544 18.1826C8.3013 17.7102 8.22026 17.3122 8.46936 16.9012C8.71846 16.4937 8.87074 16.1345 8.92555 15.8854C8.98954 15.6589 8.26568 16.8818 8.26568 16.8818H8.26654Z" fill="#F2E8B0"/>
<path fill-rule="evenodd" clip-rule="evenodd" d="M10.7699 16.5229C10.7699 16.5229 10.4982 16.604 10.3687 16.7462C10.2393 16.8821 10.1843 16.9954 10.0096 17.225C9.83493 17.4547 9.82511 17.6424 9.68265 17.9303C9.54039 18.2119 9.22645 18.6356 9.18764 18.7877C9.14882 18.9398 9.0842 19.6515 9.00337 19.988C8.93214 20.3246 9.0842 20.7387 9.0842 20.7387L9.26847 20.6997C9.26847 20.6997 9.26847 20.9392 9.45295 21.1011C9.63722 21.2596 9.66964 20.5639 9.66964 20.5639L10.3587 18.2377L11.3972 17.5324L11.5104 16.9629L10.7695 16.5229H10.7699Z" fill="#F5EEC0"/>
<path fill-rule="evenodd" clip-rule="evenodd" d="M11.2739 17.5776C11.2739 17.5776 10.7853 17.6098 10.546 17.7847C10.449 17.8557 10.4101 17.9139 10.3067 18.0014C10.1158 18.1598 9.92152 18.3055 9.8279 18.5132C9.72425 18.7201 9.611 19.034 9.53337 19.6261C9.50095 19.8752 9.50095 20.1049 9.47834 20.3056C9.44592 20.5773 9.39751 20.794 9.42332 20.9454C9.45573 21.2559 9.77607 21.4178 9.80721 21.7703L10.4705 21.434L11.095 18.9718L12.4215 18.14L11.6708 17.2988L11.273 17.5761L11.2739 17.5776Z" fill="#E6DB9D"/>
<path fill-rule="evenodd" clip-rule="evenodd" d="M7.77365 34.1578C7.77642 34.1334 7.7792 34.1091 7.78197 34.0842C7.87879 33.2524 7.89522 32.622 7.96624 32.2272C8.06968 31.6676 8.14091 31.4594 8.1247 31.25C8.10209 30.9136 8.07629 30.6677 8.1087 30.4088C8.15712 30.0659 8.49366 29.6583 8.48407 29.3768C8.47746 29.1535 8.36421 29.008 8.26717 28.8722C8.17013 28.7363 8.0925 28.6231 8.0925 28.6231C8.0925 28.6231 8.75578 28.1669 8.74938 26.3291C8.76293 26.3329 8.77596 26.3384 8.7882 26.3453L9.11493 27.2737L9.33823 27.5454L10.1956 29.1437L11.2989 30.2147L12.9293 31.3114L13.9518 32.424L14.0552 35.3909L12.7191 37.125L12.5002 37.5213C10.7618 36.6486 9.16761 35.5141 7.77344 34.1575L7.77365 34.1578Z" fill="#E5CB7A"/>
<path fill-rule="evenodd" clip-rule="evenodd" d="M11.8574 36.9962C11.8574 36.9962 11.88 36.6275 12.1842 36.388C12.2328 36.4688 12.265 36.5466 12.2554 36.6046C12.3104 36.5078 12.6954 35.8866 13.5657 35.7247C14.4361 35.5662 14.6464 34.9322 14.6464 34.9322L16.4936 33.253L18.6063 31.3086L21.1752 30.4058L22.3757 30.1113C22.3757 30.1113 22.3983 30.1987 22.3531 30.3928C22.5762 30.3768 23.0712 30.2636 23.5856 30.0823C23.7927 30.0015 23.987 29.9691 24.0904 30.0759C24.2425 30.2182 24.2651 30.5547 24.2747 30.7552C24.5238 30.7002 24.8117 30.4609 25.0425 30.4835C25.4114 30.5223 25.7382 30.9559 26.1135 30.9559C26.6085 30.9559 26.8316 30.6517 27.178 30.4122C27.3851 30.27 27.6826 30.0923 27.8509 29.9723C28.252 29.6777 32.4968 28.3804 32.4968 28.3804L33.985 28.4774L34.2246 30.0757L34.0966 34.2537C34.0808 34.2689 34.065 34.2847 34.049 34.2998L27.2823 37.834L17.9025 39.2719C15.8014 38.9286 13.7738 38.2311 11.906 37.2093L11.8581 36.996L11.8574 36.9962Z" fill="#D8C173"/>
<path fill-rule="evenodd" clip-rule="evenodd" d="M8.34375 34.6895C8.47705 34.4107 8.59691 34.1776 8.61802 34.0942C8.63466 34.2623 8.66515 34.631 8.72658 35.023C8.59762 34.9134 8.47001 34.8022 8.34375 34.6893V34.6895Z" fill="#F1D789"/>
<path fill-rule="evenodd" clip-rule="evenodd" d="M15.1949 38.6212L16.408 38.2838L16.5114 38.3163C16.5114 38.3163 16.5664 38.3487 16.5664 38.4585C16.7185 38.3713 16.8479 38.3873 16.9418 38.3293C16.9902 38.4327 17.0386 38.7757 17.2523 38.8177C17.4754 38.8663 17.7149 38.7206 17.9576 38.5364C18.1969 38.3455 18.4695 38.106 18.6757 38.0089C18.7514 38.1481 18.8184 38.2917 18.8764 38.4391C19.1481 38.2224 19.6205 37.3425 20.2934 37.3585C20.4879 36.8988 20.8128 36.5063 21.228 36.2294C21.8524 35.8056 22.2438 35.7732 22.7324 35.812C22.9265 35.5599 23.1656 35.346 23.4377 35.1811C23.5185 35.2136 23.7418 35.3494 24.0201 35.22C24.3017 35.0907 24.6186 34.5891 25.036 34.5245C25.2609 34.4935 25.4896 34.5415 25.683 34.6603C25.683 34.6603 26.8987 33.4534 27.7375 33.0522C27.7051 32.9552 27.6405 32.5896 28.6239 31.7807C28.6789 31.8293 28.6401 31.9652 28.6789 31.9726C28.6949 31.9726 28.9348 31.8692 29.2385 31.6361C29.6139 31.3548 30.0635 31.0603 30.3352 30.9794C30.847 30.8274 31.39 31.1379 31.39 31.1379C31.4362 31.1055 31.4877 31.0814 31.5421 31.0667C31.6713 31.044 31.7652 31.0278 31.8364 31.0027C31.83 31.1709 31.9239 31.4589 31.8364 31.708C31.9377 31.7649 32.045 31.8105 32.1563 31.8438C32.1015 31.9635 31.9817 32.2676 31.7812 32.4133C31.9492 32.4941 31.9719 32.5879 32.2114 32.6692C32.1143 32.805 31.9554 33.0382 31.8846 33.1811C31.8134 33.3331 31.5577 33.964 31.4444 34.2033C31.3248 34.4428 31.1631 34.8828 31.0853 34.9711C31.0074 35.0594 30.7261 35.4337 30.5094 35.6179C30.7014 35.5467 31.4867 35.3074 31.8198 35.2168C31.7206 35.3622 31.2179 36.108 30.7346 36.8253C26.0536 39.6309 20.3916 40.2864 15.1934 38.6244L15.1949 38.6212Z" fill="#E0CD81"/>
<path fill-rule="evenodd" clip-rule="evenodd" d="M11.3521 17.4903C11.3521 17.4903 11.0708 17.4903 11.0158 17.5292C10.9608 17.568 11.2973 17.649 11.4008 17.6878C11.5042 17.7266 11.7275 17.9045 11.7857 18.047C11.8407 18.1828 13.8078 18.9754 13.8078 18.9754L15.199 18.9041L15.6786 18.2415L14.7662 17.4424L15.4061 15.5562L14.5585 15.692L12.5202 16.9077L11.4978 17.2992L11.3521 17.4903Z" fill="#DFC57C"/>
<path fill-rule="evenodd" clip-rule="evenodd" d="M14.4105 18.115C14.4514 18.1812 14.5246 18.2207 14.6025 18.2184C14.8904 18.2184 15.1555 18.2896 15.2655 18.4351C15.45 18.6682 15.9612 19.4123 15.9612 19.4123L17.1841 19.8523L17.2631 18.4123L15.9269 17.4839L14.4062 18.0435V18.1148H14.4097L14.4105 18.115Z" fill="#E5CC7C"/>
<path fill-rule="evenodd" clip-rule="evenodd" d="M14.1698 18.6489C14.1698 18.6489 14.3929 18.6651 14.6744 18.5614C14.9559 18.4578 15.4185 18.2347 15.6192 18.3221C15.9005 18.4418 15.8423 18.8171 16.1467 19.1539C16.3309 19.361 16.6675 19.3546 16.8584 19.5779C17.0492 19.8012 17.7059 19.6975 17.7059 19.6975L17.955 21.0412L16.9554 22.3225L16.6284 23.9142H15.2767L14.0419 23.4243L13.4336 21.9527L13.7377 20.4645L14.1698 18.6489Z" fill="#D2C281"/>
<path fill-rule="evenodd" clip-rule="evenodd" d="M16.7835 18.7134C16.817 18.7237 16.8518 18.7292 16.8869 18.7296C16.8481 18.762 16.767 18.833 16.7994 19.0175C16.8319 19.202 16.9353 19.4349 16.8481 19.5771C16.9177 19.6533 16.9696 19.7439 17.0001 19.8424C17.0552 20.0011 17.0714 20.1466 17.4303 20.1694C17.3785 20.2013 17.3307 20.2393 17.2881 20.2826C17.2881 20.2826 17.5372 20.4993 17.6634 20.6998C17.7927 20.6943 18.1356 20.5876 18.1356 20.5876L18.2068 20.6363L18.3589 20.5723C18.3589 20.5723 18.2167 20.5172 18.3201 20.1711C18.4171 19.867 18.5046 19.8832 18.512 19.8606C18.5195 19.838 18.5833 19.5176 18.5833 19.3882C18.6317 19.2201 18.6705 18.7089 18.6705 18.7089L18.5671 17.5798L17.9848 17.2271L17.5114 16.77L17.0648 17.6112L16.7707 17.9044L16.748 18.6323L16.7835 18.7134Z" fill="#E2C270"/>
<path fill-rule="evenodd" clip-rule="evenodd" d="M18.1836 17.7684C18.1836 17.7684 18.287 18.0627 18.3261 18.2892C18.3398 18.2452 18.3474 18.1995 18.3487 18.1534C18.3487 18.1534 18.4295 18.5999 18.4455 18.7844C18.4779 18.7778 18.5095 18.7682 18.5167 18.8004C18.524 18.8326 18.5978 19.192 18.5807 19.3925C18.7154 19.1702 18.9019 18.9838 19.1241 18.8491C19.2536 18.768 19.4057 18.6808 19.5643 18.6742C19.8134 18.6678 19.9945 18.8328 20.2922 18.8328C21.0103 18.8328 21.6608 18.3054 22.1396 18.1438C22.4922 18.0239 22.7963 17.9367 23.0098 17.7424C23.1134 17.6551 23.2979 17.4611 23.466 17.1729C23.6893 16.789 23.9222 16.4548 24.1553 16.4128C24.0498 16.4322 23.9425 16.4398 23.8354 16.4354C23.8354 16.4354 23.9066 16.3642 24.0273 16.2672C24.148 16.1701 24.2926 16.0505 24.4995 16.0505C24.8685 16.0505 25.0527 16.1053 25.2598 16.1053C25.4669 16.0989 25.5866 16.0505 25.5866 16.0505C25.5866 16.0505 25.8035 16.2025 26.2919 16.2025C26.7805 16.2089 27.1072 16.2509 27.3629 16.2738C27.6186 16.2966 28.4758 16.2025 28.7217 16.2098C28.882 16.216 29.0394 16.2545 29.1845 16.323L28.3917 14.0197L25.5441 11.5308L23.8488 12.7311L21.2409 15.3388L18.7174 16.2738L18.19 16.8658V17.7684H18.1836Z" fill="#CCB360"/>
<path fill-rule="evenodd" clip-rule="evenodd" d="M23.8458 16.4486C23.8458 16.4486 23.9171 16.3776 24.0365 16.2806C24.1559 16.1835 24.302 16.0637 24.5089 16.0637C24.8776 16.0637 25.0621 16.1187 25.2692 16.1187C25.4763 16.1123 25.596 16.0637 25.596 16.0637C25.596 16.0637 25.8131 16.2155 26.3013 16.2155C26.7899 16.2219 27.1166 16.264 27.3723 16.2866C27.628 16.3092 28.4852 16.2155 28.7311 16.2226C28.8914 16.2286 29.0487 16.2671 29.1937 16.3358L28.8345 15.2972L28.4174 14.5047L27.2266 13.2007C27.2266 13.2007 25.7977 12.3595 25.7868 12.3531C25.7804 12.3467 25.2918 12.2173 25.2918 12.2173L23.9977 13.0002L22.8234 16.0383L22.8008 16.6781L23.5609 17.0373C23.7518 16.7174 23.9623 16.4614 24.1596 16.429C23.9815 16.4484 23.8456 16.4484 23.8456 16.4484L23.8458 16.4486Z" fill="#D5B457"/>
<path fill-rule="evenodd" clip-rule="evenodd" d="M23.8309 16.6656C23.7176 16.672 23.624 16.6494 23.598 16.5686C23.5009 16.2969 23.4233 16.258 23.3421 16.258C23.2608 16.258 23.1512 16.4327 23.0861 16.4487C23.0211 16.4647 22.9439 16.2482 22.9439 16.2482L22.8726 16.2158C22.8726 16.2158 22.4553 16.4875 22.1609 16.8079C21.8666 17.1282 21.3844 17.6718 21.1677 17.7687C20.951 17.8655 20.2067 17.8981 19.9521 17.9532C19.6974 18.0082 19.415 18.1927 19.3762 18.2347C19.3374 18.2767 19.4897 18.3219 19.5123 18.3639C19.5349 18.4027 19.263 18.3865 19.2404 18.4279C19.2244 18.4603 19.3044 18.6446 19.344 18.7384C19.4134 18.7039 19.4896 18.6851 19.5671 18.6834C19.8162 18.677 19.9975 18.8421 20.295 18.8421C21.0133 18.8421 21.6636 18.3147 22.1424 18.1528C22.4951 18.0331 22.7993 17.9457 23.0128 17.7516C23.1162 17.6644 23.3007 17.4701 23.469 17.1822C23.5918 16.9849 23.7117 16.8004 23.8315 16.6645L23.8309 16.6656Z" fill="#D2B257"/>
<path fill-rule="evenodd" clip-rule="evenodd" d="M13.529 32.6772C13.529 32.6772 13.465 32.4377 12.8721 31.8198C12.7038 31.6452 12.6004 31.4999 12.4871 31.3961C12.2056 31.1305 12.0405 31.0595 11.8401 30.9075C11.4001 30.5807 10.9213 30.5807 10.5525 30.1796C10.1838 29.7784 9.75402 29.0119 9.45544 28.2285C9.16112 27.4456 9.08008 27.1965 9.08008 27.1739C9.08008 27.1513 9.16112 26.9992 9.26456 27.0218C9.368 27.0444 9.368 27.2449 9.39402 27.2935C9.44555 27.3729 9.504 27.4475 9.56869 27.5166C9.72075 27.6915 9.93744 27.9005 10.0475 28.2123C10.0249 27.947 9.93424 27.6527 9.93424 27.6527C9.93424 27.6527 10.5037 28.0118 10.9889 28.387C11.4775 28.7623 11.678 28.8918 11.8207 29.1311C11.9633 29.3704 12.2995 30.0015 12.4605 30.186C12.6215 30.3704 14.8278 31.0659 14.8278 31.0659L15.8773 31.8484L16.3984 32.9905L15.9906 33.6303L15.2077 33.7986L13.9361 33.2292L13.529 32.677V32.6772Z" fill="#D2B159"/>
<path fill-rule="evenodd" clip-rule="evenodd" d="M10.7051 28.7427C10.7051 28.7427 10.9704 29.1665 11.6175 29.5676C12.1999 29.9204 13.1219 30.2407 13.9439 30.4316C14.416 30.5449 14.8885 30.6321 15.3122 30.6387C16.4543 30.6547 17.2404 30.3282 18.2145 30.2213C18.7419 30.1663 19.389 30.1243 20.0618 29.9654C20.9256 29.7583 21.4368 29.5252 22.1325 29.1976C22.6371 28.9647 23.0999 28.79 23.4751 28.5667C24.0025 28.2562 24.3875 27.9101 24.8341 27.8066C24.779 27.9587 24.7208 28.2304 24.2808 28.5119C24.5137 28.5053 24.8341 28.4893 24.8341 28.4893C24.8341 28.4893 24.5235 28.6736 23.9767 29.0878C23.6402 29.3437 23.1938 29.7769 22.7376 30.0648C22.443 30.2493 22.1227 30.3847 21.9124 30.4952C21.4006 30.7767 21.1941 30.919 20.8578 31.263C20.9774 31.2566 20.9872 31.263 20.9872 31.263C20.9872 31.263 20.5633 31.318 20.2593 31.4796C20.1954 31.4796 20.0845 31.457 19.8904 31.5121C19.7383 31.5605 19.5376 31.6707 19.3307 31.7288C19.0362 31.8162 18.9394 31.7774 18.9394 31.7774L18.9878 31.8744C18.9878 31.8744 18.6039 31.8678 18.4759 31.8808C18.4985 31.8872 18.4921 31.897 18.4921 31.897C18.4697 31.9008 18.448 31.9084 18.4282 31.9196C18.3666 31.9595 18.2989 31.989 18.2277 32.0069C18.1889 32.0133 18.1565 32.0133 18.1078 32.0231C18.124 32.0619 18.2503 32.279 18.3085 32.407C18.2601 32.4394 17.532 32.9894 17.532 32.9894C17.5546 33.025 17.573 33.063 17.587 33.1027C17.6096 33.1737 17.6194 33.2773 17.642 33.3258C17.6968 33.4228 17.7293 33.439 17.7293 33.439C17.7293 33.439 17.642 33.4552 17.4898 33.494C17.3605 33.5264 17.2018 33.5813 16.9779 33.6137C16.9092 33.6226 16.8401 33.628 16.7708 33.6299C16.8032 33.7011 16.9455 33.9728 16.6834 34.2866C16.4213 34.6003 16.3404 34.6459 16.2596 34.8464C16.2189 34.8156 16.1756 34.7885 16.1301 34.7654C16.0429 34.7265 15.923 34.6685 15.881 34.5907C15.8565 34.6944 15.8241 34.7961 15.784 34.8948C15.7032 35.1115 15.5835 35.3252 15.5609 35.4869C15.4735 35.3898 15.3118 35.1989 15.0885 35.2378C14.8652 35.2766 14.6873 35.5807 14.6485 35.6681C14.6485 35.6131 14.6097 35.5711 14.6001 35.6357C14.5935 35.707 14.4706 36.4509 13.7848 37.0527C13.7784 36.9007 13.7784 36.5641 13.7622 36.4543C13.6982 36.5183 13.6199 36.6127 13.1539 36.8134C12.6977 37.0139 12.77 37.2146 12.77 37.2146C12.77 37.2146 12.7312 36.8947 12.9771 36.5577C13.2262 36.2214 13.3783 36.0627 13.3783 36.0369C13.3742 36.0106 13.363 35.986 13.3458 35.9657C13.3134 35.9332 13.2488 35.8944 13.2488 35.8686C13.2876 35.8526 13.6726 35.6681 13.65 35.2862C13.6274 34.9434 13.4819 34.7654 13.3783 34.6393C13.3623 34.6231 13.5305 34.5035 13.5077 34.4646C13.4915 34.442 13.2846 34.2897 13.2586 34.2087C13.2647 34.1603 13.2756 34.1127 13.291 34.0665C13.3136 33.9952 13.3298 33.9466 13.3234 33.8982C13.3072 33.8173 13.2198 33.594 13.194 33.5714C13.2166 33.5778 13.3783 33.5714 13.3783 33.5714C13.3783 33.5714 13.249 33.3644 13.2262 33.2673C13.2034 33.1703 13.155 32.9146 13.1292 32.8661C13.1842 32.8725 13.32 32.8821 13.32 32.8661C13.3266 32.8175 13.2004 32.7367 13.2561 32.6742C13.2949 32.6806 13.3693 32.713 13.4403 32.8037C13.4015 32.7 13.3369 32.4995 13.2008 32.4187C13.2648 32.3961 13.4823 32.3377 13.6732 32.4509C13.8641 32.5641 13.9291 32.7226 13.9291 32.7226C13.9291 32.7226 14.0424 32.8101 14.2173 32.9395C14.4178 33.098 14.6733 33.3234 15.081 33.4829C15.1685 33.5316 15.3916 33.5316 15.5534 33.4991C15.6239 33.4823 15.6915 33.4551 15.7539 33.4183C15.7765 33.405 15.8003 33.3942 15.8252 33.3859C15.7904 33.3161 15.7504 33.249 15.7055 33.1852C15.7605 33.1852 15.8252 33.1918 15.8252 33.1918C15.8252 33.1918 15.864 33.1044 15.6893 32.9359C15.7281 32.8971 15.7767 32.8719 15.7767 32.8064C15.7217 32.8 15.6247 32.7192 15.6021 32.6868C15.6343 32.6642 15.6829 32.5897 15.7379 32.5671C15.6893 32.5283 15.5696 32.3664 15.5146 32.3504C15.5672 32.3309 15.6181 32.3071 15.6667 32.2792C15.6667 32.2792 15.395 32.208 15.3075 32.1498C15.2201 32.0858 15.0908 31.9751 15.0132 31.9427C14.9322 31.9103 14.7899 31.8943 14.7317 31.8294C14.7865 31.8456 14.8739 31.8294 14.9388 31.8294C14.9872 31.8294 15.01 31.8358 15.026 31.8358C15.0196 31.8132 15.0196 31.7646 15.1459 31.7486C15.2066 31.7394 15.2655 31.7209 15.3205 31.6936C15.3205 31.6936 15.2007 31.6872 15.0646 31.5577C14.9285 31.4282 14.8155 31.3248 14.7379 31.3086C14.657 31.2924 14.505 31.3636 14.4111 31.357C14.2817 31.341 14.2267 31.2762 14.2267 31.2762C14.2267 31.2762 13.7965 31.315 12.8421 30.7328C12.0169 30.2279 11.6578 29.7816 11.6578 29.7816C11.5806 29.7535 11.5059 29.7189 11.4347 29.6779C11.1242 29.5162 10.6938 29.1797 10.7068 28.7395L10.7051 28.7427Z" fill="#C2A44D"/>
<path fill-rule="evenodd" clip-rule="evenodd" d="M22.6061 9.32384C22.681 9.34816 22.7475 9.39301 22.7981 9.4533C22.9502 9.62797 23.0472 9.95791 22.701 10.3107C22.8369 10.3591 22.893 10.3746 23.0116 10.3591C22.8919 10.5015 22.6202 10.8057 22.604 11.071C22.5878 11.2877 22.7237 11.3525 22.7237 11.3525C22.7237 11.3525 22.5166 11.5918 22.507 11.9923C22.6048 11.882 22.7118 11.7803 22.8269 11.6882C23.0664 11.4973 23.3963 11.2806 23.6196 11.1448C23.6166 11.2017 23.6243 11.2587 23.6422 11.3128C23.6422 11.3128 24.0594 10.9699 24.41 11.1222C24.5685 11.1934 24.4972 11.4165 24.4972 11.4165C24.4972 11.4165 24.7141 11.3357 24.8662 11.4877C25.0183 11.6398 25.2333 12.032 25.3435 12.1841C25.3919 12.2553 25.5182 12.3912 25.6474 12.6014C25.824 12.8959 25.9714 13.2068 26.0876 13.5298C26.094 13.3615 26.136 13.0996 26.6151 13.2645C27.0939 13.4328 27.6373 13.7855 28.0935 14.4802C28.5497 15.1748 28.6627 15.959 28.8924 16.2576C29.1253 16.5455 29.3648 17.0243 29.381 17.225C29.3972 17.4257 29.3098 18.0726 29.7886 19.8229C29.9244 19.2795 30.1315 18.0726 30.1315 18.0726L30.2448 17.0081L30.3742 13.7145L26.935 10.8573L24.2464 8.90625L22.4961 9.07452L22.6059 9.32363L22.6061 9.32384Z" fill="#CAA13E"/>
<path fill-rule="evenodd" clip-rule="evenodd" d="M28.9966 14.2258C28.9966 14.2258 28.948 13.9058 28.1393 13.362C27.3303 12.825 26.6994 12.825 26.1172 12.3688C25.6706 12.0096 25.2048 11.1845 24.9015 10.9128C24.607 10.6442 24.5586 9.86771 24.5586 9.86771L25.5518 9.03594L27.0289 6.90086L28.2777 5.52588L28.8761 6.35765L29.7079 7.33466L30.1705 9.29529L30.3388 12.1651L28.9951 14.226L28.9966 14.2258Z" fill="#B59544"/>
<path fill-rule="evenodd" clip-rule="evenodd" d="M29.9961 17.6657C30.0205 17.2304 29.9668 16.7944 29.8374 16.3781C29.6241 15.7148 29.1581 14.5371 28.9416 14.0961C28.8542 13.6075 28.919 13.5687 29.0129 13.5136C29.1067 13.4586 29.4595 13.2577 29.6527 12.5528C29.8459 11.848 30.4454 11.8249 30.4454 11.8249L30.8142 11.5532L31.374 12.954L31.8624 14.2192L32.0145 15.1866L32.1277 16.0115L31.8624 17.7554L30.5523 18.9395L29.9959 17.6657H29.9961Z" fill="#C89D3A"/>
<path fill-rule="evenodd" clip-rule="evenodd" d="M11.7129 37.1035V37.0676C11.7401 37.0506 11.7642 37.0289 11.7839 37.0036C11.8065 36.9712 11.8229 36.9324 11.8389 36.9228C11.8714 36.9066 12.0234 36.8588 12.1042 36.8742C12.1851 36.8895 12.3988 36.9776 12.512 36.9712C12.7449 36.9648 13.0166 36.7867 13.447 36.8678C14.0941 36.9874 14.2462 37.4274 14.6215 37.6765C14.8775 37.8514 15.1423 37.7736 15.1812 37.7736H15.2684C15.2846 37.7736 15.4042 37.6377 15.4691 37.6443C15.5985 37.6507 15.6113 37.7576 15.6922 37.764C15.883 37.7866 16.252 37.6669 16.4365 37.7155C16.5475 37.7503 16.6345 37.8372 16.6694 37.9482C16.7082 38.0679 16.6758 38.2199 16.5819 38.3074C16.3815 38.4916 16.1906 38.6665 16.1518 38.8192C16.2011 38.8569 16.2485 38.897 16.2938 38.9395C14.693 38.5317 13.1528 37.915 11.7129 37.1054V37.1035Z" fill="#CEB052"/>
<path fill-rule="evenodd" clip-rule="evenodd" d="M28.9434 30.6389C28.9434 30.6389 29.448 29.9661 29.6228 29.6327C29.7975 29.2891 29.0696 24.9383 29.0696 24.9383L30.532 20.1469L30.493 18.5875C30.493 18.5875 30.5642 17.1476 30.7325 16.5232C30.9332 16.8823 31.5577 17.3159 31.6935 17.5456C31.7575 17.1054 31.9748 16.177 31.9426 15.187C32.0623 15.3713 32.3502 17.2253 32.3502 17.2253L32.6381 18.474L33.0135 19.8006L33.4309 21.2016L33.68 22.169L33.8222 22.4019L33.9421 22.8094L34.0553 23.2496L34.3821 24.2817L34.574 25.1292L34.7261 26.6661C34.7591 26.7837 34.783 26.9038 34.7973 27.0252C34.8037 27.1935 34.7747 27.2905 34.7747 27.3198C34.7747 27.349 34.8297 27.6885 34.8071 27.9442C34.7747 28.2001 34.7747 28.4004 34.574 28.584C34.3733 28.7677 34.2473 29.8652 34.2473 29.8652L33.8881 29.6259C33.8881 29.6259 33.9594 29.2989 33.7911 29.0014C33.6228 28.7039 33.2961 28.6423 33.1116 28.6909C32.9273 28.7297 32.5586 28.7877 32.4387 28.8914C32.3255 28.9948 32.0473 29.3151 31.7916 29.4608C31.4717 29.6528 30.9505 29.6679 30.6724 29.7325C30.3908 29.7965 30.0803 29.9885 29.7534 30.2113C29.497 30.3773 29.2264 30.52 28.9446 30.6379L28.9434 30.6389Z" fill="#CCA847"/>
<path fill-rule="evenodd" clip-rule="evenodd" d="M28.9434 37.7076C28.9434 37.7076 28.9647 37.7215 29.0058 37.7441C31.3044 36.6672 33.3639 35.1407 35.0628 33.2547C35.0443 32.5999 35.0202 31.9287 34.9937 31.6801C34.9389 31.1526 34.9777 30.6156 34.9615 30.3051C34.9453 29.9946 34.7706 28.7294 34.6898 28.4027C34.6024 28.0759 34.4339 27.9141 34.4083 27.9141C34.3857 27.9207 34.2496 28.5289 34.2496 28.6818C34.2496 28.8348 34.2172 29.2029 34.2172 29.2967C34.1946 29.2901 34.185 29.2327 34.185 29.2093C34.1526 29.2901 34.1138 29.4326 34.0976 29.4488C34.0813 29.465 34.1202 29.3129 34.0976 29.2805C34.0749 29.2481 34.0336 29.2643 34.0425 29.1835C34.0464 29.1355 34.0539 29.088 34.0651 29.0412C34.0651 29.0412 33.9681 29.1835 33.8971 29.5458C33.8258 29.905 33.8258 29.9148 33.8 29.947C33.7774 29.986 33.648 30.1153 33.6414 30.1639C33.635 30.2511 33.7612 30.3386 33.7708 30.387C33.7772 30.468 33.6576 30.8432 33.6188 31.0268C33.5799 31.2104 33.5961 31.5702 33.5548 31.7547C33.5224 31.923 33.4908 32.02 33.3801 32.091C33.4609 32.1072 33.5386 32.1299 33.5386 32.1299C33.5386 32.1299 33.6518 32.6087 33.3639 33.0164C33.2605 33.1587 33.2346 33.2235 33.1246 33.353C32.9077 33.5923 32.7394 33.8648 32.7232 34.0421C32.712 33.9898 32.7045 33.9367 32.7006 33.8834C32.7006 33.8834 32.3643 34.275 32.2218 34.4983C32.0375 34.7862 31.7818 34.77 31.71 34.8412C31.6381 34.9124 31.6225 35.0417 31.646 35.1453C31.582 35.1613 31.4617 35.1842 31.3807 35.4333C31.3418 35.5625 31.2448 35.6892 31.0927 35.7762C30.9407 35.8632 30.7562 35.8895 30.6623 35.9121C30.7432 35.9347 30.7756 35.9347 30.8144 35.9605C30.766 36.0413 30.5427 36.1676 30.2936 36.3294C30.0445 36.4815 29.9246 36.7046 29.8632 36.8503C29.7992 36.9861 29.7047 37.0735 29.5527 37.0898C29.6167 37.1286 29.7114 37.219 29.7598 37.2482C29.6885 37.2644 29.5678 37.2644 29.3522 37.4489C29.1257 37.6366 29.0481 37.6916 28.9444 37.7078L28.9434 37.7076Z" fill="#C39D3C"/>
<path fill-rule="evenodd" clip-rule="evenodd" d="M24.4405 39.2076C24.5644 39.1208 24.6986 39.0496 24.84 38.9958C25.3446 38.7953 25.8784 38.7565 26.0887 38.6919C26.2894 38.6279 26.4479 38.5396 26.697 38.4912C26.6903 38.5479 26.6848 38.6013 26.6788 38.6516C25.9444 38.8825 25.1966 39.0682 24.4395 39.2076H24.4405Z" fill="#D2BA6B"/>
<path fill-rule="evenodd" clip-rule="evenodd" d="M33.7459 25.9347C33.7459 25.9347 33.6424 26.4943 33.458 26.8471C33.2735 27.1998 33.0741 27.6882 33.0741 27.6882C33.0753 27.5782 33.0883 27.4686 33.1129 27.3613C32.88 27.4971 32.3137 27.8241 32.1531 27.9695C32.0011 28.1054 31.7454 28.3449 31.6807 28.4581C31.8328 28.0118 31.9913 27.6106 32.0173 27.4261C31.7844 27.5944 30.6971 28.4906 30.1311 29.0826L28.3677 30.5094C28.1642 30.6192 27.9547 30.7173 27.7401 30.8033C27.4362 30.9326 27.077 31.0426 26.8117 31.1463C26.8829 30.9554 26.996 30.7869 27.1546 30.6252C27.3229 30.4668 27.8275 29.9199 27.9051 29.6655C27.9764 29.4002 27.9926 29.2417 27.8987 29.0184C27.8113 29.041 27.6108 29.0508 27.475 29.0896C27.3391 29.1285 27.1934 29.2739 27.1934 29.2739C27.1934 29.2739 27.2969 28.6819 27.5202 28.1222C27.3519 28.1286 27.064 28.177 27.064 28.177C27.064 28.177 27.4652 27.5042 28.1517 27.0352C27.9414 27.0799 27.7357 27.1437 27.537 27.2258C27.1359 27.3941 26.6959 27.6432 26.3691 27.7791C26.5534 27.5231 27.8476 25.6762 28.6177 23.9549C29.3855 22.2369 29.6723 21.797 29.8406 20.875C29.9278 20.4188 29.9046 19.7446 29.9278 19.1408C29.9504 18.5422 30.0249 18.0051 29.9765 17.646C30.1769 17.8951 30.9277 18.5972 30.9535 20.1665C30.9761 21.7355 30.2354 23.8548 29.449 24.9967C29.641 25.0517 30.1383 25.1166 30.6493 24.2289C31.1603 23.3413 31.1542 23.0934 31.3386 22.7245C31.3613 22.909 31.3546 22.9736 31.3546 22.9736C31.3546 22.9736 32.099 22.071 32.4515 20.9353C32.5227 21.4239 32.733 21.8543 32.4029 22.7505C32.1086 23.5592 31.7236 23.7567 31.7236 23.7567C31.7236 23.7567 31.9145 23.7243 32.1958 23.556C32.2444 23.6757 32.2348 23.812 32.3157 23.8602C32.3965 23.9084 32.5065 23.9896 32.5227 24.0673C32.61 23.9378 32.7458 23.7727 32.7881 23.6499C32.7556 23.9058 32.733 25.0249 32.852 25.5943C33.1014 25.5717 33.3569 25.5555 33.5315 25.1057C33.4119 25.5459 33.4119 25.811 33.4927 26.1863C33.6254 26.0959 33.745 25.934 33.745 25.934L33.7459 25.9347Z" fill="#C0993A"/>
<path fill-rule="evenodd" clip-rule="evenodd" d="M25.3408 8.10132C25.3408 8.10132 25.0917 8.20475 24.6679 8.20475C24.2992 8.20475 24.4026 8.0625 23.8268 8.0625C22.9404 8.0625 19.8441 8.57436 19.3005 8.56711C18.9477 8.56071 20.491 8.71917 20.491 8.71917L24.435 8.7742L25.2276 8.71021L25.5221 8.11091L25.3408 8.10132Z" fill="#A88F33"/>
<path fill-rule="evenodd" clip-rule="evenodd" d="M15.1139 15.811C15.1139 15.811 14.6091 16.1959 14.3956 16.4905C14.1821 16.785 14.0689 16.9789 13.8262 17.2184C13.8831 17.2205 13.9401 17.2129 13.9944 17.1958C13.9944 17.1958 13.9944 17.2597 13.9556 17.2766C14.0236 17.269 14.0913 17.2925 14.1399 17.3406C14.0687 17.3794 13.8746 17.5737 14.0266 17.8034C14.1399 17.978 14.3794 17.994 14.3794 17.994C14.3794 17.994 14.3244 18.1527 14.5541 18.1365C15.0491 18.1139 15.6023 17.897 15.8578 17.952C16.1138 18.016 16.2592 18.0395 16.4403 18.3534C16.6322 18.6639 16.7994 18.7126 16.7994 18.7126C16.7994 18.7126 16.9127 18.4244 16.8869 17.9943C16.9797 17.7624 17.0312 17.516 17.0389 17.2664L16.8707 16.0272L16.1364 15.0986L15.1852 15.6261L15.1139 15.8103V15.811Z" fill="#E3C571"/>
<path fill-rule="evenodd" clip-rule="evenodd" d="M16.0156 15.627C16.0156 15.627 16.0869 15.7953 16.3846 15.8113C16.3522 15.8825 16.3522 15.8924 16.362 15.9472C16.3684 16.0022 16.378 16.083 16.378 16.083C16.4108 16.0672 16.4404 16.0455 16.4654 16.019C16.4816 16.0903 16.4492 16.2033 16.4654 16.2844C16.4754 16.3336 16.4917 16.3814 16.5138 16.4266C16.5186 16.4155 16.524 16.4048 16.53 16.3944C16.5364 16.3782 16.594 16.5691 16.7533 16.7143C16.7532 16.692 16.7587 16.67 16.7693 16.6503C16.7718 16.6909 16.7852 16.73 16.8082 16.7636C16.7962 16.7579 16.7853 16.7503 16.7759 16.741C16.7759 16.741 16.7919 17.2528 16.8794 17.5175C16.894 17.5004 16.907 17.482 16.9182 17.4625C16.9182 17.4465 16.9118 17.6049 16.8956 17.7184C16.873 17.8317 16.8892 17.9901 16.8892 17.9901C16.9475 17.9442 17.0116 17.9061 17.0799 17.8769C17.1769 17.8378 17.3358 17.7182 17.4326 17.4529C17.4888 17.3026 17.5321 17.1479 17.5621 16.9903C17.5934 17.0505 17.6149 17.1153 17.6261 17.1822C17.6327 17.2631 17.7847 17.2211 17.7847 17.2211L17.8172 16.8683L18.0091 16.0692L18.1838 15.5742L19.0249 14.264L20.5447 13.0936L21.8713 13.3977L22.9905 11.877L21.0623 10.7188L19.2376 10.9096L17.5815 13.2034L16.2551 15.2839L16.0156 15.6268V15.627Z" fill="#D8B65B"/>
<path fill-rule="evenodd" clip-rule="evenodd" d="M25.5747 12.307C25.5747 12.307 25.4615 12.3296 25.1348 12.499C24.808 12.6683 24.5815 12.7221 24.4553 12.9712C24.329 13.2203 24.3194 13.4178 24.3194 13.4178C24.3194 13.4178 24.5427 13.3207 24.6722 13.2883C24.808 13.2561 24.9601 13.2657 24.9439 13.3207C24.9283 13.3585 24.9067 13.3934 24.8799 13.4242C24.8799 13.4242 25.1358 13.4178 25.129 13.544C25.1222 13.6703 25.0806 13.8093 25.0322 13.8708C24.9835 13.9347 24.7831 14.0294 24.7605 14.1039C24.7054 14.2559 24.7831 14.2623 24.7538 14.3852C24.7312 14.505 24.6246 14.7379 24.275 15.1455C23.9159 15.5533 23.7632 15.8412 23.7632 15.8412C23.7632 15.8412 23.5885 15.5145 23.4979 15.2329C23.4339 15.2651 23.0903 15.456 23.0903 15.456L22.2944 12.6835L22.3104 12.499C22.3104 12.499 22.3816 12.4117 22.3978 12.2499C22.2782 12.2111 22.2619 12.1786 22.1033 12.0268C21.9446 11.8749 21.8154 11.6902 21.5503 11.564C21.5114 11.4927 21.4628 11.3959 21.2687 11.3569C21.0747 11.3179 20.9582 11.2859 20.9582 11.2859C20.9582 11.2859 21.0616 11.2468 21.1103 11.166C20.9904 11.1822 20.8936 11.221 20.6315 11.2146C20.3662 11.208 20.3369 11.1984 20.1915 11.221C20.046 11.2436 19.8716 11.3085 19.8065 11.0852C19.7353 11.0302 19.5832 11.0788 19.4538 11.2694C19.3243 11.4601 19.2791 11.6124 19.03 11.6868C19.0125 11.7966 18.974 11.9021 18.9167 11.9974C18.8455 12.1172 18.7323 12.2369 18.5802 12.4147C18.3407 12.6963 18.3795 13.1588 17.9977 13.5116C17.6128 13.8641 18.0617 12.5344 18.0617 12.5344L18.6764 11.0628L20.4267 9.35126L23.1445 9.16699L23.4098 10.5746L24.7364 11.0308L25.5743 12.3087L25.5747 12.307Z" fill="#D3AE4D"/>
<path fill-rule="evenodd" clip-rule="evenodd" d="M26.0068 12.6178L24.8647 10.9711L24.0656 10.3562C24.0656 10.3562 23.4962 9.30822 23.4573 9.2758C23.4249 9.25319 22.8879 9.19497 22.545 9.17236L22.6089 9.33083C22.6838 9.35514 22.7503 9.4 22.8009 9.46028C22.9529 9.63496 23.05 9.96489 22.7038 10.3176C22.8397 10.3661 22.8958 10.3816 23.0144 10.3661C22.8947 10.5085 22.623 10.8127 22.6068 11.078C22.5906 11.2947 22.7265 11.3593 22.7265 11.3593C22.7265 11.3593 22.5194 11.5988 22.5098 11.9991C22.6076 11.8888 22.7146 11.7871 22.8297 11.695C23.0692 11.503 23.3991 11.2872 23.6224 11.1513C23.6194 11.2083 23.627 11.2654 23.645 11.3196C23.645 11.3196 24.0622 10.9767 24.4128 11.1287C24.5713 11.2 24.5 11.4233 24.5 11.4233C24.5 11.4233 24.7169 11.3424 24.869 11.4945C25.0211 11.6466 25.2378 12.0379 25.3478 12.1902C25.3962 12.2614 25.5225 12.3973 25.6517 12.6074C25.8283 12.9018 25.9758 13.2128 26.0919 13.536C26.0983 13.4065 26.1243 13.2254 26.3478 13.2254L26.0081 12.6172L26.0068 12.6178Z" fill="#CAA13E"/>
<path fill-rule="evenodd" clip-rule="evenodd" d="M8.88358 17.2962C8.88358 17.2962 8.80275 17.0955 8.88358 16.7041C8.96441 16.3128 9.09067 16.1283 9.13269 15.5525C9.1747 14.9766 9.55006 14.2583 9.55006 14.2583L10.5885 13.7861L11.323 13.9866L11.5397 14.9702L10.6111 15.4821C10.6111 15.4821 10.5627 15.6988 10.3006 15.8734C10.0385 16.0481 9.67611 16.184 9.58888 16.3621C9.53673 16.4711 9.49868 16.5863 9.47563 16.705C9.47563 16.705 9.21032 16.65 9.05185 16.8247C8.88358 17.0027 8.88998 17.1612 8.88358 17.2971V17.2962Z" fill="#F4EFC8"/>
<path fill-rule="evenodd" clip-rule="evenodd" d="M10.9797 17.0337C10.9797 17.0337 10.8923 17.0887 10.8277 17.2257C10.7637 17.1222 10.6108 16.5074 10.6044 15.9541C10.598 15.4009 10.5649 15.2638 10.6929 15.0731C10.8208 14.8824 11.3227 14.6815 11.2514 14.3381C11.1802 14.0114 10.8825 13.8756 10.5169 13.9694C10.261 14.0334 10.0705 14.5777 9.80523 14.8494C9.60454 15.0565 9.36525 15.024 9.30062 15.1373C9.21318 15.2894 9.29401 15.4414 9.2682 15.5385C9.26159 15.5709 9.18076 15.7455 9.0351 15.9558C8.74078 16.3796 8.24257 16.9783 8.17773 17.5153C8.20034 17.2112 8.18435 17.2048 8.26518 16.8682L8.21655 16.7874L8.53646 15.7391L8.74355 14.8754L9.20636 13.429L10.0215 11.9505L10.8142 11.064L11.6392 11.119L11.7362 12.3581L12.2086 14.6845L13.2018 15.9074L11.61 16.9787L10.9791 17.0337H10.9797Z" fill="#EBCC73"/>
<path fill-rule="evenodd" clip-rule="evenodd" d="M11.4752 17.4737C11.4752 17.4737 11.3393 17.5061 11.2907 17.4803C11.2421 17.4545 11.1939 17.4252 11.2099 17.3928C11.2259 17.3604 11.3133 17.3056 11.3133 17.2796C11.3171 17.2307 11.2812 17.1877 11.2325 17.1825C11.1581 17.1729 11.1355 17.2214 11.1355 17.2214C11.1355 17.2214 11.0642 17.1665 11.0062 17.1574C11.0405 17.1532 11.0751 17.151 11.1096 17.1508C11.0202 17.1103 10.9254 17.083 10.8281 17.0699C10.909 17.0215 11.0676 16.879 11.1711 16.879C11.2745 16.879 11.3393 16.8631 11.3231 16.808C11.3069 16.753 11.2261 16.6722 11.1389 16.6398C11.1711 16.6009 11.1939 16.5427 11.1163 16.3838C11.0352 16.2254 11.0676 16.1185 11.0937 16.0799C11.1163 16.0313 11.1971 15.9441 11.2359 15.889C11.2747 15.834 11.3071 15.7596 11.3718 15.7208C11.4042 15.6981 11.5076 15.6568 11.6113 15.6173C11.7245 15.5785 11.8184 15.5299 11.883 15.5785C11.9542 15.6269 11.9218 15.6918 11.9218 15.6918C11.9218 15.6918 12.1451 15.6107 12.3456 15.7144C12.5463 15.8112 13.0349 15.8728 13.0349 15.8728L13.21 16.2256L12.0517 17.2188L11.5729 17.4583L11.4758 17.4743L11.4752 17.4737Z" fill="#E5C66B"/>
<path fill-rule="evenodd" clip-rule="evenodd" d="M13.0827 15.8498C13.0827 15.8498 12.7235 16.0893 12.6427 16.1765C12.6911 16.1832 12.7719 16.2156 12.7395 16.264C12.7007 16.3124 12.4678 16.4807 12.3383 16.6394C12.2025 16.7978 12.073 16.9985 12.0278 17.0955C11.9794 17.1828 11.6104 17.4385 11.4844 17.4707C11.7497 17.4707 12.2835 17.144 12.484 17.144C12.4776 17.241 12.539 17.351 12.6523 17.3606C12.7655 17.3702 13.0922 17.4319 13.5322 17.1602C13.9722 16.8949 13.8268 16.6974 14.011 16.5681C14.3638 16.335 14.506 16.1279 14.7001 15.9987C14.8942 15.8694 14.9947 15.84 14.9947 15.84C14.9947 15.84 15.0011 15.743 15.0586 15.7528C15.0908 15.7565 15.1182 15.7776 15.1299 15.8078C15.1299 15.8078 15.4664 15.5683 15.8977 15.5037C15.8876 15.4992 15.8795 15.4911 15.8751 15.4811C15.8751 15.4811 15.9073 15.4649 15.9139 15.4486C15.9139 15.4486 15.9365 15.4162 15.9527 15.4324C15.9689 15.4486 15.9915 15.5683 16.0239 15.6169C16.0952 15.5845 16.231 15.2804 16.231 15.2804L16.558 14.3454V13.4912L16.302 13.5398L14.3826 14.355L13.2177 15.5619L13.0818 15.8498H13.0827Z" fill="#E6BD62"/>
<path fill-rule="evenodd" clip-rule="evenodd" d="M18.609 11.6604C18.7128 11.6352 18.8123 11.5948 18.9044 11.5406C18.8655 11.6442 18.8655 11.7575 18.6973 12.0034C18.529 12.2493 18.5226 12.2849 18.3867 12.5404C18.2509 12.8057 18.2347 13.1875 18.1052 13.3555C18.1632 13.3273 18.2255 13.3088 18.2895 13.3007C18.2895 13.3007 18.1602 13.414 18.1052 13.5336C18.0502 13.6532 17.9532 13.9024 17.7139 14.0546C17.4746 14.2069 17.1702 14.3037 16.8435 14.6629C16.5165 15.0154 16.1802 15.462 16.0117 15.6226C16.0992 15.4706 16.2188 15.1664 16.2512 14.966C16.2836 14.7655 16.2446 14.5258 16.2996 14.2607C16.3547 13.9956 16.3547 13.8045 16.6196 13.3417C16.8844 12.8789 17.3379 11.271 17.3379 11.271L18.3149 10.9604L18.6094 11.6593L18.609 11.6604Z" fill="#B6933F"/>
<path fill-rule="evenodd" clip-rule="evenodd" d="M17.9031 11.0682C17.9031 11.0682 17.6087 11.492 17.5279 11.8673C17.4471 12.2427 17.5213 12.2103 17.4729 12.3948C17.4439 12.5072 17.4439 12.6252 17.4729 12.7377C17.5748 12.5735 17.7144 12.4359 17.88 12.3363C18.1584 12.1683 18.3848 12.0484 18.5199 11.9062C18.6557 11.7541 18.769 11.505 19.0633 11.3141C18.9436 11.2979 18.7754 11.2429 18.7434 11.2501C18.8632 11.1143 19.2222 10.9072 19.5845 10.6581C19.9437 10.4021 19.9211 10.2989 20.5035 10.0434C20.3126 10.0758 20.222 10.0272 20.0633 10.0434C20.1273 9.90756 20.3512 9.84272 20.5752 9.61964C20.7991 9.39655 20.4329 9.06641 20.4329 9.06641L18.7267 10.0984L17.9018 11.0691L17.9031 11.0682Z" fill="#C49937"/>
<path fill-rule="evenodd" clip-rule="evenodd" d="M13.2734 10.2978L13.3123 9.98731L13.8009 9.20439L14.3121 7.82941V5.94961L14.2733 4.86255L14.3541 4.15064L14.4155 3.92436L14.4804 3.83691L14.8975 4.0536L15.4736 4.83653L15.5286 6.34758L14.9688 8.73198L13.3705 10.4759L13.2734 10.2978Z" fill="#DFC068"/>
<path fill-rule="evenodd" clip-rule="evenodd" d="M14.5447 3.74972C14.5447 3.74972 14.2888 3.75633 14.2342 4.82078C14.1796 5.88523 14.1532 6.44486 14.1144 6.97229C14.0755 7.49972 13.9851 7.81984 13.9397 8.13058C13.8943 8.44132 13.8685 8.86489 13.723 9.1238C13.659 9.24345 13.5223 9.61881 13.202 9.90033C12.8428 10.2109 12.3062 10.4278 12.225 10.444C12.0825 10.4762 11.361 10.5474 11.0667 10.7093C10.9632 10.7643 10.7851 10.8289 10.5879 11.0134C10.1963 11.366 9.67548 11.9968 9.30012 12.7571C8.72428 13.8928 8.14844 17.099 8.14844 17.099L8.27789 16.8823C8.27789 16.8823 8.2941 16.5944 8.58202 16.0895C8.86355 15.5849 8.78271 15.0187 9.17407 14.0513C9.32614 13.6825 9.51702 13.2037 9.74991 12.796C10.1189 12.1327 10.5653 11.5632 11.0151 11.2527C11.7494 10.7481 12.5583 10.638 12.5583 10.638L13.4287 10.0622C13.4287 10.0622 13.5807 9.76789 13.7814 9.43134C14.0627 8.95915 14.4213 8.43173 14.4995 7.66501C14.6194 6.52932 14.3313 5.78521 14.3475 5.11233C14.3637 4.43945 14.3701 3.94444 14.5061 3.82458C14.6422 3.70472 14.545 3.75014 14.545 3.75014L14.5447 3.74972Z" fill="#A88F33"/>
<path fill-rule="evenodd" clip-rule="evenodd" d="M14.5453 8.82889C14.5453 8.82889 14.9292 7.88408 15.105 7.04613C15.1374 6.87785 15.202 6.70979 15.2182 6.57394C15.299 5.7812 15.3216 5.45446 15.2182 5.02088C15.1374 4.70096 14.8268 4.41262 14.665 4.18911C14.5065 3.956 14.4321 3.8692 14.4645 3.82014C14.4969 3.77109 14.623 3.6909 14.7458 3.7005C15.0097 3.70818 15.2589 3.82382 15.4351 4.02041C15.6842 4.30833 15.8815 5.28555 15.8815 5.28555L16.089 6.57501L16.6164 8.19909L14.5457 8.83017L14.5453 8.82889Z" fill="#C99E3D"/>
<path fill-rule="evenodd" clip-rule="evenodd" d="M18.1527 7.84578C18.1527 7.84578 18.0814 7.87799 17.9522 7.84578C17.9634 7.95347 17.9134 8.05838 17.8227 8.1175C17.6869 8.06247 16.4151 8.17252 16.4151 8.17252C16.4151 8.17252 15.8231 8.06887 15.6386 7.28594C15.5093 6.76491 15.7356 6.04682 15.6612 5.57441C15.5479 4.87871 15.3895 4.74264 15.3733 4.52617C15.3571 4.3097 15.3409 4.25446 15.3409 4.1186C15.2696 4.1024 15.2276 4.07979 15.1566 4.07979C15.1404 4.01581 15.1726 3.95993 15.1016 3.84668C15.1404 3.86289 15.4057 3.89531 15.7162 4.18962C15.9721 4.42913 15.9721 4.51636 16.0107 4.56499C16.0592 4.6134 16.4507 4.94888 16.619 5.28329C16.7873 5.61771 17.114 6.68408 17.1885 6.85875C17.2111 6.92998 17.2597 7.00122 17.3804 7.16288C17.5681 7.39599 17.843 7.78137 18.1535 7.84536L18.1527 7.84578Z" fill="#B58634"/>
<path fill-rule="evenodd" clip-rule="evenodd" d="M16.0547 4.58154C16.2507 4.89815 16.4268 5.22666 16.5819 5.56516C16.7728 5.99534 16.886 6.34809 17.1255 6.63601C16.9961 6.26086 16.7664 5.52315 16.6305 5.26103C16.4785 4.98378 16.1679 4.68519 16.0547 4.58176V4.58154Z" fill="#A88F33"/>
<path fill-rule="evenodd" clip-rule="evenodd" d="M13.8548 9.90012C13.8548 9.90012 13.5281 9.98095 12.9198 10.3013C12.7191 10.4047 12.5285 10.492 12.344 10.573C11.8648 10.7897 11.3508 10.9899 10.943 11.1004C10.9754 11.1392 10.9914 11.1552 10.9914 11.1552C10.9914 11.1552 10.9914 11.3139 11.0789 11.4043C11.0304 11.453 10.3832 11.8929 10.5742 13.365C10.7035 13.3166 10.8556 13.2517 10.8782 13.2517C10.9172 13.2583 10.9268 13.365 10.9752 13.365C11.0236 13.365 11.1823 13.301 11.3506 13.0834C11.3442 13.1709 11.2471 14.0509 11.7679 14.6429C11.865 14.5297 12.1109 14.1543 12.1109 14.1543L12.1173 14.0346C12.1173 14.0346 12.1399 13.6173 12.276 13.2355C12.412 12.8537 12.6771 12.5722 12.6771 12.5722L14.0615 10.5954L13.8544 9.8999L13.8548 9.90012Z" fill="#E6C367"/>
<path fill-rule="evenodd" clip-rule="evenodd" d="M12.5623 12.8025C12.499 12.8473 12.4291 12.8822 12.3552 12.906C12.3326 12.8251 12.3002 12.5468 12.4911 12.2751C12.7144 11.9482 13.2028 11.5244 13.3387 11.1874C13.4261 10.9705 13.3873 10.4271 14.1638 9.73139C14.9403 9.03569 15.2443 8.79639 15.2443 8.79639L16.4996 8.16553L18.0428 8.77379L17.2761 11.7788L16.6809 13.1864L14.3135 12.74L12.5621 12.8025H12.5623Z" fill="#DCBA5A"/>
<path fill-rule="evenodd" clip-rule="evenodd" d="M13.4668 11.9874L13.7613 11.6186V11.3565C13.7613 11.3565 14.0881 11.2691 14.4406 10.9099C14.7931 10.5508 15.2818 9.86168 15.7121 9.90369C16.1425 9.95232 16.1845 10.8387 16.2008 11.088C16.217 11.3373 16.272 11.9031 16.3592 12.2075C16.4563 12.5116 15.311 13.6633 15.311 13.6633L14.5332 14.2553L13.4668 11.9874Z" fill="#E9CE77"/>
<path fill-rule="evenodd" clip-rule="evenodd" d="M14.377 15.0572C14.377 15.0572 14.6165 14.6819 14.4409 14.601C14.5444 14.3681 14.7353 14.1222 14.7353 14.1222C14.7353 14.1222 14.8711 13.7859 15.3111 13.3717C15.7511 12.9575 16.023 12.6824 16.0942 12.4043C16.1382 12.2231 16.162 12.0375 16.1655 11.8511C16.213 11.8899 16.2639 11.9245 16.3175 11.9545C16.3888 11.9869 16.7251 12.265 16.6767 12.8249C16.6283 13.3847 16.4208 13.6176 16.4208 13.6176C16.4208 13.6176 16.2203 13.8181 16.078 13.9218C15.9258 14.0252 15.8709 14.1448 15.6152 14.1546C15.6415 14.1338 15.671 14.1173 15.7027 14.106C15.7027 14.106 15.4374 14.0738 15.2949 14.2031C15.1524 14.3323 14.8496 14.7305 14.6975 14.8503C14.5454 14.9474 14.3776 15.0574 14.3776 15.0574L14.377 15.0572Z" fill="#CDAE50"/>
<path fill-rule="evenodd" clip-rule="evenodd" d="M25.1347 8.76448C24.7525 8.62517 24.3508 8.54658 23.9442 8.53158C23.2647 8.50897 22.2715 8.54779 21.2977 8.55419C20.2494 8.56059 19.2982 8.19503 17.9783 8.13041C17.7616 8.00095 17.2105 7.43471 15.4902 8.63502C15.5937 8.62862 16.7392 8.3697 17.1369 8.86813C17.5381 9.36314 17.4248 10.2043 17.37 10.4048C17.2664 10.8514 16.9298 11.5016 16.7942 11.9578C16.6585 12.414 16.6905 12.6537 16.5935 12.9737C16.4965 13.2936 16.283 13.4525 16.409 13.8212C16.5773 13.7178 16.6649 13.7178 16.946 13.0869C17.2271 12.456 17.1693 12.0062 17.6353 11.4724C18.0915 10.9354 18.851 10.2009 19.1398 10.0164C19.4286 9.83191 21.7215 8.64142 24.1223 9.7771C24.7013 9.71568 25.1349 8.76426 25.1349 8.76426L25.1347 8.76448Z" fill="#D2A83E"/>
<path fill-rule="evenodd" clip-rule="evenodd" d="M16.4571 8.32404C16.4547 8.29972 16.4494 8.2758 16.4411 8.2528C16.4187 8.20549 16.3892 8.16184 16.3537 8.12335C16.3537 8.12335 15.7842 8.01991 15.4963 8.05211C14.9915 8.10714 14.5353 8.7316 14.3218 9.05194C14.1083 9.37228 13.843 9.86708 13.5551 10.1228C13.5582 10.0979 13.5525 10.0727 13.5389 10.0516C13.5389 10.0516 13.5551 10.0742 13.5229 10.1066C13.4907 10.139 13.4905 10.155 13.5067 10.1706L13.5553 10.219C13.5713 10.219 14.0179 10.0183 14.6262 9.45119C15.2732 8.85914 15.7682 8.55544 16.0272 8.45136C16.1652 8.39268 16.3096 8.34997 16.4573 8.32404H16.4571Z" fill="#C29637"/>
<path fill-rule="evenodd" clip-rule="evenodd" d="M27.5033 5.8916C27.5033 5.8916 27.3997 6.02085 27.2702 6.16331C26.9823 6.46744 26.607 6.81017 26.2866 7.16293C25.9827 7.49948 25.6398 7.76159 25.2546 8.20157C24.8694 8.64156 24.4228 9.12996 24.3098 9.27242C24.2063 9.41489 24.1255 9.64779 24.1255 9.76743C24.0705 9.72862 24.0059 9.6866 24.0059 9.6866C24.0331 9.7374 24.0656 9.78515 24.1029 9.82907C24.1837 9.94232 24.3098 10.085 24.3746 10.172C24.4542 10.2828 24.5112 10.4081 24.5427 10.5408C24.5815 10.5472 24.8306 10.5958 25.1413 10.0846C25.4521 9.57335 25.8594 9.01372 25.8594 9.01372L26.5065 8.05271L26.9143 7.23758L27.4261 6.32519L27.504 5.8916H27.5033Z" fill="#AC8132"/>
<path fill-rule="evenodd" clip-rule="evenodd" d="M28.1649 5.23779C28.1649 5.23779 27.7733 5.5577 27.6212 5.74965C27.4692 5.9416 27.1094 6.44535 27.1094 6.44535L27.2388 6.42914L27.8957 5.8469L28.1516 5.39071L28.1647 5.23865L28.1649 5.23779Z" fill="#A88F33"/>
<path fill-rule="evenodd" clip-rule="evenodd" d="M28.0466 30.9493C28.0466 30.9493 28.0402 30.684 28.1891 30.5255C28.3412 30.3668 28.7261 30.1339 29.1015 29.2604C29.4768 28.3868 29.5186 28.1895 29.5186 28.1895C29.5186 28.1895 28.8458 28.7653 28.4309 28.9012C28.528 28.7005 28.583 28.5583 28.6316 28.4546C28.5766 28.4062 28.3437 28.3512 28.3211 28.3254C28.4504 28.1959 28.5216 27.8788 28.7837 27.6685C29.1203 27.4125 29.7349 26.9728 30.2126 26.5808C30.6904 26.1888 31.6296 25.277 31.7495 25.0117C31.8207 25.1152 31.8367 25.1798 31.8367 25.1798C31.8367 25.1798 31.3645 25.7946 31.1186 26.186C30.9017 26.5226 30.9179 26.7134 30.9179 26.7134L31.3645 26.5215C31.3645 26.5215 31.4938 27.0003 30.9083 27.7284C31.1643 27.6314 31.2675 27.6896 31.4129 27.6085C31.1734 27.7608 30.8435 27.9679 30.533 28.5371C30.2288 29.1066 29.8147 29.7699 29.116 30.1838C28.4365 30.6206 28.0449 30.9474 28.0449 30.9474L28.0466 30.9493Z" fill="#A67A2E"/>
<path fill-rule="evenodd" clip-rule="evenodd" d="M26.2927 9.10104C26.2927 9.10104 26.0274 9.65406 25.9886 10.0845C25.9822 10.1881 25.9562 10.2689 25.9562 10.3886C25.9498 10.7735 25.9788 11.2039 25.8922 11.4044C25.8598 11.3236 25.8436 11.2685 25.8111 11.2363C25.7627 11.3722 25.6753 11.796 25.604 11.9544C25.5718 11.851 25.5006 11.4918 25.5072 11.0681C25.5138 10.6443 25.5232 10.5633 25.5232 10.476C25.5072 10.6053 25.4198 10.7802 25.3874 10.8836C25.3389 10.7964 25.2839 10.6831 25.2191 10.5893C25.1803 10.6533 25.1319 10.7477 25.0898 10.7964C25.0832 10.7575 25.0672 10.6539 25.0574 10.5084C25.051 10.3402 25.0412 10.1235 25.051 10.0781C25.067 9.99082 25.2031 9.64788 25.491 9.33394C25.834 8.95858 26.1867 8.23728 26.2902 8.01399C26.3936 7.79069 26.8336 6.8623 26.8336 6.8623H27.1701L26.6815 7.97517C26.6815 7.97517 26.3872 8.58343 26.2351 8.80694C26.0831 9.03045 25.7627 9.67091 25.6203 9.92002C25.7237 9.78416 25.8111 9.71293 25.9148 9.58347C26.015 9.49283 26.2931 9.10147 26.2931 9.10147L26.2927 9.10104Z" fill="#8C6228"/>
<path fill-rule="evenodd" clip-rule="evenodd" d="M28.1717 5.1958C28.1167 5.365 28.0298 5.5221 27.9158 5.65861C27.7151 5.89811 27.2847 6.21824 27.0746 6.47374C26.8827 6.72284 26.4988 7.40234 26.6732 8.20787C26.7372 8.0332 26.8577 7.68706 27.178 7.29548C27.4984 6.90391 27.8413 6.45433 28.0098 6.10499C28.1779 5.75223 28.2005 5.47412 28.2005 5.47412L28.2645 5.39329L28.2257 5.20881L28.1706 5.1958H28.1717Z" fill="#CBA94C"/>
<path fill-rule="evenodd" clip-rule="evenodd" d="M34.7253 26.656C34.7253 26.656 34.5959 26.3035 34.557 25.9831C34.5182 25.6628 34.621 25.5992 34.502 25.2326C34.4308 25.0093 34.3015 25.0407 34.2691 25.0093C34.2367 24.978 34.2141 24.6406 34.2205 24.4561C34.2269 24.2716 34.2141 24.0323 34.1817 23.9287C34.1333 23.8899 34.1008 23.8574 34.0296 23.6181C33.9488 23.3786 33.91 23.259 33.8711 23.188C33.8323 23.1169 33.7189 23.0521 33.7189 22.9809C33.7189 22.8384 33.8483 22.7642 33.8483 22.7249C33.8419 22.6441 33.7449 22.709 33.7189 22.6861C33.6867 22.6473 33.7999 22.4144 33.7579 22.382C33.7417 22.366 33.6284 22.5019 33.5992 22.463C33.5668 22.424 33.528 22.0391 33.4698 21.7836C33.415 21.5345 33.3565 21.3534 33.3501 21.279C33.3437 21.2077 32.9035 19.9524 32.7969 19.6483C32.7109 19.3913 32.6386 19.1299 32.5802 18.8653C32.5478 18.7133 32.5252 18.4025 32.509 18.4349C32.4928 18.4674 32.5026 18.6258 32.4765 18.6194C32.4539 18.6128 32.3731 18.0598 32.3473 17.9723C32.3247 17.8849 32.1886 17.5885 32.1554 17.3739C32.1229 17.157 32.0519 16.5908 32.0033 16.2058C31.9547 15.8208 31.9321 15.6624 31.9321 15.566C31.94 15.3302 31.927 15.0942 31.8932 14.8607C31.8293 14.4529 31.7013 13.9579 31.5891 13.6702C31.3724 13.1265 30.7964 11.7354 30.6934 11.3892C30.6934 11.3018 30.8066 11.3504 30.8066 11.3504C30.8066 11.3504 31.0879 12.0557 31.295 12.5991C31.4957 13.1428 31.6866 13.6216 31.7352 13.6702C31.774 13.7186 32.0781 14.2524 32.214 15.126C32.3499 15.9996 32.3983 16.8051 32.4793 17.3421C32.5181 17.5981 32.5506 17.8695 32.6314 18.1413C32.7186 18.4358 32.8545 18.7399 33.0326 19.2057C33.1846 19.5973 33.2979 19.924 33.3593 20.2055C33.4305 20.5647 33.4305 20.8364 33.4725 21.0145C33.5116 21.1666 33.5696 21.4705 33.7056 21.9102C33.8417 22.35 34.042 22.9165 34.1778 23.269C34.4434 23.9743 34.5617 24.5632 34.6018 24.8771C34.6372 25.2006 34.7571 26.3201 34.7247 26.6564L34.7253 26.656Z" fill="#A88F33"/>
<path fill-rule="evenodd" clip-rule="evenodd" d="M28.189 5.15699L28.1728 5.19581C28.1728 5.19581 28.2212 5.21202 28.2116 5.27685C28.2123 5.36556 28.2069 5.4542 28.1954 5.54216C28.1794 5.65541 28.147 5.74264 28.1406 5.81388C28.1406 5.96594 28.1632 6.14061 27.9487 6.5742C27.8847 6.69384 27.8452 6.79728 27.8128 6.86852C27.732 7.04319 27.7158 7.06921 27.6445 7.15004C27.7578 7.08606 28.1656 6.83013 28.3724 6.86852C28.2302 6.94935 28.0133 7.10802 27.8774 7.31511C27.9098 7.32151 28.0457 7.34753 28.2613 7.31511C28.6205 7.26009 29.0216 7.13063 29.3742 7.15644C29.7594 7.17904 29.6073 6.69385 29.6073 6.69385L29.1628 5.71684L28.3217 5.125L28.189 5.1572V5.15699Z" fill="#BE9C44"/>
<path fill-rule="evenodd" clip-rule="evenodd" d="M30.3817 12.4752C30.3817 12.4752 30.0064 12.0998 29.8543 10.8116C29.7022 9.51749 29.7347 7.61252 29.7347 7.61252L29.4305 6.86841C29.4305 6.86841 29.3665 6.3734 29.2072 6.18913C29.0479 6.00486 28.735 5.69412 28.5926 5.54206C28.4501 5.38999 28.2884 5.1829 28.1914 5.15049C28.2398 5.06966 28.4567 4.61346 29.2881 4.607C30.1194 4.60067 30.3758 5.06326 30.4626 5.23153C30.5494 5.3998 30.9414 6.12728 31.0868 7.51356C31.2227 8.89814 31.2293 9.00179 31.2067 9.48059C31.1905 9.7459 31.103 10.3606 30.9507 11.0172C30.8117 11.5739 30.6596 12.1951 30.3813 12.4765L30.3817 12.4752Z" fill="#A17C34"/>
<path fill-rule="evenodd" clip-rule="evenodd" d="M29.2045 13.5788C29.3296 13.5878 29.4545 13.5596 29.5636 13.4977C29.6833 13.4913 30.1168 13.5463 30.45 13.1226C30.4726 13.2194 30.531 13.4817 30.3787 13.7146C30.4598 13.6336 30.5794 13.6014 30.5956 13.5788C30.602 13.6984 30.7153 14.0671 30.2365 14.9633C30.3657 14.8211 30.5178 14.8275 30.6537 14.8113C30.6603 14.9795 30.7507 15.5456 30.5114 15.8499C30.3529 16.057 30.094 15.9922 30.094 15.9922C30.0978 15.947 30.0978 15.9015 30.094 15.8563C30.0876 15.7689 30.0552 15.6816 30.078 15.6234C29.9529 15.5663 29.839 15.4873 29.7415 15.3903C29.46 15.125 29.0944 14.6722 29.0686 14.3357C29.0362 13.9603 29.3727 13.8795 29.3727 13.8795C29.3445 13.8542 29.3205 13.8247 29.3015 13.792C29.2853 13.7372 29.2691 13.6498 29.2045 13.5788Z" fill="#8C6228"/>
<path fill-rule="evenodd" clip-rule="evenodd" d="M26.7109 9.50871C26.7109 9.50871 26.6947 9.4861 26.6074 9.58954C26.6236 9.4861 26.6398 9.38885 26.6462 9.29501C26.6875 9.20813 26.741 9.12756 26.8049 9.05571C26.7563 9.15254 26.7239 9.23998 26.7239 9.23998C26.7239 9.23998 26.8437 9.01668 27.0184 8.88083C27.138 8.78379 27.2901 8.73857 27.3547 8.64793C27.426 8.55089 27.4098 8.53468 27.426 8.51847C27.426 8.51847 27.5846 8.41504 27.8274 8.11069C27.8596 8.07188 27.9082 8.02986 27.9406 7.99105C27.9954 7.96844 28.1249 7.91022 28.2769 7.83237C28.4356 7.74514 28.6135 7.62549 28.7235 7.57644C28.9402 7.4794 29.1701 7.48921 29.2768 7.33694C29.3576 7.31433 29.4448 7.07162 29.4288 6.86475C29.5485 6.91316 30.1631 7.29492 30.3736 8.12968C30.5257 8.72172 30.2538 9.63411 30.1405 10.0743C30.0273 10.5145 30.0113 10.841 29.8526 11.0415C29.6519 11.307 29.0051 11.6813 28.8464 11.8667C28.7105 12.0187 28.303 12.4037 28.3189 12.6818C28.3352 12.8889 28.5907 13.0017 28.6459 13.041C28.7011 13.0802 28.7007 13.1284 28.8044 13.1049C28.908 13.0815 28.9466 13.0337 28.9888 13.0337C29.0373 13.0401 29.0373 13.0499 29.0599 13.0499C29.0763 13.0494 29.0926 13.0472 29.1085 13.0433C29.1085 13.0433 29.0923 13.3378 28.4032 13.4272C28.3546 13.4338 28.3062 13.4498 28.2445 13.4596C28.3256 13.4208 28.374 13.4208 28.4614 13.3011C28.3644 13.2849 28.0861 13.2687 28.0148 13.2461C28.0374 13.2073 28.1119 13.1037 28.1733 13.0552C28.2283 13.0068 28.1669 12.9913 28.1185 13.0164C28.0351 13.0731 27.9551 13.1347 27.879 13.2007C27.7981 13.2719 27.7269 13.369 27.5974 13.4566C27.5586 13.3272 27.565 13.0813 27.7173 12.9034C27.6783 12.9098 27.6038 13.023 27.5328 13.0004C27.52 12.8824 27.5276 12.7631 27.5554 12.6477C27.5942 12.502 27.8045 12.2465 27.8045 12.2465L28.8204 10.4313L29.037 9.05635L26.7109 9.50828V9.50871Z" fill="#92723A"/>
<path fill-rule="evenodd" clip-rule="evenodd" d="M26.6551 9.58605C26.6551 9.58605 26.6 9.62486 26.7101 9.69929C26.6939 9.7219 26.6551 9.80273 26.6064 9.85776C26.5516 9.92174 26.4932 9.96141 26.4706 10.0164C26.4222 10.1297 26.3834 10.2073 26.3834 10.2559C26.3834 10.3046 26.3671 10.6151 26.2313 10.8156C26.1827 10.8868 26.1276 11.0065 26.0888 11.0873C26.008 11.2295 25.9368 11.3432 25.9206 11.4072C25.8883 11.5204 25.8657 11.831 25.8657 11.831C25.8657 11.831 25.937 11.7435 25.9628 11.7113C25.9237 11.7922 25.8817 11.8794 25.8203 11.9442C25.8591 11.9118 25.9724 11.831 26.1633 11.6627C26.4286 11.4396 26.8427 11.0642 27.3476 10.7669C27.1953 10.822 27.066 10.822 26.9626 10.8382C27.0434 10.7573 27.7713 9.90319 28.1531 9.82235C28.1763 9.79296 28.1878 9.75606 28.1855 9.7187L27.8586 9.6865L27.1953 9.82875L27.0985 9.31689L26.6551 9.58541V9.58605Z" fill="#B18E3E"/>
<path fill-rule="evenodd" clip-rule="evenodd" d="M27.7083 12.4986C27.7083 12.4986 27.6209 12.5858 27.5401 12.8027C27.4778 12.7378 27.4245 12.6648 27.3814 12.5858C27.2617 12.3854 27.0775 12.1296 26.6471 12.2753C26.6407 12.1395 26.6309 12.0682 26.6471 11.9712C26.7183 11.9552 26.935 11.7805 27.1517 11.5248C27.304 11.3501 27.4462 11.1494 27.5433 10.8939C27.6073 10.8453 27.7179 10.7645 27.8632 10.6706C28.0703 10.5284 28.3194 10.3341 28.3582 10.1174C28.2612 10.1562 28.0541 10.2533 27.7433 10.2373C27.8632 10.1822 28.0475 10.124 28.0248 9.88451C28.0735 9.85209 28.1123 9.82949 28.1123 9.82949C28.0758 9.81732 28.0375 9.81183 27.999 9.81328C27.9924 9.79067 27.9828 9.75847 27.9278 9.77446C27.8728 9.79046 27.8638 9.79067 27.8566 9.81328C27.834 9.81989 27.7595 9.81328 27.7045 9.85231C27.6495 9.89134 27.4974 10.0204 27.4392 10.043C27.4618 10.0042 27.494 9.94615 27.494 9.94615C27.494 9.94615 27.3355 9.96214 27.2223 10.0101C27.0152 10.0814 26.7759 10.2108 26.5332 10.3369C26.5558 10.2981 26.5656 10.2729 26.5816 10.2656C26.5976 10.2584 26.6366 10.2496 26.6366 10.243C26.6366 10.2364 26.6206 10.179 26.6302 10.1558C26.7028 10.0021 26.7884 9.85488 26.8862 9.71581C26.9994 9.56353 27.022 9.34685 27.022 9.34685L27.517 9.09774L28.9082 8.77783L29.811 8.83286L29.6978 9.45732L29.1646 10.5476L28.7084 11.5408L28.1874 12.1493L27.7086 12.4986H27.7083Z" fill="#543E26"/>
<path fill-rule="evenodd" clip-rule="evenodd" d="M29.9648 9.79595C29.9648 9.79595 29.4212 10.4688 29.2691 10.5725C29.3661 10.3654 29.9648 9.13267 30.1815 8.78972C30.1331 8.75091 30.0682 8.75091 30.2203 8.1499C30.0911 8.45382 30.0456 8.61249 29.939 8.69332C29.8324 8.77416 29.8191 8.74835 29.747 8.74835C29.7607 8.72373 29.7662 8.69547 29.763 8.66752C29.763 8.66752 29.3068 8.61249 28.9953 8.61249C28.6837 8.61249 28.0669 8.78077 27.7237 8.91662C27.452 9.02987 27.2999 9.02987 27.2029 9.10089C27.1059 9.18172 27.0508 9.26916 27.0022 9.29177C26.9634 9.31438 26.7791 9.3726 26.7369 9.43403C26.6981 9.49801 26.6335 9.56988 26.6335 9.58609C26.6335 9.6023 26.6172 9.62512 26.6659 9.6087C26.6819 9.6023 26.8017 9.53746 26.9376 9.45663C27.1219 9.3532 27.3451 9.23355 27.507 9.16231C27.9696 8.97783 28.1153 9.01025 28.3222 8.97143C28.5388 8.93262 28.8496 8.84198 29.0565 8.84198C29.2635 8.83558 29.6551 8.84198 29.7458 8.85819C29.7069 8.8906 29.6745 8.92942 29.6907 9.06528C29.6907 9.10409 29.6583 9.14611 29.6268 9.23995C29.5299 9.50526 29.3454 9.94524 29.2429 10.1685C29.1006 10.4725 28.9389 10.7282 28.859 10.8866C28.779 11.0451 28.603 11.4625 28.4288 11.6858C28.2545 11.9091 28.1635 12.0449 28.1089 12.0936C28.0543 12.1422 27.6623 12.4299 27.6915 12.5335C27.7627 12.5109 28.2125 12.3416 28.5391 11.9739C28.8656 11.6062 28.9306 11.3819 29.1861 11.1812C29.4416 10.9805 29.6423 10.6441 29.762 10.366C29.8622 10.1071 29.8396 10.0263 29.9656 9.79659L29.9648 9.79595Z" fill="#806031"/>
<path fill-rule="evenodd" clip-rule="evenodd" d="M18.2496 14.8177C18.2496 14.8177 18.1783 15.112 18.0165 15.2577C17.858 15.4002 17.5765 15.523 17.5443 15.7625C17.5055 16.0018 17.8258 16.1217 17.8258 16.1217C17.8258 16.1217 17.6509 16.4096 17.6509 16.6263C17.6509 16.8496 17.6445 16.8916 17.6671 17.1051C17.6415 17.1216 17.6196 17.1434 17.6031 17.1691C17.6031 17.1691 17.6191 17.3762 17.7778 17.5054C17.9365 17.6346 18.0721 17.7125 18.153 17.6801C18.1653 17.7064 18.1761 17.7335 18.1854 17.7611C18.1854 17.7611 18.3052 17.457 18.3861 17.1917C18.4669 16.92 18.5381 16.9586 18.5703 16.593C18.6025 16.2275 18.9542 15.5998 18.9542 15.5998L19.1942 15.0634L18.8028 14.7593L18.2496 14.8175V14.8177Z" fill="#B6903C"/>
<path fill-rule="evenodd" clip-rule="evenodd" d="M18.9791 15.3452C18.8983 15.4281 18.8239 15.5167 18.7562 15.6105C18.6527 15.753 18.5719 15.8822 18.4198 15.9375C18.2678 15.9927 18.1707 15.9923 18.1803 16.1446C18.1899 16.2968 18.3324 16.3613 18.4132 16.4389C18.5007 16.5197 18.5719 16.6556 18.5331 16.8078C18.5815 16.7852 18.669 16.7592 18.7498 16.5846C18.8306 16.4099 19.396 15.3454 19.396 15.3454H18.9791V15.3452Z" fill="#685026"/>
<path fill-rule="evenodd" clip-rule="evenodd" d="M21.2086 12.8894C21.2086 12.8894 21.257 12.7602 21.2086 12.6663C21.1599 12.5693 20.8656 12.5369 20.72 12.4268C20.5679 12.3136 20.3834 12.2349 20.2314 12.2846C20.254 12.2295 20.3446 12.1097 20.2702 12.0839C20.1989 12.0613 19.9338 12.1809 19.8626 12.2359C19.7914 12.291 19.6295 12.3556 19.5973 12.3946C19.5651 12.4336 19.5098 12.5079 19.4774 12.4754C19.445 12.4528 19.429 12.3946 19.374 12.4268C19.319 12.459 19.0541 12.6759 19.0052 12.8022C18.9564 12.9284 18.8466 13.21 18.5166 13.5301C18.1867 13.8502 18.0442 14.0575 18.1413 14.1771C18.2383 14.2968 18.2837 14.2096 18.2999 14.313C18.3124 14.4145 18.3069 14.5175 18.2837 14.6171C18.2449 14.7854 18.1803 14.9439 18.2675 14.9763C18.4908 15.0475 18.7077 14.9123 18.7561 14.9537C18.8532 15.0409 18.7011 15.3548 18.9308 15.4163C19.1639 15.4803 19.3936 15.3612 19.3936 15.3612L20.2412 14.9051L21.0565 14.4749L21.4737 13.6497L21.2499 12.9606L21.2073 12.8894H21.2086Z" fill="#D4B968"/>
<path fill-rule="evenodd" clip-rule="evenodd" d="M20.4082 14.8597C20.4082 14.8597 20.2658 14.643 20.4406 14.4519C20.6155 14.2608 20.8644 14.1802 20.9615 14.0606C20.943 14.0378 20.9182 14.0209 20.8902 14.0122C20.9546 13.8969 21.0529 13.8042 21.1717 13.7466C21.1233 13.6982 21.0585 13.6594 20.9875 13.6594C20.8288 13.6594 20.7315 13.7564 20.5861 13.7564C20.4438 13.7564 20.4276 13.6852 20.4276 13.6852C20.4276 13.6852 20.6671 13.6626 20.6443 13.5558C20.6217 13.4425 20.5803 13.4425 20.5803 13.4425C20.5803 13.4425 21.0429 13.2506 21.1238 13.1482C21.2046 13.0458 21.195 12.9249 21.2112 12.8765C21.266 12.8765 21.5863 12.7082 21.7158 12.7794C21.8453 12.8507 21.7546 13.0447 21.7546 13.0447C21.7546 13.0447 22.1464 12.7502 22.346 12.4614C22.5207 12.4777 22.602 12.3418 22.7299 12.3418C22.8886 12.3418 23.1377 12.5585 23.1861 13.0211C23.2185 13.2864 23.2669 13.4385 23.2185 13.9077C23.1959 14.173 23.2023 14.7394 23.2825 15.0205C23.3373 15.2438 23.4668 15.2212 23.4668 15.2212C23.4469 15.2893 23.4076 15.35 23.3535 15.3959C23.2661 15.4767 23.2565 15.6904 23.2661 15.7712C23.279 15.8303 23.2952 15.8887 23.3147 15.9459C23.3147 15.9459 23.2113 16.0656 23.1853 16.1466C23.1627 16.2274 23.056 16.2825 22.9782 16.2825C22.9003 16.2825 22.9394 16.2759 22.8359 16.2825C22.7325 16.2891 22.7001 16.3051 22.6352 16.2825C22.5704 16.2599 22.522 16.2338 22.548 16.0265C22.5706 15.8194 21.7489 15.3374 21.7489 15.3374L20.4052 14.8586L20.4082 14.8597Z" fill="#CCA849"/>
<path fill-rule="evenodd" clip-rule="evenodd" d="M18.8643 16.9048C18.8643 16.9048 19.1587 17.2964 20.3688 17.2964C20.9446 17.2964 21.1453 17.2414 21.2645 17.209C21.394 17.1766 21.8792 16.9859 22.3678 16.4098C22.8078 15.889 22.7107 15.6755 22.7107 15.6755L22.4548 15.6367L21.623 15.75L19.1619 16.7982L18.8633 16.9048H18.8643Z" fill="#585136"/>
<path fill-rule="evenodd" clip-rule="evenodd" d="M19.767 17.0015C19.767 17.0015 18.7188 17.2346 18.7188 16.5713C18.7188 15.9242 19.3658 15.2447 19.5277 15.1251C19.696 15.0052 20.0971 14.8691 20.0971 14.8691H21.0646L21.2488 15.3578L21.168 16.4124L19.767 17.0012V17.0015Z" fill="#252211"/>
<path fill-rule="evenodd" clip-rule="evenodd" d="M20.7339 15.0669C20.7339 15.0669 20.5335 14.8824 20.0773 15.1308C19.6211 15.3793 19.2521 15.8986 19.2295 16.3702C19.2069 16.7873 19.5725 17.0981 20.1419 17.1143C20.5657 17.1303 20.8214 17.0819 20.9508 17.0503C20.9184 17.0115 20.7502 16.8012 20.7502 16.8012L20.7342 15.0671L20.7339 15.0669Z" fill="#C3B378"/>
<path fill-rule="evenodd" clip-rule="evenodd" d="M20.538 15.1703C20.538 15.1703 20.4895 15.1315 20.346 15.2092C20.2264 15.2731 20.0517 15.4423 19.9158 15.5619C19.8284 15.6332 19.7734 15.6654 19.7239 15.7204C19.5232 15.9599 19.3549 16.3515 19.4522 16.5455C19.5494 16.7396 19.8696 16.9629 20.6849 16.8109L20.5356 15.1706L20.538 15.1703Z" fill="#E6D89C"/>
<path fill-rule="evenodd" clip-rule="evenodd" d="M20.2735 15.5715C20.2735 15.5715 20.144 15.7722 20.144 16.0926C20.144 16.4193 20.3285 16.9401 21.008 16.9789C21.5288 17.0114 21.8781 16.2284 22.2567 15.9243C22.5446 15.6914 22.7193 15.6848 22.7193 15.6848C22.7193 15.6848 22.425 15.3649 21.6388 14.9505C20.8623 14.5331 19.9919 14.4781 19.5195 15.1188C19.7428 15.1026 20.4643 14.9181 20.4643 14.9181L20.8171 15.0313L20.2735 15.5718V15.5715Z" fill="#252211"/>
<path fill-rule="evenodd" clip-rule="evenodd" d="M21.288 15.9957C21.2654 15.9473 21.2492 15.8825 21.3431 15.8665C21.4369 15.8505 21.4789 15.8599 21.5113 15.9305C21.5438 16.0011 21.5753 16.0599 21.5273 16.0891C21.4789 16.1149 21.3527 16.0891 21.2878 15.9953L21.288 15.9957ZM21.136 15.5395C21.136 15.5395 21.1036 15.5621 21.1198 15.5169C21.1262 15.4621 21.1684 15.3649 21.2718 15.3877C21.3753 15.4105 21.3529 15.5235 21.3358 15.556C21.3188 15.5884 21.2324 15.6432 21.1675 15.6199C21.1509 15.6157 21.1372 15.6037 21.1308 15.5877C21.1244 15.5718 21.126 15.5537 21.1351 15.5391L21.136 15.5395Z" fill="#6F674D"/>
<path fill-rule="evenodd" clip-rule="evenodd" d="M12.377 15.7462C12.377 15.7462 12.6329 15.9382 12.9302 15.9307C13.2245 15.9241 13.6031 15.6202 13.7777 15.4259C13.8812 15.3126 13.9697 15.193 14.0657 15.0991C14.1467 15.0183 14.2015 14.9795 14.2403 14.9245C14.2954 14.8605 14.3536 14.7402 14.3828 14.7012C14.3116 14.7562 14.2081 14.8534 14.1013 14.9181C13.9978 14.9821 13.7745 15.1023 13.6839 15.1348C13.5967 15.1672 12.6907 15.6466 12.6907 15.6466L12.377 15.7462Z" fill="#AC924C"/>
<path fill-rule="evenodd" clip-rule="evenodd" d="M12.7676 13.3554C12.7676 13.3554 12.9098 13.2584 13.185 13.1967C13.4503 13.1328 13.9841 13.0835 13.9841 13.0835L14.4241 13.2754L14.5987 13.9387L14.2788 14.628L13.8713 14.884L13.4085 14.1398L12.7686 13.3567L12.7676 13.3554Z" fill="#9F8E57"/>
<path fill-rule="evenodd" clip-rule="evenodd" d="M12.1933 13.9473L12.041 14.061C12.041 14.061 12.08 13.9897 12.1122 13.773C12.1445 13.5564 12.3129 13.0289 12.5588 12.7248C12.8048 12.4207 12.7984 12.4369 12.7984 12.4369C12.7526 12.4285 12.7054 12.4402 12.6689 12.4691C12.7013 12.3974 12.9084 12.1415 13.1155 12.0135C13.3226 11.8856 13.4034 11.8453 13.6201 11.9496C13.8368 12.0538 13.8918 12.108 14.0505 12.1016C14.2092 12.0952 14.3448 11.9269 14.3448 11.9269C14.3448 11.9269 14.3772 12.0304 14.2576 12.2699C14.1379 12.5094 13.6655 12.9978 13.6655 12.9978L12.6819 13.6707L12.1933 13.9479V13.9473Z" fill="#EAC970"/>
<path fill-rule="evenodd" clip-rule="evenodd" d="M12.9208 13.2745C12.9208 13.2745 13.6327 13.3715 13.8494 13.171C13.8558 13.1936 13.8818 13.1936 13.8818 13.2098C13.88 13.2221 13.8744 13.2334 13.8656 13.242C13.8891 13.2383 13.913 13.2361 13.9368 13.2356C13.9653 13.2441 13.9946 13.2496 14.0243 13.2518C14.0481 13.2513 14.0719 13.2491 14.0955 13.2452C14.0909 13.2777 14.0734 13.307 14.0469 13.3263C14.0793 13.3263 14.1108 13.3327 14.1108 13.3585C14.1108 13.3843 14.1172 13.4621 14.0784 13.4783C14.0463 13.4872 14.012 13.4849 13.9814 13.4717C13.984 13.533 14.0006 13.5928 14.03 13.6466C14.094 13.7663 14.2305 13.9025 14.4139 13.8633C14.4139 13.8633 14.5107 14.0962 14.1032 14.6138C14.0484 14.6851 13.9899 14.7821 13.9189 14.8629C13.8908 14.9241 13.8694 14.9881 13.8549 15.0538C13.8549 15.0538 14.5442 14.7885 14.7415 14.1834C14.9422 13.5752 14.981 12.9767 14.9422 12.4171C14.9356 12.2584 14.9098 12.1454 14.871 12.0643C14.7739 11.8636 14.502 11.8961 14.3922 12.0093C14.2335 12.168 13.9682 12.5625 13.5994 12.8343C13.2241 13.106 13.2081 13.1542 12.9199 13.2745H12.9208Z" fill="#D7BC6B"/>
<path fill-rule="evenodd" clip-rule="evenodd" d="M12.067 14.1482C12.067 14.1482 11.9312 14.229 11.8599 14.5321C11.7887 14.8426 11.9239 15.2212 12.0022 15.3408C12.0804 15.4605 12.2581 15.7874 12.6266 15.8036C12.7179 15.8031 12.8081 15.7844 12.892 15.7486C13.0206 15.6896 13.1413 15.6146 13.2511 15.5253C13.4098 15.4057 13.539 15.3022 13.5228 15.2924C13.484 15.2762 12.5458 14.4997 12.5458 14.4997L12.1931 14.106L12.0668 14.1486L12.067 14.1482Z" fill="#585136"/>
<path fill-rule="evenodd" clip-rule="evenodd" d="M12.9529 15.4357C12.9529 15.4357 13.1438 15.4197 13.257 15.3485C13.3703 15.2772 12.5938 14.5073 12.5938 14.5073L12.6488 15.3391L12.9529 15.4357Z" fill="#453A25"/>
<path fill-rule="evenodd" clip-rule="evenodd" d="M12.1295 14.0901C12.1295 14.0901 12.0325 14.2745 12.0325 14.3232C12.0163 14.4816 12.0649 14.9798 12.1037 15.1383C12.1425 15.3066 12.3528 15.5621 12.6248 15.5621C12.7928 15.5621 13.0259 15.4586 13.0259 15.4328C13.0259 15.4004 12.7864 15.3688 12.7218 15.2483C12.683 15.1844 12.6668 15.0253 12.6578 14.8644C12.6514 14.761 12.6514 14.6478 12.6902 14.6085C12.7777 14.5115 12.7937 14.2332 12.7937 14.2332L13.1042 13.6562H12.6958L12.2072 13.9604L12.1295 14.0901Z" fill="#84754B"/>
<path fill-rule="evenodd" clip-rule="evenodd" d="M12.0098 14.2679C12.0098 14.2679 12.3297 13.8441 12.618 13.7469C12.9064 13.6496 13.0354 13.7081 13.0354 13.7081L12.8671 14.1384L12.6276 14.4038L12.6438 14.5396C12.6438 14.5396 12.6048 14.8988 12.8443 15.1479C13.0838 15.397 13.2617 15.3874 13.3653 15.3874C13.469 15.3874 13.7665 15.2999 13.9186 14.9408C14.0544 14.6045 14.1677 14.173 13.896 13.7405C13.6304 13.3101 13.1614 13.2935 13.0708 13.2935C12.9802 13.2935 12.2685 13.3291 12.0098 14.2673V14.2679Z" fill="#252211"/>
<path fill-rule="evenodd" clip-rule="evenodd" d="M20.2247 15.7071C20.1051 15.6521 20.2183 15.3158 20.338 15.2121C20.4576 15.1085 20.6097 14.989 20.8752 14.9726C20.9721 14.9662 21.0659 15.0277 21.0499 15.0925C21.0273 15.2121 20.859 15.3804 20.707 15.5001C20.4967 15.6651 20.3606 15.7686 20.2247 15.7071Z" fill="#F7F7E7"/>
<path fill-rule="evenodd" clip-rule="evenodd" d="M13.752 13.873C13.8395 13.8666 13.9527 13.9369 13.9753 14.0316C13.9979 14.1351 13.9203 14.3422 13.752 14.3422C13.6162 14.3422 13.5449 14.1739 13.5449 14.1255C13.5465 14.0857 13.5576 14.0468 13.5773 14.0122C13.5837 14.0024 13.5999 13.8892 13.752 13.873Z" fill="#F8F6DE"/>
<path fill-rule="evenodd" clip-rule="evenodd" d="M12.4891 13.9478C12.4891 13.9478 12.2658 14.0512 12.1624 14.2677C12.0884 14.4275 12.0661 14.6064 12.0984 14.7795C12.1146 14.8604 12.1954 15.0608 12.2504 15.1321C12.3055 15.2033 12.3799 15.2519 12.4349 15.2453C12.4899 15.2387 12.603 15.0933 12.603 15.006C12.603 14.9188 12.6096 14.5498 12.7162 14.3491C12.8101 14.1487 12.4897 13.948 12.4897 13.948L12.4891 13.9478Z" fill="#D4C38B"/>
<path fill-rule="evenodd" clip-rule="evenodd" d="M12.5235 13.9313C12.4847 13.9539 12.4201 13.9863 12.4361 14.0283C12.4523 14.0671 12.5882 14.0923 12.6368 14.187C12.6918 14.284 12.6918 14.3875 12.6756 14.4361C12.7179 14.416 12.7562 14.3886 12.7888 14.3551C12.8601 14.2742 12.9473 14.1644 13.0217 14.1644C13.0704 14.1644 13.1188 14.187 13.1642 14.187C13.2354 14.187 13.3065 14.1644 13.3163 14.09C13.3323 13.9929 13.1804 13.9055 13.093 13.9217C13.1092 13.8577 13.1318 13.7632 13.0606 13.6984C12.9893 13.6335 12.7662 13.747 12.7176 13.7794C12.669 13.8118 12.5235 13.9315 12.5235 13.9315V13.9313Z" fill="#E2D59D"/>
<path fill-rule="evenodd" clip-rule="evenodd" d="M17.6647 20.7283L18.1435 20.5869L18.2794 20.684C18.2794 20.684 18.3762 20.891 18.5285 20.9168C18.4799 21.0203 18.3536 21.1088 18.3602 21.1822C18.3668 21.2555 18.4314 21.3116 18.4314 21.3116C18.4314 21.3116 18.0011 22.0233 18.8488 22.7406C18.6481 22.8214 18.3926 22.9325 18.2568 22.9965C18.3536 23.0191 18.5607 23.0605 18.6481 23.139C18.7356 23.2174 18.7356 23.2424 18.8164 23.291C18.8972 23.3396 18.9456 23.4043 18.9297 23.4333C18.8746 23.4009 18.6901 23.304 18.6579 23.3945C18.6257 23.4849 17.8588 23.4495 17.8588 23.4495L16.5647 23.6986C16.5647 23.6986 16.6131 23.5691 16.4772 23.4495C16.3187 23.3072 16.1247 23.4559 15.9176 23.2974C15.6459 23.0903 15.6361 22.8508 15.5488 22.7604C15.6361 22.7054 15.8141 22.6245 16.2379 22.5684C16.2217 22.536 16.1667 22.439 16.1991 22.3518C16.2379 22.2385 16.3996 22.1673 16.3512 22.0318C16.4224 22.0156 16.4546 22.0156 16.6327 21.7923C16.801 21.569 16.9044 21.5206 17.0339 21.5044C17.1633 21.4882 17.2409 21.5044 17.4805 21.2811C17.6485 21.1227 17.5937 20.9868 17.5937 20.9868C17.5937 20.9868 17.7035 20.9512 17.6649 20.7279L17.6647 20.7283Z" fill="#CBAC5A"/>
<path fill-rule="evenodd" clip-rule="evenodd" d="M16.2488 20.8006C16.2552 20.7681 16.2812 20.7519 16.4559 20.7681C16.6306 20.7844 17.737 20.6647 18.0379 20.6485C18.3421 20.6259 19.4129 20.6419 19.934 20.7519C20.455 20.862 20.9822 20.9914 21.2377 21.0561C21.4936 21.1273 21.5742 21.1529 21.5644 21.1853C21.558 21.2177 21.5005 21.2493 21.4674 21.2403C21.4352 21.2339 20.5874 20.975 20.3255 20.9204C20.0636 20.8658 19.1574 20.7197 18.662 20.7285C18.1994 20.7351 18.0149 20.7221 17.6236 20.7673C17.232 20.8159 16.5849 20.8805 16.3908 20.8547C16.1989 20.8321 16.2386 20.8321 16.2484 20.7997L16.2488 20.8006Z" fill="#D6BC6F"/>
<path fill-rule="evenodd" clip-rule="evenodd" d="M18.855 23.3365C18.855 23.3365 19.5183 23.6957 19.7578 24.1357C19.9324 24.4624 19.6543 24.6243 19.6543 24.6243C19.6543 24.6243 20.0297 24.6243 19.9811 24.8314C19.9585 24.9606 19.334 25.31 18.9166 25.4945C18.4928 25.6789 18.509 25.6693 18.302 25.7015C18.1013 25.734 17.5512 25.6376 17.438 25.7986C17.3247 25.9596 17.374 26.1255 17.4056 26.1513C17.438 26.174 17.7001 26.2064 17.7001 26.2064C17.7001 26.2064 17.6451 26.3584 17.1016 26.3746C16.5582 26.3909 16.4222 26.4295 16.3897 26.4879C16.3573 26.5427 16.4932 26.5105 16.7425 26.5519C16.9916 26.5907 17.3409 26.6159 17.3409 26.6159C17.3409 26.6159 17.2277 26.7129 16.9334 26.7905C16.5968 26.8778 16.0694 26.9588 15.9109 27.0558C15.9918 27.1109 16.1116 27.1917 16.1669 27.1981C16.031 27.2305 15.8399 27.3017 15.8077 27.3276C15.8561 27.36 15.921 27.3988 15.921 27.3988C15.921 27.3988 15.649 27.7255 15.4906 27.8066C15.3321 27.8876 14.4197 28.3112 14.1058 28.2303C13.3229 28.0233 13.2258 27.1659 13.0349 27.1013C12.747 27.0042 12.6112 27.1981 12.3554 27.0622C12.4687 26.9814 12.5303 26.933 12.65 26.878C12.5205 26.814 11.8508 26.3894 11.8508 26.3894C11.7808 26.2367 11.7031 26.0877 11.6179 25.943C11.4885 25.7197 11.298 25.4219 11.1551 25.1598C10.8446 24.584 10.8284 24.3187 10.5469 23.9919C10.5955 23.928 10.7636 23.9369 10.7636 23.9369L13.1224 24.7134L17.3049 24.8346L18.3926 23.2817L18.8552 23.3368L18.855 23.3365Z" fill="#DFC677"/>
<path fill-rule="evenodd" clip-rule="evenodd" d="M12.6582 25.7047C12.6834 25.7328 12.7129 25.7568 12.7454 25.7759C12.8265 25.8309 12.9461 25.8958 13.027 25.9926C13.0594 25.9442 13.1402 25.8567 13.2829 25.9926C13.4256 26.1285 13.6028 26.0316 13.7131 26.0638C13.8263 26.1029 13.8327 26.1189 13.8327 26.1189C13.8327 26.1189 13.8967 26.0638 14.0398 26.0056C14.1272 25.9732 14.2307 25.9506 14.3439 25.9184C14.4474 25.8958 14.5606 25.8634 14.6385 25.8634C14.7097 25.9118 14.9652 26.1833 15.9908 25.7825C16.9582 25.4072 17.1813 25.3651 17.3432 25.4232C17.3594 25.3843 17.3756 25.3099 17.6247 25.3197C17.6247 25.2163 17.4176 24.8635 17.4176 24.8635L16.2755 24.4722H15.6509L13.7777 24.8151L12.7397 25.4074L12.6588 25.706L12.6582 25.7047Z" fill="#C4A859"/>
<path fill-rule="evenodd" clip-rule="evenodd" d="M12.0332 25.048C12.0332 25.048 12.0558 25.2227 12.3147 25.4072C12.5707 25.5914 12.6511 25.7015 12.6511 25.7015C12.6511 25.7015 12.6997 25.6375 12.7385 25.5722C12.7773 25.501 12.8097 25.4202 12.8744 25.3976C13.0038 25.3425 13.2981 25.446 13.363 25.4298C13.418 25.4138 13.4018 25.3005 13.46 25.3005C13.5959 25.2939 13.6831 25.3877 13.7317 25.3877C13.7803 25.3877 13.8998 25.3813 13.916 25.3555C13.9322 25.3297 13.9386 25.061 14.1231 24.9316C14.3238 24.7893 14.5697 24.8507 14.6349 24.8831C14.6349 24.9316 14.6413 25.0514 14.7708 25.0578C14.9002 25.0642 14.913 25.0416 15.0267 25.0804C15.1404 25.1192 15.2758 25.074 15.3372 25.2647C15.3923 25.2487 15.5217 25.2325 15.4893 25.048C15.5533 24.9996 15.6092 24.9672 15.7452 24.7763C15.7777 24.7279 15.8325 24.6729 15.8747 24.6016C15.9879 24.6016 16.1238 24.579 16.3049 24.7375C16.2498 24.7763 16.2174 24.8015 16.2014 24.8409C16.2488 24.8878 16.292 24.9387 16.3307 24.993C16.3793 25.057 16.4117 25.1354 16.4731 25.1517C16.609 25.1905 16.8323 25.1354 17.0814 25.1517C17.3209 25.1679 17.5214 25.2551 17.6088 25.3101C17.6412 25.2941 17.6412 25.2875 17.7221 25.3037C17.8029 25.3199 17.8643 25.3263 17.7771 25.2229C17.8255 25.2455 17.8805 25.2941 17.9292 25.2455C17.9778 25.1969 18.0164 25.1258 18.1523 25.1096C18.2881 25.0934 18.3367 25.116 18.3918 24.9738C18.463 24.7991 18.2171 24.7991 18.2171 24.7991C18.2171 24.7991 18.3303 24.6955 18.4566 24.5596C18.6087 24.4173 18.7833 24.2329 18.8253 24.0064C18.8966 23.589 18.489 23.5342 18.489 23.5342L16.5122 24.1424L14.0954 24.0226L12.0345 25.0482L12.0332 25.048Z" fill="#927D49"/>
<path fill-rule="evenodd" clip-rule="evenodd" d="M10.2583 19.3378C10.2583 19.3378 10.1943 19.4186 10.1549 19.6095C10.1154 19.8004 10.1322 19.7777 10.0998 19.9136C10.0674 20.0495 9.66923 21.4018 9.81852 21.858C9.96781 22.3142 10.2263 22.4825 10.388 22.8512C10.4204 22.9321 10.4519 22.9807 10.4688 23.0519C10.5238 23.2912 10.4754 23.4757 10.54 23.7152C10.5626 23.796 10.6211 23.8899 10.7083 23.9869C10.9002 24.1874 11.2131 24.3783 11.3481 24.5141C11.5388 24.7148 11.8107 25.1226 12.1569 25.1612C12.3413 25.1838 12.6035 25.1062 12.8201 24.9769C13.0121 24.8571 13.1307 24.689 13.332 24.593C13.4743 24.5218 13.6263 24.496 13.7622 24.4636C14.0437 24.4086 14.2994 24.3996 14.4515 24.4312C14.6844 24.4798 15.2344 24.6481 15.5392 24.6481C15.7773 24.6442 16.0141 24.6117 16.2445 24.551C16.7071 24.4152 17.2667 24.1821 17.6357 24.0786C17.8523 24.0147 18.027 23.9978 18.2051 23.959C18.5092 23.8878 18.7647 23.7907 18.9104 23.6062C18.8134 23.493 18.6937 23.3183 18.0464 23.3247C17.3121 23.3409 16.4644 23.7485 16.047 23.8133C15.6296 23.8782 15.4485 23.933 14.9825 23.7647C14.5257 23.5947 14.5106 23.4823 14.5106 23.4823C14.5106 23.4823 14.0309 23.1468 13.8302 22.2916C13.6295 21.4364 13.8302 20.8132 14.3512 20.2209C14.4871 20.0689 14.4547 19.933 14.4547 19.933C14.4547 19.933 14.7976 19.4704 14.7038 19.0373C14.6003 18.6069 13.9371 18.6943 13.9371 18.6943L10.2585 19.3378H10.2583Z" fill="#6E6342"/>
<path fill-rule="evenodd" clip-rule="evenodd" d="M10.8107 20.7773C10.7822 20.831 10.7688 20.8913 10.7719 20.952C10.7783 21.0392 10.8043 21.1525 11.0662 21.4082C11.2895 21.6313 11.2409 21.8804 11.2409 21.8804C11.2409 21.8804 11.3533 21.903 11.6583 21.7603C11.8978 21.6471 11.9782 21.8478 11.9782 21.8478C12.0479 21.8112 12.1235 21.7871 12.2015 21.7765C12.2722 21.77 12.3406 21.7482 12.402 21.7126C12.402 21.7126 12.6835 22.0005 12.9294 22.1363C13.1527 22.2562 13.2822 22.337 13.3922 22.2562C13.4957 22.185 13.4957 22.0393 13.489 21.9747C13.4634 21.915 13.4309 21.8586 13.3922 21.8064C13.321 21.703 13.2077 21.5831 13.2003 21.4865C13.1841 21.2634 13.3685 20.9979 13.3295 20.9332C13.2905 20.8686 13.1452 20.8524 12.7861 20.9819C12.4141 21.1047 10.8093 20.778 10.8093 20.778L10.8107 20.7773Z" fill="#39331F"/>
<path fill-rule="evenodd" clip-rule="evenodd" d="M11.6588 22.2237C11.6588 22.2237 11.4745 22.049 11.5391 21.2013C11.6174 21.2001 11.6955 21.2077 11.772 21.2239C11.772 21.2239 11.8725 21.8808 11.6588 22.2237Z" fill="#292311"/>
<path fill-rule="evenodd" clip-rule="evenodd" d="M10.3459 18.6907C10.3716 18.6716 10.3955 18.6502 10.4171 18.6267C10.3532 18.7463 10.0578 19.2251 10.2973 19.979C10.5368 20.7296 11.1384 21.2892 11.8793 21.3152C12.6203 21.3412 13.0097 20.9787 13.455 20.4352C13.6297 20.2185 13.8304 19.9466 14.0083 19.7624C14.2736 19.4742 14.4807 19.3934 14.4807 19.1153C14.4807 18.5458 13.8982 18.2901 13.0408 18.0346C12.1835 17.7791 11.4101 17.8107 11.009 17.9856C10.6176 18.1762 10.4493 18.3769 10.3457 18.6909L10.3459 18.6907Z" fill="#252211"/>
<path fill-rule="evenodd" clip-rule="evenodd" d="M13.0983 22.4789L13.1623 22.4465C13.1623 22.4465 13.1783 22.1906 13.2819 22.1974C13.3854 22.2136 13.434 22.3497 13.4242 22.3981C13.4178 22.4465 13.392 22.5275 13.2883 22.5177C13.1525 22.5209 13.0977 22.4789 13.0977 22.4789H13.0983Z" fill="#3F3824"/>
<path fill-rule="evenodd" clip-rule="evenodd" d="M12.8125 21.3922C12.8125 21.3922 12.8765 21.3696 12.9548 21.4472C13.0187 21.4472 13.2977 21.4148 13.3851 21.4699C13.4726 21.5249 13.4984 21.5733 13.4984 21.5733C13.4984 21.5733 13.1717 21.6445 12.9936 21.5733C12.8125 21.5119 12.8125 21.3922 12.8125 21.3922Z" fill="#2D2815"/>
<path fill-rule="evenodd" clip-rule="evenodd" d="M14.2502 21.4403C14.2502 21.4241 14.0755 21.3044 13.891 21.2654C13.8586 21.259 13.852 21.2816 13.827 21.2816C13.8108 21.2752 13.8044 21.2266 13.8044 21.2266L13.6995 21.2818C13.6995 21.2818 13.6833 21.3044 13.7383 21.3458C13.7867 21.3846 13.8678 21.417 13.8904 21.4816C13.913 21.5463 13.913 21.5689 13.9228 21.5787C13.9292 21.5851 14.0424 21.5787 14.0975 21.5463C14.1525 21.5138 14.2561 21.4609 14.2495 21.4396L14.2502 21.4403Z" fill="#82764F"/>
<path fill-rule="evenodd" clip-rule="evenodd" d="M12.6172 22.0975C12.6172 22.0975 12.6494 21.8744 12.8663 21.8646C13.0894 21.8484 13.1316 22.0651 13.1316 22.0651L13.0021 22.1946C13.0021 22.1914 12.9051 22.0555 12.6183 22.0975H12.6172Z" fill="#2D2816"/>
<path fill-rule="evenodd" clip-rule="evenodd" d="M14.0258 21.1366C14.0258 21.1366 13.9059 21.266 13.6408 21.3048C13.6182 21.2724 13.5696 21.2078 13.6408 21.1044C13.7121 21.0009 13.7929 20.9685 13.8737 21.0007C13.9465 21.0125 14.0059 21.0655 14.0258 21.1366Z" fill="#574F35"/>
<path fill-rule="evenodd" clip-rule="evenodd" d="M14.5118 21.2949C14.5185 21.2625 14.4958 21.2561 14.5118 21.2399C14.5278 21.2237 14.6155 21.1915 14.6317 21.2075C14.6381 21.2141 14.6317 21.2399 14.6317 21.2715C14.6317 21.303 14.6317 21.3355 14.6155 21.3587C14.5929 21.3911 14.5283 21.4073 14.4958 21.3977C14.4634 21.3881 14.457 21.3427 14.457 21.3338C14.473 21.3274 14.5118 21.3111 14.5118 21.2949ZM15.0642 20.9456C15.0642 20.9294 15.1192 20.897 15.1517 20.897C15.2001 20.897 15.2001 20.9358 15.2067 20.9456C15.2227 20.952 15.2227 20.939 15.2389 20.9682C15.2551 20.9974 15.2779 21.049 15.2615 21.0815C15.2451 21.1139 15.1807 21.1363 15.1647 21.1299C15.1421 21.1137 15.0708 20.9682 15.0642 20.9456Z" fill="#82764F"/>
<path fill-rule="evenodd" clip-rule="evenodd" d="M13.9531 21.3698C13.9531 21.3698 14.0244 21.3858 14.1214 21.4669C14.089 21.4895 14.0404 21.5153 14.0404 21.5153C14.0404 21.5153 14.034 21.4409 13.9531 21.3696V21.3698Z" fill="#6E6342"/>
<path fill-rule="evenodd" clip-rule="evenodd" d="M13.7955 20.6574C13.7793 20.6414 13.8439 20.6026 13.8828 20.609C13.9216 20.6154 13.9378 20.6414 13.9798 20.6478C14.0218 20.6542 14.0284 20.6316 14.0438 20.6154C14.0591 20.5991 14.115 20.609 14.1246 20.6154C14.1306 20.6225 14.136 20.63 14.1408 20.638C14.1422 20.6131 14.1539 20.5899 14.173 20.574C14.1982 20.5555 14.2304 20.5495 14.2605 20.5578C14.2669 20.5804 14.2993 20.6612 14.2929 20.6774C14.2865 20.6936 14.1894 20.7164 14.173 20.7C14.1892 20.7391 14.2605 20.8199 14.2701 20.8359C14.2797 20.8519 14.1988 20.8909 14.1666 20.8845C14.1214 20.8813 13.8431 20.7194 13.7947 20.658L13.7955 20.6574ZM14.2193 20.1203C14.2133 20.104 14.2019 20.0903 14.1869 20.0815C14.1643 20.0751 14.0898 20.0815 14.0898 20.1203C14.0898 20.1592 14.1538 20.3763 14.2257 20.4893C14.3067 20.6026 14.3616 20.6962 14.4166 20.7222C14.4524 20.7385 14.4948 20.7244 14.5136 20.6898C14.52 20.6736 14.5362 20.5539 14.5298 20.2724C14.5234 19.9909 14.5136 19.7192 14.4974 19.703C14.4812 19.6868 14.4166 19.687 14.394 19.7192C14.3714 19.7514 14.2257 20.0719 14.2191 20.1203H14.2193Z" fill="#585136"/>
<path fill-rule="evenodd" clip-rule="evenodd" d="M13.9298 21.7769C13.9298 21.7769 13.8165 21.7057 13.7065 21.7543C13.6031 21.8029 13.6095 21.9938 13.6095 21.9938C13.6567 22.0123 13.71 22.0062 13.7519 21.9776C13.8232 21.9292 13.9136 21.8483 13.9298 21.7771V21.7769Z" fill="#574F35"/>
<path fill-rule="evenodd" clip-rule="evenodd" d="M14.1441 22.0329C14.1377 21.9689 14.0801 21.9689 14.0801 21.9359C14.0882 21.9033 14.1176 21.8806 14.1511 21.8808C14.1835 21.8808 14.2151 21.9197 14.2547 21.9448C14.2936 21.9674 14.3518 22.0088 14.3582 22.0581C14.3646 22.1073 14.2942 22.2423 14.2159 22.2423C14.1377 22.2423 14.1609 22.0967 14.1447 22.0321L14.1441 22.0329ZM14.7685 21.9455C14.7685 21.9455 14.6391 21.9843 14.6487 21.9455C14.6583 21.9066 14.6877 21.897 14.7297 21.897C14.7511 21.8747 14.7798 21.8608 14.8105 21.858C14.8281 21.8571 14.8454 21.8629 14.859 21.8742C14.859 21.8742 14.9464 21.8354 14.9722 21.858C14.998 21.8806 14.9788 21.8806 14.9948 21.9066C15.0152 21.9355 15.0285 21.9687 15.0338 22.0037C15.0338 22.0295 14.9368 22.0845 14.859 22.0749C14.7685 22.0555 14.7845 21.9617 14.7685 21.9455ZM15.5222 21.7998C15.5222 21.7998 15.5611 21.8224 15.5288 21.8484C15.5062 21.871 15.393 21.9124 15.2957 21.9197C15.1987 21.9197 15.1115 21.9356 15.1115 21.9034C15.1115 21.8712 15.1923 21.8064 15.2407 21.7902C15.2604 21.7656 15.2902 21.7513 15.3218 21.7514C15.3606 21.7514 15.5124 21.7352 15.5547 21.7288C15.5935 21.7222 15.6259 21.7448 15.6031 21.7772C15.5935 21.7998 15.5222 21.7998 15.5222 21.7998ZM15.7455 20.8008C15.7455 20.8008 15.6969 20.9043 15.6421 20.9043C15.5871 20.8979 15.5871 20.8816 15.5871 20.8654C15.5871 20.8428 15.6421 20.7846 15.6355 20.7684C15.6195 20.7684 15.5805 20.7684 15.5871 20.7296C15.5871 20.6972 15.6421 20.6584 15.6905 20.6656C15.7271 20.6355 15.7726 20.6185 15.82 20.6172C15.875 20.6172 15.9234 20.6332 15.9234 20.6656C15.9234 20.698 15.8594 20.769 15.836 20.7855C15.8102 20.8113 15.7777 20.8281 15.7455 20.8015V20.8008ZM15.0078 22.7128C15.0078 22.7128 14.9438 22.7194 14.9438 22.7516C14.9438 22.7678 14.9598 22.7678 14.9827 22.7582C14.9958 22.7575 15.0088 22.7553 15.0215 22.7516C15.0279 22.7582 15.0279 22.7905 15.0765 22.7905C15.1164 22.7851 15.1549 22.7719 15.1897 22.7516C15.2286 22.7356 15.261 22.7192 15.261 22.6877C15.2448 22.6326 15.2124 22.6066 15.1639 22.6066C15.1391 22.605 15.1144 22.6107 15.0927 22.6228C15.0927 22.6228 15.0765 22.5904 15.0215 22.6228C14.9664 22.6552 14.9728 22.6552 14.9891 22.6714C15.0181 22.6973 15.0085 22.7141 15.0085 22.7141L15.0078 22.7128ZM14.6423 23.0494C14.6423 23.0332 14.7231 23.0007 14.7457 23.0106C14.7683 23.0169 14.8329 23.1398 14.8329 23.1528C14.8329 23.169 14.7521 23.2078 14.7197 23.2078C14.6873 23.2078 14.6325 23.1528 14.6325 23.1438C14.6325 23.1375 14.6713 23.1279 14.6713 23.1212C14.6809 23.1052 14.6423 23.0662 14.6423 23.05V23.0494ZM14.3863 22.577C14.4025 22.5706 14.4025 22.5544 14.4252 22.5381C14.4395 22.5286 14.4575 22.5262 14.4738 22.5318C14.4853 22.5111 14.5055 22.4968 14.5288 22.4927C14.5676 22.4863 14.6 22.4927 14.5928 22.5089C14.5928 22.5576 14.6252 22.5898 14.6252 22.6286C14.6252 22.6674 14.6026 22.716 14.5218 22.7484C14.4409 22.771 14.3309 22.771 14.3147 22.7646C14.2985 22.7582 14.2823 22.6934 14.2985 22.661C14.3147 22.6286 14.3599 22.5932 14.3859 22.577H14.3863Z" fill="#82764F"/>
<path fill-rule="evenodd" clip-rule="evenodd" d="M14.4893 22.5991C14.4893 22.5991 14.4342 22.6315 14.4342 22.6477C14.4294 22.6634 14.4272 22.6798 14.4278 22.6962C14.4278 22.7058 14.4991 22.6898 14.5087 22.68C14.5119 22.6736 14.4893 22.616 14.4893 22.5991Z" fill="#6E6342"/>
<path fill-rule="evenodd" clip-rule="evenodd" d="M14.008 22.4466C14.0402 22.4532 14.0953 22.4466 14.1373 22.4628C14.1697 22.479 14.1923 22.5114 14.1599 22.5503C14.1275 22.5891 14.0959 22.6473 14.024 22.6375C13.9432 22.6311 13.8656 22.5891 13.8656 22.5567C13.8628 22.5152 13.8768 22.4744 13.9044 22.4434C13.9368 22.4176 13.9528 22.4338 14.0078 22.4466H14.008Z" fill="#585136"/>
<path fill-rule="evenodd" clip-rule="evenodd" d="M13.9694 22.4795C13.9694 22.4795 13.8659 22.5603 13.8399 22.5994C13.8075 22.6382 13.649 22.8386 13.6006 22.8807C13.6167 22.8523 13.635 22.8253 13.6554 22.7998C13.5915 22.8407 13.5435 22.9024 13.5196 22.9745C13.4808 23.0944 13.7365 23.159 13.9045 23.2076C14.0726 23.2562 14.1376 23.2716 14.1376 23.2716C14.0758 23.1786 14.0227 23.0801 13.979 22.9773C13.915 22.8252 13.8819 22.809 13.9239 22.7378C13.9564 22.6665 14.005 22.6181 14.005 22.5631C13.9856 22.5119 13.9694 22.4795 13.9694 22.4795Z" fill="#574F35"/>
<path fill-rule="evenodd" clip-rule="evenodd" d="M10.2817 22.7349C10.3052 22.7393 10.3294 22.7393 10.3529 22.7349C10.4013 22.7283 10.9061 22.543 11.4336 22.5763C11.8284 22.6001 12.2198 22.6644 12.6015 22.7682C13.2647 22.9429 14.0897 23.289 14.6235 23.4865C14.7658 23.5413 14.905 23.6386 15.0074 23.6772C15.4152 23.8359 15.4312 23.8359 15.6707 23.8779C15.9522 23.9167 16.2401 23.8228 16.5411 23.7582C16.9098 23.6772 17.5407 23.6384 18.0939 23.5575C18.2728 23.5327 18.4493 23.4927 18.6213 23.4379C18.6213 23.4379 18.1814 23.8779 17.1265 24.0363C16.7001 24.1011 16.2668 24.1065 15.839 24.0525C15.5024 24.0201 15.2793 23.9715 15.1111 23.9231C14.9202 23.8681 14.5286 23.7224 14.0466 23.6032C13.7101 23.5157 13.3347 23.4511 12.9045 23.3703C11.8433 23.176 10.6916 22.9529 10.2812 22.7362L10.2817 22.7349Z" fill="#252211"/>
<path fill-rule="evenodd" clip-rule="evenodd" d="M9.08981 20.7354C8.83388 20.952 8.56238 21.1591 8.29728 21.3596L7.49814 21.9736C7.22643 22.1741 6.96112 22.3812 6.68919 22.5819C6.41727 22.7826 6.14577 22.9732 5.85742 23.1577C6.11335 22.941 6.38485 22.7403 6.65656 22.5431C6.92827 22.3458 7.21001 22.1523 7.47212 21.9523L8.27126 21.3374C8.54617 21.1369 8.81148 20.9299 9.08981 20.7358V20.7354ZM7.67601 23.0001C7.67601 23.0001 7.96393 22.7606 8.32308 22.4243C8.76947 22.0071 9.3163 21.4731 9.49097 21.3762L7.6758 23.0003L7.67601 23.0001Z" fill="#CFB66C"/>
<path fill-rule="evenodd" clip-rule="evenodd" d="M7.67578 23.0003C7.81825 22.8581 7.97031 22.719 8.12238 22.5829L8.35527 22.3825C8.42651 22.3185 8.50755 22.2466 8.57857 22.1754C8.72082 22.0331 8.86009 21.8808 9.00235 21.7354C9.07285 21.6622 9.1474 21.5931 9.22565 21.5283C9.26476 21.4937 9.30821 21.4643 9.35489 21.4409C9.39392 21.4183 9.43593 21.3769 9.49074 21.3696C9.45854 21.4183 9.41972 21.4409 9.38731 21.4829C9.34849 21.5153 9.31607 21.5541 9.28387 21.5863C9.21263 21.6575 9.1318 21.7222 9.06057 21.787C8.90851 21.9165 8.75004 22.0429 8.59798 22.1784C8.44591 22.3138 8.30366 22.4599 8.15138 22.5957C7.98652 22.735 7.83446 22.8709 7.67578 23.001V23.0003ZM9.6106 21.7062C9.6106 21.7062 8.55596 22.7384 8.33906 22.9065L9.6106 21.7062Z" fill="#CFB66C"/>
<path fill-rule="evenodd" clip-rule="evenodd" d="M9.61139 21.7056C9.51651 21.8154 9.41479 21.9191 9.30683 22.0161L8.98692 22.3202C8.88348 22.4237 8.78623 22.5273 8.67639 22.6307C8.56314 22.7278 8.4597 22.8227 8.33984 22.9123L8.65037 22.6081C8.75402 22.5047 8.86727 22.4175 8.97732 22.3138L9.28785 22.0097C9.39449 21.9031 9.49814 21.7994 9.61139 21.7056ZM9.6598 22.2652C9.56258 22.5365 9.44803 22.8013 9.31685 23.0579C9.04514 23.6016 8.63758 24.2809 8.45949 24.6272L9.6598 22.2652Z" fill="#CFB66C"/>
<path fill-rule="evenodd" clip-rule="evenodd" d="M9.66 22.2656C9.66 22.3853 9.62758 22.4889 9.58877 22.5924C9.55093 22.6959 9.50779 22.7974 9.45952 22.8965C9.41089 22.9935 9.35587 23.0972 9.30085 23.191C9.24582 23.2849 9.1812 23.3817 9.13257 23.4789L8.80584 24.0548C8.69259 24.2467 8.58254 24.4397 8.46289 24.6242C8.54372 24.4171 8.65377 24.2231 8.75742 24.0322C8.87067 23.8402 8.97411 23.6483 9.07733 23.4497C9.12773 23.3508 9.17308 23.2493 9.21319 23.1458C9.2616 23.0422 9.31002 22.9451 9.34905 22.8513C9.39746 22.7478 9.43627 22.6506 9.4849 22.557C9.53971 22.4565 9.58514 22.3595 9.65957 22.2656H9.66Z" fill="#CFB66C"/>
<path fill-rule="evenodd" clip-rule="evenodd" d="M10.8117 24.9189C10.8117 24.9189 10.4917 25.3427 10.5237 25.8797C10.611 25.5984 10.721 25.168 10.8117 24.9189ZM11.1158 25.3438C11.1158 25.3438 11.0025 26.4955 10.9087 27.0617C11.0413 26.4072 11.0672 26.4622 11.1158 25.3438ZM13.2349 27.1297C13.2349 27.1297 12.7561 28.5374 12.7463 28.9285C12.8499 28.5263 13.0504 27.7045 13.2349 27.1287V27.1297Z" fill="#DEC270"/>
<path fill-rule="evenodd" clip-rule="evenodd" d="M14.3535 24.8315C14.3535 24.8315 15.13 26.1127 15.7125 27.2061C15.5549 26.6559 15.1923 25.6467 14.3535 24.8315Z" fill="#CBAF59"/>
<path fill-rule="evenodd" clip-rule="evenodd" d="M16.4414 26.7178C16.8678 27.4714 17.2522 28.248 17.5931 29.044C17.5285 28.4939 17.3536 27.5525 16.4414 26.7178Z" fill="#E3C677"/>
<path fill-rule="evenodd" clip-rule="evenodd" d="M22.5742 28.6063C22.7034 28.5255 22.9591 28.0853 23.1824 27.9755C23.4055 27.8622 23.5738 27.8396 23.7745 27.6163C23.9749 27.3832 24.0304 27.2409 24.47 27.0567C25.0848 26.7912 24.6619 26.4482 24.6619 26.4482C24.7296 26.3817 24.802 26.3201 24.8786 26.2639C25.0373 26.1443 25.2215 25.9986 25.2055 25.7429C25.1829 25.3127 25.1021 24.6883 24.7493 24.3259C25.0923 24.2547 25.749 24.2063 26.157 24.1028C26.6291 23.983 26.846 23.8147 26.846 23.8147C26.846 23.8147 26.5743 23.3521 27.0143 22.8863C27.4543 22.4205 27.8134 22.1422 28.0788 21.6212C27.7746 21.5824 27.311 21.4207 26.1277 21.8703C26.1916 21.9003 26.2533 21.9349 26.3122 21.9737C26.3122 21.9737 25.5843 22.1744 25.319 22.3977C24.8562 22.7891 24.798 23.1094 24.2966 23.3489C23.7952 23.5884 23.2903 23.5236 22.8732 23.7177C22.456 23.9117 22.3944 24.0768 22.2421 24.148C22.2745 24.1869 22.2357 24.2515 22.2971 24.3065C22.2583 24.3615 22.0318 24.7303 21.8021 24.7303C21.8247 24.8177 22.0188 24.8823 22.0188 24.8823C22.0188 24.8823 21.8765 24.986 21.5142 25.0118C21.6985 25.2038 21.8733 25.413 22.3553 25.7171C22.3165 25.7979 22.1546 25.9178 22.2195 26.0699C22.2907 26.2219 22.4754 26.429 23.2127 26.5973C22.8373 26.6133 22.3976 26.7007 21.8051 26.6199C21.213 26.5487 21.116 26.5066 20.7504 26.5973C20.7893 26.6361 20.8927 26.6361 20.9833 26.7395C20.8863 26.7459 20.278 26.6683 20.071 26.9402C19.8543 27.2215 19.7604 27.6843 19.7766 27.9949C19.6634 28.0499 19.5533 28.1469 19.6084 28.3476C19.6634 28.5483 19.9513 28.6129 20.1358 28.739C20.3201 28.8748 20.3363 28.9233 20.5112 28.891C20.6954 28.8522 20.9671 28.668 21.1258 28.668C21.2845 28.668 21.3975 28.7876 21.3975 28.7876C21.3975 28.7876 21.8279 28.5805 21.8699 28.6193C21.9087 28.6582 21.8763 28.9073 21.9183 28.9461C21.961 28.9753 22.4458 28.6874 22.5752 28.6063H22.5742Z" fill="#ECD592"/>
<path fill-rule="evenodd" clip-rule="evenodd" d="M31.9797 15.6589C29.9576 10.4371 24.9589 9.46973 24.9589 9.46973H10.6973L10.7525 14.7886H13.5927V26.6656H10.6973V31.9748H24.5641C27.9061 31.9748 30.5851 28.6164 30.5851 28.6164C34.8751 22.5277 31.9795 15.6589 31.9795 15.6589H31.9797ZM24.6386 25.0381C24.6386 25.0381 23.5509 26.6074 22.3674 26.6074H20.0001L19.944 14.8016H22.9821C22.9821 14.8016 24.3897 15.0959 25.3731 17.8815C25.3731 17.8815 26.6768 21.8697 24.6386 25.0381Z" fill="white" fill-opacity="0.8"/>
</svg>
