<svg width="18" height="18" viewBox="0 0 18 18" fill="none" xmlns="http://www.w3.org/2000/svg">
<path d="M16.0966 9.47175C16.0966 8.99148 16.0577 8.50861 15.9746 8.03613H9.31055V10.7568H13.1267C12.9684 11.6343 12.4596 12.4105 11.7145 12.9037V14.6691H13.9912C15.3282 13.4385 16.0966 11.6213 16.0966 9.47175Z" fill="#4285F4"/>
<path d="M9.3097 16.3744C11.2152 16.3744 12.8222 15.7488 13.993 14.6688L11.7162 12.9035C11.0828 13.3344 10.265 13.5785 9.31229 13.5785C7.4691 13.5785 5.90627 12.3349 5.34552 10.6631H2.99609V12.4829C4.19547 14.8687 6.63836 16.3744 9.3097 16.3744Z" fill="#34A853"/>
<path d="M5.34253 10.6631C5.04658 9.78564 5.04658 8.83548 5.34253 7.95802V6.13818H2.9957C1.99362 8.13455 1.99362 10.4866 2.9957 12.4829L5.34253 10.6631Z" fill="#FBBC04"/>
<path d="M9.3097 5.04008C10.317 5.0245 11.2905 5.40353 12.02 6.09927L14.0371 4.08214C12.7599 2.88276 11.0646 2.22336 9.3097 2.24413C6.63836 2.24413 4.19547 3.74984 2.99609 6.13821L5.34293 7.95804C5.90108 6.28359 7.4665 5.04008 9.3097 5.04008Z" fill="#EA4335"/>
</svg>
