<svg width="23" height="23" viewBox="0 0 23 23" fill="none" xmlns="http://www.w3.org/2000/svg">
<path d="M11.5098 9.13818C10.9947 9.13838 10.4912 9.29129 10.0631 9.57759C9.63488 9.8639 9.3012 10.2707 9.10423 10.7467C8.90725 11.2226 8.85581 11.7462 8.95641 12.2514C9.05702 12.7565 9.30515 13.2205 9.66943 13.5847C10.0337 13.9488 10.4978 14.1968 11.003 14.2972C11.5082 14.3976 12.0318 14.346 12.5077 14.1488C12.9835 13.9517 13.3902 13.6178 13.6764 13.1896C13.9625 12.7613 14.1152 12.2578 14.1152 11.7427C14.1147 11.0519 13.84 10.3896 13.3515 9.90125C12.8629 9.4129 12.2005 9.13844 11.5098 9.13818ZM17.5991 7.13623C17.4665 6.80022 17.2663 6.49503 17.0109 6.2396C16.7555 5.98418 16.4503 5.78396 16.1143 5.65137C15.0889 5.24658 12.6475 5.3374 11.5098 5.3374C10.3721 5.3374 7.93311 5.24316 6.90479 5.65137C6.56877 5.78396 6.26358 5.98418 6.00816 6.2396C5.75273 6.49503 5.55251 6.80022 5.41992 7.13623C5.01562 8.16162 5.10596 10.6055 5.10596 11.7422C5.10596 12.8789 5.01562 15.3198 5.42188 16.3486C5.55446 16.6846 5.75468 16.9898 6.01011 17.2453C6.26554 17.5007 6.57072 17.7009 6.90674 17.8335C7.93213 18.2383 10.3735 18.1475 11.5117 18.1475C12.6499 18.1475 15.0879 18.2417 16.1162 17.8335C16.4522 17.7009 16.7574 17.5007 17.0128 17.2453C17.2683 16.9898 17.4685 16.6846 17.6011 16.3486C18.0088 15.3232 17.915 12.8794 17.915 11.7427C17.915 10.606 18.0088 8.16553 17.6011 7.13672L17.5991 7.13623ZM11.5098 15.7466C10.7179 15.7466 9.94375 15.5118 9.28531 15.0718C8.62687 14.6318 8.11369 14.0065 7.81064 13.2749C7.50759 12.5433 7.4283 11.7382 7.58279 10.9616C7.73729 10.1849 8.11862 9.47144 8.67858 8.91149C9.23853 8.35153 9.95196 7.9702 10.7286 7.8157C11.5053 7.66121 12.3104 7.7405 13.042 8.04355C13.7736 8.3466 14.3989 8.85979 14.8389 9.51822C15.2788 10.1767 15.5137 10.9508 15.5137 11.7427C15.5143 12.2687 15.4112 12.7896 15.2102 13.2757C15.0092 13.7617 14.7143 14.2034 14.3424 14.5753C13.9705 14.9472 13.5288 15.2421 13.0428 15.4431C12.5567 15.6441 12.0357 15.7472 11.5098 15.7466ZM15.6787 8.50537C15.4938 8.50547 15.3131 8.45074 15.1594 8.3481C15.0056 8.24547 14.8857 8.09955 14.8149 7.92878C14.7441 7.75802 14.7255 7.5701 14.7616 7.38877C14.7976 7.20745 14.8865 7.04088 15.0172 6.91013C15.1479 6.77938 15.3144 6.69032 15.4957 6.65422C15.677 6.61812 15.865 6.6366 16.0358 6.70732C16.2066 6.77804 16.3525 6.89783 16.4553 7.05153C16.558 7.20523 16.6128 7.38594 16.6128 7.5708C16.6133 7.69356 16.5896 7.81522 16.543 7.92878C16.4964 8.04235 16.4278 8.14561 16.3412 8.23261C16.2546 8.31962 16.1517 8.38868 16.0383 8.43582C15.925 8.48296 15.8034 8.50726 15.6807 8.50732L15.6787 8.50537ZM20.1035 0.805176H2.91602C2.29441 0.805176 1.69827 1.05211 1.25873 1.49164C0.819196 1.93118 0.572266 2.52732 0.572266 3.14893L0.572266 20.3364C0.572266 20.958 0.819196 21.5542 1.25873 21.9937C1.69827 22.4332 2.29441 22.6802 2.91602 22.6802H20.1035C20.7251 22.6802 21.3213 22.4332 21.7608 21.9937C22.2003 21.5542 22.4473 20.958 22.4473 20.3364V3.14893C22.4473 2.52732 22.2003 1.93118 21.7608 1.49164C21.3213 1.05211 20.7251 0.805176 20.1035 0.805176ZM19.2676 14.9653C19.2046 16.2168 18.9189 17.3257 18.0054 18.2368C17.0918 19.1479 15.9839 19.4395 14.7339 19.499C13.4443 19.5718 9.57812 19.5718 8.28857 19.499C7.03711 19.436 5.93213 19.1499 5.01709 18.2368C4.10205 17.3237 3.81445 16.2144 3.75488 14.9653C3.68213 13.6753 3.68213 9.80859 3.75488 8.52002C3.81787 7.26855 4.1001 6.15967 5.01709 5.24854C5.93408 4.3374 7.04199 4.04932 8.28857 3.98975C9.57812 3.91699 13.4443 3.91699 14.7339 3.98975C15.9854 4.05273 17.0938 4.33887 18.0054 5.25195C18.917 6.16504 19.208 7.27441 19.2676 8.52588C19.3403 9.81104 19.3403 13.6743 19.2676 14.9653Z" fill="white"/>
</svg>
