<svg width="31" height="31" viewBox="0 0 31 31" fill="none" xmlns="http://www.w3.org/2000/svg">
<path d="M10.22 11.2858L15.0687 16.1345L19.9174 11.2858C20.033 11.1701 20.1704 11.0784 20.3216 11.0157C20.4727 10.9531 20.6347 10.9209 20.7984 10.9209C20.962 10.9209 21.124 10.9531 21.2752 11.0157C21.4263 11.0784 21.5637 11.1701 21.6794 11.2858C21.7951 11.4015 21.8868 11.5389 21.9494 11.69C22.0121 11.8412 22.0443 12.0032 22.0443 12.1668C22.0443 12.3304 22.0121 12.4925 21.9494 12.6436C21.8868 12.7948 21.7951 12.9321 21.6794 13.0478L15.9435 18.7837C15.8278 18.8996 15.6905 18.9915 15.5393 19.0542C15.3882 19.1169 15.2261 19.1492 15.0624 19.1492C14.8988 19.1492 14.7367 19.1169 14.5855 19.0542C14.4344 18.9915 14.2971 18.8996 14.1814 18.7837L8.44553 13.0478C8.32968 12.9322 8.23778 12.7949 8.17507 12.6437C8.11236 12.4926 8.08008 12.3305 8.08008 12.1668C8.08008 12.0032 8.11236 11.8411 8.17507 11.6899C8.23778 11.5388 8.32968 11.4014 8.44553 11.2858C8.9329 10.811 9.73268 10.7985 10.22 11.2858Z" fill="white" fill-opacity="0.32"/>
</svg>
