<svg width="67" height="67" viewBox="0 0 67 67" fill="none" xmlns="http://www.w3.org/2000/svg">
<g clip-path="url(#clip0_1_39702)">
<path fill-rule="evenodd" clip-rule="evenodd" d="M4.5894 33.787C4.5894 41.4044 7.61541 48.7099 13.0017 54.0962C18.3881 59.4825 25.6935 62.5085 33.3109 62.5085C40.9284 62.5085 48.2338 59.4825 53.6201 54.0962C59.0065 48.7099 62.0325 41.4044 62.0325 33.787C62.0325 26.1696 59.0065 18.8641 53.6201 13.4778C48.2338 8.09149 40.9284 5.06548 33.3109 5.06548C25.6935 5.06548 18.3881 8.09149 13.0017 13.4778C7.61541 18.8641 4.5894 26.1696 4.5894 33.787ZM66.1355 33.787C66.1355 42.4926 62.6772 50.8417 56.5214 56.9975C50.3656 63.1533 42.0166 66.6116 33.3109 66.6116C24.6053 66.6116 16.2562 63.1533 10.1004 56.9975C3.94463 50.8417 0.486328 42.4926 0.486328 33.787C0.486328 25.0814 3.94463 16.7323 10.1004 10.5765C16.2562 4.4207 24.6053 0.962402 33.3109 0.962402C42.0166 0.962402 50.3656 4.4207 56.5214 10.5765C62.6772 16.7323 66.1355 25.0814 66.1355 33.787ZM47.6717 31.7355C48.2158 31.7355 48.7376 31.9516 49.1224 32.3364C49.5071 32.7211 49.7232 33.2429 49.7232 33.787C49.7232 34.3311 49.5071 34.8529 49.1224 35.2377C48.7376 35.6224 48.2158 35.8385 47.6717 35.8385H23.9026L32.7119 44.6437C32.9026 44.8345 33.0539 45.0609 33.1572 45.3102C33.2604 45.5594 33.3135 45.8265 33.3135 46.0962C33.3135 46.366 33.2604 46.6331 33.1572 46.8823C33.0539 47.1315 32.9026 47.358 32.7119 47.5487C32.5211 47.7395 32.2947 47.8908 32.0455 47.994C31.7963 48.0972 31.5291 48.1504 31.2594 48.1504C30.9896 48.1504 30.7225 48.0972 30.4733 47.994C30.2241 47.8908 29.9976 47.7395 29.8069 47.5487L17.4977 35.2395C17.3066 35.0489 17.155 34.8225 17.0516 34.5733C16.9482 34.3241 16.895 34.0569 16.895 33.787C16.895 33.5172 16.9482 33.25 17.0516 33.0007C17.155 32.7515 17.3066 32.5251 17.4977 32.3345L29.8069 20.0253C30.1921 19.6401 30.7146 19.4236 31.2594 19.4236C31.8042 19.4236 32.3267 19.6401 32.7119 20.0253C33.0971 20.4105 33.3135 20.933 33.3135 21.4778C33.3135 22.0226 33.0971 22.545 32.7119 22.9303L23.9026 31.7355H47.6717Z" fill="white"/>
</g>
<defs>
<clipPath id="clip0_1_39702">
<rect width="65.6492" height="65.6492" fill="white" transform="translate(0.486328 0.962402)"/>
</clipPath>
</defs>
</svg>
