<svg width="26" height="26" viewBox="0 0 26 26" fill="none" xmlns="http://www.w3.org/2000/svg">
<mask id="mask0_10966_153" style="mask-type:alpha" maskUnits="userSpaceOnUse" x="0" y="0" width="26" height="26">
<path d="M21.9828 2.32666H4.11481C3.29608 2.32666 2.63086 3.00119 2.63086 3.82922V21.6646C2.63086 22.4926 3.29608 23.1672 4.11481 23.1672H21.9828C22.8015 23.1672 23.4714 22.4926 23.4714 21.6646V3.82922C23.4714 3.00119 22.8015 2.32666 21.9828 2.32666ZM8.92953 20.1899H5.84067V10.2442H8.93418V20.1899H8.92953ZM7.3851 8.88583C6.39424 8.88583 5.59412 8.08106 5.59412 7.09485C5.59412 6.10865 6.39424 5.30387 7.3851 5.30387C8.3713 5.30387 9.17608 6.10865 9.17608 7.09485C9.17608 8.08571 8.37595 8.88583 7.3851 8.88583ZM20.5081 20.1899H17.4192V15.352C17.4192 14.1983 17.396 12.7143 15.8143 12.7143C14.2048 12.7143 13.9582 13.9704 13.9582 15.2682V20.1899H10.8694V10.2442H13.8326V11.6025H13.8745C14.2885 10.821 15.298 9.99764 16.8005 9.99764C19.9266 9.99764 20.5081 12.0584 20.5081 14.7379V20.1899Z" fill="white"/>
</mask>
<g mask="url(#mask0_10966_153)">
<rect x="0.546875" y="0.242676" width="25.0086" height="25.0086" fill="white"/>
</g>
</svg>
