<svg width="32" height="32" viewBox="0 0 32 32" fill="none" xmlns="http://www.w3.org/2000/svg">
<path fill-rule="evenodd" clip-rule="evenodd" d="M3.99935 29.3337H27.9993C28.7353 29.3337 29.3327 28.7363 29.3327 28.0003C29.3327 27.2643 28.7353 26.667 27.9993 26.667H3.99935C3.26335 26.667 2.66602 27.2643 2.66602 28.0003C2.66602 28.7363 3.26335 29.3337 3.99935 29.3337ZM9.33268 14.667H8.48735C6.74468 14.667 5.33268 13.255 5.33268 11.5123C5.33268 11.511 5.33268 11.511 5.33268 11.5097C5.33268 10.5497 5.79535 9.64966 6.57668 9.09233C8.73135 7.55366 15.2247 2.91499 15.2247 2.91499C15.6873 2.58433 16.3113 2.58433 16.774 2.91499C16.774 2.91499 23.2673 7.55366 25.422 9.09233C26.2033 9.64966 26.666 10.5497 26.666 11.5097V11.5123C26.666 13.255 25.254 14.667 23.5114 14.667H22.666V21.3337H25.3327C26.0687 21.3337 26.666 21.931 26.666 22.667C26.666 23.403 26.0687 24.0003 25.3327 24.0003H6.66602C5.93002 24.0003 5.33268 23.403 5.33268 22.667C5.33268 21.931 5.93002 21.3337 6.66602 21.3337H9.33268V14.667ZM11.9993 14.667V21.3337H14.666V14.667H11.9993ZM17.3327 14.667V21.3337H19.9993V14.667H17.3327ZM15.9993 5.63899L8.12602 11.2617C8.04735 11.319 7.99935 11.411 7.99935 11.5097V11.5123C7.99935 11.7817 8.21802 12.0003 8.48735 12.0003H23.5114C23.7807 12.0003 23.9993 11.7817 23.9993 11.5123V11.5097C23.9993 11.411 23.9514 11.319 23.8727 11.2617L15.9993 5.63899Z" fill="white"/>
</svg>
