<svg width="60" height="61" viewBox="0 0 60 61" fill="none" xmlns="http://www.w3.org/2000/svg">
<path d="M15 7.51221C15 9.50133 14.2098 11.409 12.8033 12.8155C11.3968 14.222 9.48912 15.0122 7.5 15.0122C5.51088 15.0122 3.60322 14.222 2.1967 12.8155C0.790176 11.409 0 9.50133 0 7.51221C0 5.52308 0.790176 3.61543 2.1967 2.20891C3.60322 0.802383 5.51088 0.012207 7.5 0.012207C9.48912 0.012207 11.3968 0.802383 12.8033 2.20891C14.2098 3.61543 15 5.52308 15 7.51221ZM15 30.0122C15 32.0013 14.2098 33.909 12.8033 35.3155C11.3968 36.722 9.48912 37.5122 7.5 37.5122C5.51088 37.5122 3.60322 36.722 2.1967 35.3155C0.790176 33.909 0 32.0013 0 30.0122C0 28.0231 0.790176 26.1154 2.1967 24.7089C3.60322 23.3024 5.51088 22.5122 7.5 22.5122C9.48912 22.5122 11.3968 23.3024 12.8033 24.7089C14.2098 26.1154 15 28.0231 15 30.0122ZM7.5 60.0122C9.48912 60.0122 11.3968 59.222 12.8033 57.8155C14.2098 56.409 15 54.5013 15 52.5122C15 50.5231 14.2098 48.6154 12.8033 47.2089C11.3968 45.8024 9.48912 45.0122 7.5 45.0122C5.51088 45.0122 3.60322 45.8024 2.1967 47.2089C0.790176 48.6154 0 50.5231 0 52.5122C0 54.5013 0.790176 56.409 2.1967 57.8155C3.60322 59.222 5.51088 60.0122 7.5 60.0122ZM37.5 7.51221C37.5 9.50133 36.7098 11.409 35.3033 12.8155C33.8968 14.222 31.9891 15.0122 30 15.0122C28.0109 15.0122 26.1032 14.222 24.6967 12.8155C23.2902 11.409 22.5 9.50133 22.5 7.51221C22.5 5.52308 23.2902 3.61543 24.6967 2.20891C26.1032 0.802383 28.0109 0.012207 30 0.012207C31.9891 0.012207 33.8968 0.802383 35.3033 2.20891C36.7098 3.61543 37.5 5.52308 37.5 7.51221ZM30 37.5122C31.9891 37.5122 33.8968 36.722 35.3033 35.3155C36.7098 33.909 37.5 32.0013 37.5 30.0122C37.5 28.0231 36.7098 26.1154 35.3033 24.7089C33.8968 23.3024 31.9891 22.5122 30 22.5122C28.0109 22.5122 26.1032 23.3024 24.6967 24.7089C23.2902 26.1154 22.5 28.0231 22.5 30.0122C22.5 32.0013 23.2902 33.909 24.6967 35.3155C26.1032 36.722 28.0109 37.5122 30 37.5122ZM37.5 52.5122C37.5 54.5013 36.7098 56.409 35.3033 57.8155C33.8968 59.222 31.9891 60.0122 30 60.0122C28.0109 60.0122 26.1032 59.222 24.6967 57.8155C23.2902 56.409 22.5 54.5013 22.5 52.5122C22.5 50.5231 23.2902 48.6154 24.6967 47.2089C26.1032 45.8024 28.0109 45.0122 30 45.0122C31.9891 45.0122 33.8968 45.8024 35.3033 47.2089C36.7098 48.6154 37.5 50.5231 37.5 52.5122ZM52.5 15.0122C54.4891 15.0122 56.3968 14.222 57.8033 12.8155C59.2098 11.409 60 9.50133 60 7.51221C60 5.52308 59.2098 3.61543 57.8033 2.20891C56.3968 0.802383 54.4891 0.012207 52.5 0.012207C50.5109 0.012207 48.6032 0.802383 47.1967 2.20891C45.7902 3.61543 45 5.52308 45 7.51221C45 9.50133 45.7902 11.409 47.1967 12.8155C48.6032 14.222 50.5109 15.0122 52.5 15.0122ZM60 30.0122C60 32.0013 59.2098 33.909 57.8033 35.3155C56.3968 36.722 54.4891 37.5122 52.5 37.5122C50.5109 37.5122 48.6032 36.722 47.1967 35.3155C45.7902 33.909 45 32.0013 45 30.0122C45 28.0231 45.7902 26.1154 47.1967 24.7089C48.6032 23.3024 50.5109 22.5122 52.5 22.5122C54.4891 22.5122 56.3968 23.3024 57.8033 24.7089C59.2098 26.1154 60 28.0231 60 30.0122ZM52.5 60.0122C54.4891 60.0122 56.3968 59.222 57.8033 57.8155C59.2098 56.409 60 54.5013 60 52.5122C60 50.5231 59.2098 48.6154 57.8033 47.2089C56.3968 45.8024 54.4891 45.0122 52.5 45.0122C50.5109 45.0122 48.6032 45.8024 47.1967 47.2089C45.7902 48.6154 45 50.5231 45 52.5122C45 54.5013 45.7902 56.409 47.1967 57.8155C48.6032 59.222 50.5109 60.0122 52.5 60.0122Z" fill="white"/>
</svg>
