<svg width="290" height="289" viewBox="0 0 290 289" fill="none" xmlns="http://www.w3.org/2000/svg">
<path d="M205.854 148.201C205.854 116.144 179.866 90.1567 147.81 90.1567C115.753 90.1567 89.7656 116.144 89.7656 148.201" stroke="#423A6B" stroke-width="2.16987"/>
<path d="M89.7656 148.201C89.7656 133.736 95.1665 119.792 104.91 109.102C114.654 98.4108 128.038 91.7434 142.441 90.4055" stroke="#6647BF" stroke-width="14.1041" stroke-linecap="round"/>
<path d="M234.647 148.201C234.647 100.24 195.767 61.3607 147.807 61.3607C99.8464 61.3607 60.9668 100.24 60.9668 148.201" stroke="#423A6B" stroke-width="2.16987"/>
<path d="M60.9668 148.201C60.9668 131.025 66.0599 114.236 75.602 99.9549C85.1441 85.6741 98.7066 74.5436 114.575 67.9709C130.442 61.3982 147.903 59.6785 164.748 63.0292C181.594 66.3799 197.067 74.6506 209.212 86.7954" stroke="#4A8CDA" stroke-width="14.1041" stroke-linecap="round"/>
<path d="M260.777 148.201C260.777 85.8097 210.2 35.2319 147.809 35.2319C85.4177 35.2319 34.8398 85.8097 34.8398 148.201" stroke="#423A6B" stroke-width="2.16987"/>
<path d="M34.8398 148.201C34.8398 129.749 39.3595 111.578 48.0036 95.2771C56.6478 78.9756 69.1533 65.0397 84.4271 54.6874C99.7009 44.3351 117.278 37.8816 135.622 35.8911C153.966 33.9006 172.518 36.4336 189.657 43.2688" stroke="#71B945" stroke-width="14.1041" stroke-linecap="round"/>
<path d="M288.309 148.201C288.309 70.6052 225.405 7.70165 147.81 7.70165C70.2141 7.70166 7.31054 70.6052 7.31055 148.201" stroke="#423A6B" stroke-width="2.16987"/>
<path d="M7.31054 148.201C7.31054 115.001 19.067 82.8744 40.4953 57.5164C61.9237 32.1585 91.6394 15.2078 124.374 9.67004C157.108 4.13224 190.746 10.3651 219.323 27.2634C247.9 44.1617 269.57 70.6337 280.49 101.986" stroke="#EB8153" stroke-width="14.1041" stroke-linecap="round"/>
</svg>
