<svg width="20" height="20" viewBox="0 0 20 20" fill="none" xmlns="http://www.w3.org/2000/svg">
<path d="M10 6.875C9.38193 6.875 8.77774 7.05828 8.26384 7.40166C7.74994 7.74504 7.3494 8.23309 7.11288 8.80411C6.87635 9.37513 6.81447 10.0035 6.93505 10.6097C7.05563 11.2158 7.35325 11.7727 7.79029 12.2097C8.22733 12.6467 8.78415 12.9444 9.39034 13.0649C9.99653 13.1855 10.6249 13.1236 11.1959 12.8871C11.7669 12.6506 12.255 12.2501 12.5983 11.7361C12.9417 11.2222 13.125 10.6181 13.125 9.99999C13.124 9.17149 12.7945 8.37721 12.2086 7.79137C11.6228 7.20553 10.8285 6.87598 10 6.875ZM10 11.875C9.62916 11.875 9.26664 11.765 8.9583 11.559C8.64996 11.353 8.40964 11.0601 8.26772 10.7175C8.12581 10.3749 8.08868 9.99791 8.16103 9.6342C8.23337 9.27049 8.41195 8.93639 8.67417 8.67417C8.9364 8.41195 9.27049 8.23337 9.6342 8.16103C9.99792 8.08868 10.3749 8.12581 10.7175 8.26772C11.0601 8.40964 11.353 8.64996 11.559 8.9583C11.765 9.26664 11.875 9.62915 11.875 9.99999C11.8744 10.4971 11.6767 10.9737 11.3252 11.3252C10.9737 11.6767 10.4971 11.8744 10 11.875Z" fill="white"/>
<path d="M3.91996 6.11425C3.61263 5.99878 3.27244 6.0074 2.97135 6.13827C2.67027 6.26914 2.4319 6.512 2.30667 6.81548C2.18144 7.11896 2.17917 7.45925 2.30035 7.76437C2.42152 8.06949 2.65664 8.3155 2.95596 8.45037C3.26046 8.57917 3.52027 8.79482 3.70293 9.07041C3.88558 9.34599 3.983 9.66928 3.983 9.9999C3.983 10.3305 3.88558 10.6538 3.70293 10.9294C3.52027 11.205 3.26046 11.4206 2.95596 11.5494C2.65657 11.6843 2.4214 11.9304 2.3002 12.2355C2.17901 12.5407 2.1813 12.8811 2.3066 13.1846C2.43189 13.4881 2.67036 13.731 2.97154 13.8618C3.27272 13.9926 3.61299 14.0012 3.92033 13.8856C4.22703 13.7607 4.56376 13.729 4.88835 13.7946C5.21294 13.8602 5.51096 14.0202 5.74506 14.2544C5.97917 14.4886 6.13896 14.7867 6.20441 15.1113C6.26986 15.436 6.23807 15.7727 6.11302 16.0793C5.99382 16.3875 6.00122 16.7302 6.13361 17.033C6.266 17.3357 6.51265 17.5738 6.81983 17.6955C6.97367 17.7592 7.13853 17.7919 7.30502 17.7919C7.54825 17.7936 7.78656 17.7235 7.99009 17.5903C8.19363 17.4572 8.35332 17.2669 8.44915 17.0433C8.57794 16.7388 8.7936 16.479 9.06918 16.2963C9.34476 16.1137 9.66806 16.0163 9.99868 16.0163C10.3293 16.0163 10.6526 16.1137 10.9282 16.2963C11.2038 16.479 11.4194 16.7388 11.5482 17.0433C11.6831 17.3427 11.9291 17.5779 12.2343 17.6991C12.5395 17.8203 12.8799 17.818 13.1834 17.6927C13.4869 17.5674 13.7298 17.3289 13.8606 17.0277C13.9914 16.7265 13.9999 16.3863 13.8843 16.0789C13.7594 15.7722 13.7278 15.4355 13.7934 15.1109C13.859 14.7863 14.019 14.4883 14.2532 14.2542C14.4874 14.0201 14.7855 13.8603 15.1101 13.7949C15.4347 13.7294 15.7714 13.7612 16.0781 13.8862C16.3843 14.0051 16.725 13.9988 17.0266 13.8685C17.3281 13.7382 17.5663 13.4946 17.6897 13.1901L17.1166 12.9411L16.5478 12.7281C16.0137 12.5099 15.4269 12.4545 14.8613 12.5688C14.2957 12.6832 13.7766 12.9622 13.3691 13.3708C12.962 13.7812 12.6823 14.3006 12.5637 14.8664C12.4451 15.4322 12.4927 16.0202 12.7008 16.5596C12.4778 16.0273 12.1023 15.5729 11.6215 15.2537C11.1407 14.9345 10.5762 14.7648 9.99908 14.766C9.42073 14.7678 8.85528 14.9372 8.37118 15.2536C7.88708 15.5701 7.50508 16.0201 7.2714 16.5491C7.48948 16.0149 7.54483 15.4282 7.43048 14.8626C7.31613 14.2971 7.03719 13.7779 6.62871 13.3704C6.21827 12.9634 5.69886 12.6837 5.13309 12.5651C4.56731 12.4465 3.97932 12.4941 3.43996 12.7021C3.97224 12.479 4.42657 12.1034 4.74569 11.6226C5.06481 11.1417 5.23442 10.5772 5.23315 10.0001C5.23135 9.4217 5.06198 8.85626 4.74552 8.37216C4.42905 7.88806 3.97907 7.50605 3.45002 7.27237C3.98419 7.49059 4.57096 7.54601 5.13654 7.43165C5.70212 7.3173 6.22127 7.03828 6.62871 6.62968C7.03583 6.21928 7.31555 5.69987 7.43414 5.13408C7.55273 4.5683 7.50513 3.98028 7.29708 3.44094C7.5201 3.97321 7.89571 4.42755 8.37656 4.74667C8.85741 5.06579 9.42198 5.2354 9.99908 5.23412C10.5774 5.23233 11.1429 5.06295 11.627 4.74649C12.1111 4.43003 12.4931 3.98005 12.7268 3.451C12.5087 3.98519 12.4533 4.57192 12.5677 5.13748C12.682 5.70303 12.961 6.22217 13.3695 6.62968C13.78 7.0366 14.2994 7.31617 14.8651 7.43475C15.4309 7.55333 16.0188 7.50586 16.5582 7.29806C16.0285 7.5206 15.576 7.89413 15.2571 8.37208C14.9383 8.85003 14.7671 9.41127 14.765 9.98582C14.763 10.5604 14.93 11.1228 15.2454 11.6031C15.5608 12.0833 16.0106 12.4601 16.5387 12.6865C16.5404 12.6916 16.5404 12.6972 16.5387 12.7024L17.1164 12.9407L17.6907 13.187L17.6941 13.1791C17.8217 12.8764 17.8248 12.5356 17.7028 12.2307C17.5807 11.9257 17.3434 11.6812 17.0422 11.5501C16.7377 11.4213 16.4779 11.2056 16.2952 10.93C16.1126 10.6544 16.0152 10.3311 16.0152 10.0005C16.0152 9.66991 16.1126 9.34661 16.2952 9.07103C16.4779 8.79545 16.7377 8.57979 17.0422 8.451C17.3416 8.31613 17.5768 8.07007 17.698 7.76489C17.8192 7.4597 17.8169 7.11934 17.6916 6.81582C17.5663 6.5123 17.3278 6.26943 17.0266 6.13861C16.7254 6.00779 16.3852 5.99928 16.0778 6.11487C15.7711 6.23978 15.4344 6.2714 15.1098 6.20579C14.7852 6.14018 14.4872 5.98025 14.2531 5.74603C14.019 5.51181 13.8592 5.21372 13.7938 4.8891C13.7283 4.56448 13.7601 4.22776 13.8851 3.92112C14.0007 3.61379 13.9922 3.27356 13.8613 2.97241C13.7305 2.67127 13.4876 2.43284 13.1841 2.30757C12.8806 2.18231 12.5403 2.18003 12.2351 2.30122C11.93 2.42241 11.6839 2.65757 11.5491 2.95693C11.4203 3.26144 11.2046 3.52124 10.929 3.7039C10.6535 3.88656 10.3302 3.98397 9.99955 3.98397C9.66893 3.98397 9.34564 3.88656 9.07006 3.7039C8.79447 3.52124 8.57882 3.26144 8.45002 2.95693C8.31515 2.65755 8.06909 2.42237 7.76391 2.30118C7.45873 2.17998 7.11837 2.18228 6.81485 2.30757C6.51132 2.43287 6.26846 2.67134 6.13763 2.97252C6.00681 3.2737 5.9983 3.61396 6.1139 3.92131C6.2388 4.22801 6.27043 4.56474 6.20482 4.88933C6.13921 5.21392 5.97927 5.51193 5.74505 5.74604C5.51084 5.98015 5.21275 6.13993 4.88812 6.20539C4.5635 6.27084 4.22678 6.23905 3.92015 6.114L3.91996 6.11425Z" fill="white"/>
</svg>
