<svg width="32" height="32" viewBox="0 0 32 32" fill="none" xmlns="http://www.w3.org/2000/svg">
<path fill-rule="evenodd" clip-rule="evenodd" d="M18.802 23.4948C21.8366 22.3588 24.0007 19.4295 24.0007 16.0002C24.0007 13.7922 23.1033 11.7922 21.6553 10.3442C21.1353 9.82415 21.1353 8.97884 21.6553 8.45884C22.1767 7.93884 23.0206 7.93884 23.542 8.45884C25.4726 10.3895 26.6673 13.0562 26.6673 16.0002C26.6673 20.6442 23.6927 24.5988 19.546 26.0615L20.7607 26.9042C21.3647 27.3242 21.5153 28.1548 21.0953 28.7602C20.6767 29.3642 19.8447 29.5148 19.2407 29.0948L15.2407 26.3202C14.638 25.9028 14.486 25.0762 14.9007 24.4708L17.5673 20.5802C17.9833 19.9722 18.814 19.8175 19.4206 20.2335C20.0273 20.6495 20.182 21.4802 19.766 22.0868L18.802 23.4948ZM12.486 5.92683L11.2607 5.10949C10.6487 4.70149 10.482 3.87216 10.89 3.26016C11.2993 2.64816 12.1273 2.48282 12.7393 2.89082L16.7393 5.55749C17.3527 5.96549 17.518 6.7935 17.11 7.40683L14.4433 11.4068C14.034 12.0188 13.206 12.1842 12.594 11.7762C11.982 11.3682 11.8153 10.5388 12.2233 9.92683L13.1633 8.51883C10.146 9.66417 8.00065 12.5828 8.00065 16.0002C8.00065 18.2082 8.89665 20.2068 10.3447 21.6562C10.8647 22.1762 10.8647 23.0202 10.3447 23.5415C9.82465 24.0615 8.97932 24.0615 8.45932 23.5415C6.52865 21.6108 5.33398 18.9442 5.33398 16.0002C5.33398 11.3442 8.32332 7.38017 12.486 5.92683Z" fill="white"/>
</svg>
