<svg width="31" height="31" viewBox="0 0 31 31" fill="none" xmlns="http://www.w3.org/2000/svg">
<path d="M13.868 4.40654V26.4504C13.868 27.2502 13.1307 27.85 12.3559 27.6751C6.76994 26.4254 2.62109 21.4143 2.62109 15.4285C2.62109 9.44264 6.76994 4.43153 12.3559 3.18188C13.1307 3.00693 13.868 3.60676 13.868 4.40654ZM16.4048 4.40654V12.9167C16.4048 13.604 16.9671 14.1663 17.6544 14.1663H26.1396C26.9393 14.1663 27.5392 13.429 27.3642 12.6418C26.302 7.94306 22.6155 4.24409 17.9293 3.18188C17.1421 3.00693 16.4048 3.60676 16.4048 4.40654ZM16.4048 17.9403V26.4504C16.4048 27.2502 17.1421 27.85 17.9293 27.6751C22.628 26.6129 26.3145 22.9014 27.3767 18.2027C27.5517 17.4279 26.9393 16.6781 26.1521 16.6781H17.6669C16.9671 16.6906 16.4048 17.253 16.4048 17.9403Z" fill="white" fill-opacity="0.32"/>
</svg>
