<svg width="26" height="26" viewBox="0 0 26 26" fill="none" xmlns="http://www.w3.org/2000/svg">
<path d="M12.9753 2.32593C7.22526 2.32593 2.55859 6.99259 2.55859 12.7426C2.55859 18.4926 7.22526 23.1593 12.9753 23.1593C18.7253 23.1593 23.3919 18.4926 23.3919 12.7426C23.3919 6.99259 18.7253 2.32593 12.9753 2.32593ZM17.8086 9.40926C17.6523 11.0551 16.9753 15.0551 16.6315 16.8988C16.4857 17.6801 16.194 17.9405 15.9232 17.9718C15.319 18.0238 14.8607 17.5759 14.2773 17.1905C13.3607 16.5863 12.8398 16.2113 11.9544 15.628C10.9232 14.9509 11.5898 14.5759 12.1836 13.9718C12.3398 13.8155 15.0065 11.3884 15.0586 11.1697C15.0658 11.1365 15.0649 11.1021 15.0558 11.0695C15.0467 11.0368 15.0298 11.0068 15.0065 10.9822C14.944 10.9301 14.8607 10.9509 14.7878 10.9613C14.694 10.9822 13.2357 11.9509 10.3919 13.8676C9.97526 14.1488 9.60026 14.2947 9.26693 14.2843C8.89193 14.2738 8.18359 14.0759 7.65234 13.8988C6.99609 13.6905 6.48568 13.5759 6.52734 13.2113C6.54818 13.0238 6.80859 12.8363 7.29818 12.6384C10.3398 11.3155 12.3607 10.4405 13.3711 10.0238C16.2669 8.81551 16.8607 8.60718 17.2565 8.60718C17.3398 8.60718 17.5378 8.62801 17.6628 8.73218C17.7669 8.81551 17.7982 8.9301 17.8086 9.01343C17.7982 9.07593 17.819 9.26343 17.8086 9.40926Z" fill="white"/>
</svg>
