<svg width="41" height="41" viewBox="0 0 41 41" fill="none" xmlns="http://www.w3.org/2000/svg">
<rect x="0.988281" y="0.80957" width="39.9889" height="39.9889" rx="19.9945" fill="#FF007A"/>
<path fill-rule="evenodd" clip-rule="evenodd" d="M17.6696 11.9243C17.3829 11.8833 17.3693 11.8697 17.5058 11.856C17.7651 11.8151 18.3657 11.8697 18.7888 11.9652C19.7716 12.1973 20.6588 12.7979 21.6006 13.8489L21.8463 14.1355L22.2012 14.0809C23.7163 13.8352 25.2724 14.0263 26.5691 14.6269C26.924 14.7907 27.4836 15.1183 27.5518 15.2002C27.5791 15.2275 27.6201 15.4049 27.6474 15.5824C27.7429 16.2239 27.702 16.7016 27.4972 17.0702C27.388 17.2749 27.388 17.3295 27.4563 17.507C27.5109 17.6434 27.6747 17.739 27.8248 17.739C28.1524 17.739 28.4937 17.2203 28.6575 16.4969L28.7257 16.2102L28.8485 16.3467C29.5447 17.1248 30.0907 18.2031 30.1726 18.9675L30.1999 19.1722L30.077 18.9948C29.8723 18.6808 29.6812 18.4761 29.4218 18.2986C28.9577 17.9847 28.4664 17.8891 27.1697 17.8209C25.9958 17.7526 25.327 17.6571 24.6718 17.4387C23.5525 17.0702 22.9792 16.5924 21.6552 14.8316C21.0683 14.0536 20.6998 13.6305 20.3312 13.2756C19.5259 12.4976 18.7206 12.0881 17.6696 11.9243Z" fill="white"/>
<path fill-rule="evenodd" clip-rule="evenodd" d="M27.8376 13.6579C27.8649 13.1392 27.9332 12.7979 28.0833 12.484C28.1379 12.3611 28.1925 12.252 28.2062 12.252C28.2198 12.252 28.1925 12.3475 28.1516 12.4567C28.0424 12.757 28.0287 13.1801 28.097 13.6579C28.1925 14.2721 28.2335 14.354 28.8886 15.0228C29.1889 15.3368 29.5438 15.7326 29.6803 15.8964L29.9124 16.1967L29.6803 15.9783C29.3937 15.7053 28.7385 15.1866 28.5883 15.1184C28.4928 15.0638 28.4792 15.0638 28.4109 15.132C28.3563 15.1866 28.3427 15.2685 28.3427 15.6643C28.329 16.2786 28.2471 16.6608 28.0424 17.0566C27.9332 17.2613 27.9195 17.2204 28.0151 16.9883C28.0833 16.8109 28.097 16.729 28.097 16.1421C28.097 14.9546 27.9605 14.6679 27.1278 14.1902C26.9231 14.0673 26.5682 13.8899 26.3635 13.7944C26.1451 13.6988 25.9813 13.6169 25.9949 13.6169C26.0222 13.5896 26.8276 13.8217 27.1415 13.9581C27.6192 14.1492 27.7011 14.1629 27.7557 14.1492C27.7967 14.1083 27.824 13.9991 27.8376 13.6579Z" fill="white"/>
<path fill-rule="evenodd" clip-rule="evenodd" d="M18.2307 15.6915C17.6574 14.8998 17.2888 13.6714 17.3707 12.7569L17.398 12.4702L17.5345 12.4975C17.7802 12.5385 18.2034 12.7023 18.4081 12.8251C18.9541 13.1527 19.1998 13.6031 19.4318 14.7224C19.5001 15.05 19.5956 15.4322 19.6366 15.555C19.7048 15.7598 19.9641 16.2375 20.1825 16.5378C20.3327 16.7562 20.2371 16.8654 19.8959 16.8381C19.3772 16.7835 18.6811 16.3057 18.2307 15.6915Z" fill="white"/>
<path fill-rule="evenodd" clip-rule="evenodd" d="M27.1425 21.6291C24.4398 20.5371 23.4844 19.5953 23.4844 17.9983C23.4844 17.7663 23.498 17.5752 23.498 17.5752C23.5117 17.5752 23.6072 17.6571 23.7301 17.7526C24.276 18.1894 24.8903 18.3805 26.5965 18.6262C27.5929 18.7764 28.1662 18.8856 28.6849 19.063C30.3364 19.609 31.3602 20.7282 31.6059 22.2433C31.6741 22.6801 31.6332 23.5127 31.524 23.9495C31.4284 24.2908 31.1554 24.9187 31.0872 24.9323C31.0735 24.9323 31.0462 24.8641 31.0462 24.7549C31.0189 24.1816 30.7323 23.6356 30.2546 23.2125C29.6813 22.7211 28.9442 22.3525 27.1425 21.6291Z" fill="white"/>
<path fill-rule="evenodd" clip-rule="evenodd" d="M25.23 22.0798C25.2028 21.875 25.1345 21.6157 25.0936 21.5065L25.0253 21.3018L25.1482 21.4519C25.3256 21.6566 25.4621 21.9023 25.5849 22.2436C25.6805 22.5029 25.6805 22.5848 25.6805 23.008C25.6805 23.4174 25.6668 23.513 25.5849 23.745C25.4484 24.1136 25.2846 24.3729 25.0117 24.6595C24.5203 25.1646 23.8787 25.4376 22.9642 25.5604C22.8004 25.5741 22.3363 25.615 21.9269 25.6423C20.9031 25.6969 20.2207 25.8061 19.6064 26.0245C19.5245 26.0518 19.4426 26.0791 19.429 26.0654C19.4017 26.0381 19.8248 25.7925 20.1661 25.6287C20.6438 25.3966 21.1352 25.2738 22.2135 25.0827C22.7458 25.0008 23.2918 24.8916 23.4283 24.837C24.7796 24.4139 25.4484 23.3628 25.23 22.0798Z" fill="white"/>
<path fill-rule="evenodd" clip-rule="evenodd" d="M26.4749 24.2769C26.12 23.4989 26.0381 22.7618 26.2292 22.0657C26.2565 21.9974 26.2838 21.9292 26.3111 21.9292C26.3384 21.9292 26.4203 21.9701 26.5022 22.0247C26.666 22.1339 27.0073 22.325 27.8808 22.8028C28.9864 23.4034 29.6143 23.8674 30.0511 24.3998C30.4333 24.8639 30.6653 25.3962 30.7745 26.0514C30.8428 26.4199 30.8018 27.3071 30.7063 27.6757C30.406 28.8359 29.7235 29.764 28.7271 30.2964C28.577 30.3783 28.4541 30.4329 28.4405 30.4329C28.4268 30.4329 28.4814 30.2964 28.5633 30.1326C28.8909 29.4364 28.9318 28.7676 28.6861 28.0169C28.536 27.5528 28.2221 26.9932 27.5942 26.0514C26.8435 24.9594 26.666 24.6728 26.4749 24.2769Z" fill="white"/>
<path fill-rule="evenodd" clip-rule="evenodd" d="M16.3062 28.4543C17.3162 27.608 18.5583 27.0074 19.7049 26.8163C20.1963 26.7344 21.0153 26.7617 21.4657 26.8846C22.1891 27.0757 22.8443 27.4852 23.1855 27.9902C23.5131 28.4816 23.6633 28.9047 23.8134 29.8465C23.868 30.2151 23.9363 30.5973 23.9499 30.6792C24.0591 31.1705 24.2775 31.5527 24.5505 31.7575C24.9736 32.0714 25.7107 32.0851 26.4341 31.8121C26.557 31.7711 26.6662 31.7302 26.6662 31.7438C26.6935 31.7711 26.3249 32.0168 26.0792 32.1397C25.738 32.3171 25.465 32.3717 25.0965 32.3717C24.4413 32.3717 23.8817 32.0305 23.4312 31.348C23.3357 31.2115 23.1446 30.8157 22.9808 30.4471C22.5031 29.3415 22.2574 29.0139 21.6977 28.6454C21.2064 28.3314 20.5785 28.2632 20.1007 28.4952C19.4729 28.7955 19.3091 29.6009 19.7459 30.0922C19.9233 30.297 20.2509 30.4608 20.5239 30.5017C21.0289 30.57 21.4657 30.1741 21.4657 29.6691C21.4657 29.3415 21.3429 29.1504 21.0153 29.0003C20.5785 28.8092 20.1007 29.0276 20.1144 29.4507C20.1144 29.6282 20.1963 29.7373 20.3737 29.8192C20.4829 29.8738 20.4829 29.8738 20.401 29.8602C20.0052 29.7783 19.9097 29.2869 20.2236 28.973C20.6058 28.5908 21.4111 28.7546 21.6841 29.2869C21.7933 29.5053 21.8069 29.9421 21.7114 30.2151C21.4794 30.8157 20.8242 31.1296 20.1553 30.9522C19.7049 30.8293 19.5138 30.7065 18.9678 30.1468C18.0124 29.1641 17.6438 28.973 16.2789 28.7682L16.0195 28.7273L16.3062 28.4543Z" fill="white"/>
<path fill-rule="evenodd" clip-rule="evenodd" d="M9.12485 6.49172C12.3052 10.3545 17.2054 16.3603 17.4511 16.6879C17.6558 16.9609 17.5739 17.2203 17.2327 17.4114C17.0416 17.5205 16.6457 17.6297 16.4547 17.6297C16.2363 17.6297 15.9769 17.5205 15.7995 17.3431C15.6766 17.2203 15.1443 16.4422 13.9431 14.5722C13.0286 13.139 12.2506 11.9515 12.2369 11.9379C12.1823 11.9106 12.1823 11.9106 13.8476 14.8862C14.8986 16.7562 15.2398 17.425 15.2398 17.5069C15.2398 17.6843 15.1852 17.7799 14.9669 18.0256C14.5983 18.4351 14.4345 18.8992 14.3117 19.8683C14.1752 20.9466 13.8066 21.711 12.7556 23.0077C12.1414 23.772 12.0459 23.9085 11.8957 24.2225C11.7046 24.6047 11.65 24.8231 11.6227 25.3144C11.5954 25.8331 11.65 26.1607 11.8002 26.6521C11.9367 27.0889 12.0868 27.3755 12.4553 27.9352C12.7693 28.4265 12.9604 28.7951 12.9604 28.9316C12.9604 29.0408 12.9877 29.0408 13.4791 28.9316C14.6529 28.6586 15.622 28.1945 16.1544 27.6212C16.482 27.2663 16.5639 27.0752 16.5639 26.5838C16.5639 26.2699 16.5502 26.2017 16.4683 26.0106C16.3318 25.7103 16.0725 25.4646 15.5128 25.0824C14.7758 24.5774 14.4618 24.1679 14.3799 23.6219C14.3117 23.1578 14.3936 22.8439 14.8031 21.984C15.2262 21.0967 15.3354 20.7282 15.4036 19.8273C15.4446 19.254 15.5128 19.022 15.6766 18.8446C15.8541 18.6535 16.0042 18.5852 16.4274 18.5306C17.1235 18.4351 17.5739 18.2576 17.9288 17.9164C18.2427 17.6297 18.3792 17.3431 18.3929 16.92L18.4065 16.606L18.2291 16.4149C17.5876 15.6779 8.70171 5.90479 8.66076 5.90479C8.64711 5.90479 8.86551 6.16413 9.12485 6.49172ZM13.3153 25.9014C13.4654 25.642 13.3835 25.3144 13.1378 25.1506C12.9058 25.0005 12.5509 25.0687 12.5509 25.2735C12.5509 25.3281 12.5782 25.3827 12.6601 25.41C12.7829 25.4782 12.7966 25.5465 12.701 25.6966C12.6055 25.8468 12.6055 25.9833 12.7283 26.0788C12.9194 26.229 13.1788 26.1471 13.3153 25.9014Z" fill="white"/>
<path fill-rule="evenodd" clip-rule="evenodd" d="M18.843 18.7214C18.5154 18.8169 18.2015 19.1718 18.106 19.5267C18.0514 19.7451 18.0787 20.1409 18.1742 20.2638C18.3243 20.4548 18.4608 20.5094 18.843 20.5094C19.5938 20.5094 20.2353 20.1819 20.3035 19.786C20.3718 19.4584 20.0851 19.008 19.6893 18.8033C19.4846 18.6941 19.0614 18.6531 18.843 18.7214ZM19.7166 19.4038C19.8258 19.24 19.7848 19.0626 19.5801 18.9397C19.2116 18.7077 18.6519 18.8988 18.6519 19.2537C18.6519 19.4311 18.9386 19.6222 19.2116 19.6222C19.389 19.6222 19.6347 19.513 19.7166 19.4038Z" fill="white"/>
</svg>
