<svg width="41" height="41" viewBox="0 0 41 41" fill="none" xmlns="http://www.w3.org/2000/svg">
<rect x="0.980469" y="0.431152" width="39.9799" height="39.9799" rx="19.9899" fill="#2C7DF7"/>
<path fill-rule="evenodd" clip-rule="evenodd" d="M23.7669 33.5395C21.9055 33.5395 20.5468 33.0885 19.6909 32.1866C18.8981 31.4232 18.438 30.3751 18.4112 29.2715C18.4016 28.9362 18.4789 28.6041 18.6354 28.308C18.7814 28.052 18.9924 27.8397 19.2467 27.6926C19.846 27.392 20.5508 27.392 21.1501 27.6926C21.404 27.8391 21.6139 28.0517 21.758 28.308C21.919 28.6027 21.9992 28.9352 21.9902 29.2715C22.0068 29.673 21.8923 30.0689 21.6641 30.3988C21.474 30.6681 21.2022 30.8682 20.8894 30.969C21.1952 31.3606 21.6279 31.6319 22.1122 31.7357C22.6539 31.894 23.215 31.9753 23.7791 31.9775C24.526 31.984 25.2575 31.764 25.8783 31.3462C26.5222 30.8886 27.0024 30.2346 27.2477 29.481C27.5587 28.584 27.7104 27.6391 27.696 26.6893C27.7211 25.6991 27.555 24.7134 27.2069 23.7868C26.9451 23.0457 26.4481 22.4118 25.7926 21.983C25.1833 21.5952 24.4761 21.3917 23.7551 21.3968C23.1268 21.4503 22.521 21.6572 21.9902 21.9994L20.6815 22.6594V21.9994L26.5629 14.0637H18.4112V22.2987C18.3882 22.893 18.5445 23.4803 18.8596 23.9836C19.1697 24.4296 19.6891 24.68 20.229 24.6435C20.7195 24.6336 21.1938 24.4654 21.5821 24.1639C22.0223 23.8395 22.4053 23.4432 22.7153 22.9914C22.7431 22.9122 22.7946 22.8436 22.8626 22.7948C22.9172 22.7473 22.987 22.7211 23.0591 22.721C23.2007 22.734 23.3347 22.7913 23.4423 22.8849C23.5785 23.038 23.6527 23.2369 23.6501 23.4424C23.6344 23.5805 23.6099 23.7174 23.5767 23.8523C23.2872 24.5573 22.8018 25.1634 22.1786 25.5981C21.5999 25.992 20.9163 26.2009 20.2176 26.1973C18.4527 26.1973 17.23 25.8475 16.5496 25.1478C15.843 24.3667 15.4787 23.3324 15.5387 22.2781V14.0637H11.3926V12.5336H15.5581V9.04493L14.6044 8.08506V7.30273H17.3718L18.4112 7.84394V12.5336L29.1795 12.5007L30.2515 13.5829L23.6486 20.2564C24.0475 20.0951 24.4676 19.9929 24.8957 19.953C25.7431 19.9904 26.5698 20.2277 27.3091 20.6459C28.1652 21.0552 28.8866 21.7027 29.3879 22.5118C29.8371 23.1967 30.155 23.96 30.3254 24.7625C30.4654 25.3954 30.5405 26.0411 30.5496 26.6894C30.5539 27.9268 30.275 29.1485 29.7344 30.26C29.2217 31.3363 28.3589 32.2041 27.2888 32.7198C26.1934 33.2627 24.988 33.5432 23.7669 33.5395Z" fill="white"/>
</svg>
