<svg width="18" height="18" viewBox="0 0 18 18" fill="none" xmlns="http://www.w3.org/2000/svg">
<mask id="mask0_10772_472" style="mask-type:alpha" maskUnits="userSpaceOnUse" x="0" y="0" width="18" height="18">
<path d="M10.2406 5.4897C10.0459 5.54862 9.7602 5.59823 9.36458 5.63234C9.39912 3.87414 10.3034 2.63688 12.1276 2.21826C12.4196 3.50823 11.3081 5.1362 10.2406 5.4897ZM14.0491 7.74405C14.2501 7.45257 14.5703 7.12697 15.0099 6.76107C14.3097 5.90522 13.4997 5.38737 12.338 5.38737C11.2265 5.38737 10.2908 5.95173 9.60635 5.95173C9.02549 5.95173 7.9768 5.45249 6.95324 5.45249C4.76795 5.45249 3.60938 7.5642 3.60938 9.76273C3.60938 12.2062 5.48382 16.1072 7.38339 16.1072C8.13065 16.1072 8.80256 15.549 9.69112 15.549C10.6111 15.549 11.3489 16.0823 12.2124 16.0823C13.6567 16.0823 14.9942 13.6792 15.4149 12.3706C13.9455 11.9272 12.765 9.57358 14.0491 7.74405Z" fill="white"/>
</mask>
<g mask="url(#mask0_10772_472)">
<rect x="0.832031" y="0.829102" width="16.6667" height="16.6667" fill="#292D3F"/>
</g>
</svg>
