<svg width="41" height="41" viewBox="0 0 41 41" fill="none" xmlns="http://www.w3.org/2000/svg">
<rect x="0.988281" y="0.35498" width="39.9889" height="39.9889" rx="19.9945" fill="#B6509E"/>
<path d="M29.6493 28.2238L22.9653 12.0158C22.5884 11.1778 22.028 10.769 21.2893 10.769H20.6983C19.9596 10.769 19.3992 11.1778 19.0222 12.0158L16.1132 19.0774H13.9124C13.2552 19.0825 12.7203 19.6139 12.7152 20.2782V20.2935C12.7203 20.9527 13.2552 21.4892 13.9124 21.4943H15.0943L12.3178 28.2238C12.2669 28.3719 12.2363 28.5252 12.2363 28.6836C12.2363 29.0617 12.3535 29.3581 12.5624 29.588C12.7713 29.818 13.0718 29.9304 13.4488 29.9304C13.6984 29.9253 13.9379 29.8486 14.1366 29.7005C14.3505 29.5523 14.4983 29.3377 14.6155 29.0924L17.6722 21.4892H19.7915C20.4487 21.4841 20.9836 20.9527 20.9887 20.2884V20.2577C20.9836 19.5986 20.4487 19.0621 19.7915 19.057H18.6605L20.9938 13.2268L27.3517 29.0873C27.4689 29.3326 27.6166 29.5472 27.8306 29.6953C28.0293 29.8435 28.2738 29.9202 28.5183 29.9253C28.8953 29.9253 29.1908 29.8129 29.4048 29.5829C29.6188 29.353 29.7308 29.0566 29.7308 28.6785C29.7359 28.5252 29.7105 28.3668 29.6493 28.2238Z" fill="white"/>
</svg>
