<svg width="22" height="22" viewBox="0 0 22 22" fill="none" xmlns="http://www.w3.org/2000/svg">
<path fill-rule="evenodd" clip-rule="evenodd" d="M15.4341 2.34355V1.25869C15.4341 0.659846 15.9202 0.173828 16.519 0.173828C17.1178 0.173828 17.6039 0.659846 17.6039 1.25869V2.34355H18.6887C19.5523 2.34355 20.38 2.68636 20.9897 3.29714C21.6005 3.90683 21.9433 4.73458 21.9433 5.59813V18.6165C21.9433 19.48 21.6005 20.3078 20.9897 20.9174C20.38 21.5282 19.5523 21.871 18.6887 21.871C14.9318 21.871 7.25755 21.871 3.50067 21.871C2.63713 21.871 1.80938 21.5282 1.19968 20.9174C0.588907 20.3078 0.246094 19.48 0.246094 18.6165C0.246094 15.2816 0.246094 8.93299 0.246094 5.59813C0.246094 4.73458 0.588907 3.90683 1.19968 3.29714C1.80938 2.68636 2.63713 2.34355 3.50067 2.34355H4.58554V1.25869C4.58554 0.659846 5.07155 0.173828 5.6704 0.173828C6.26924 0.173828 6.75526 0.659846 6.75526 1.25869V2.34355H15.4341ZM19.7736 8.85271H2.41581V18.6165C2.41581 18.9039 2.52972 19.1806 2.73368 19.3835C2.93655 19.5874 3.21319 19.7013 3.50067 19.7013H18.6887C18.9762 19.7013 19.2528 19.5874 19.4557 19.3835C19.6597 19.1806 19.7736 18.9039 19.7736 18.6165V8.85271ZM8.92498 17.5316H16.519C17.1178 17.5316 17.6039 17.0456 17.6039 16.4467C17.6039 15.8479 17.1178 15.3619 16.519 15.3619H8.92498C8.32613 15.3619 7.84012 15.8479 7.84012 16.4467C7.84012 17.0456 8.32613 17.5316 8.92498 17.5316ZM5.6704 13.1922H13.2644C13.8633 13.1922 14.3493 12.7061 14.3493 12.1073C14.3493 11.5084 13.8633 11.0224 13.2644 11.0224H5.6704C5.07155 11.0224 4.58554 11.5084 4.58554 12.1073C4.58554 12.7061 5.07155 13.1922 5.6704 13.1922ZM18.6887 4.51327H3.50067C3.21319 4.51327 2.93655 4.62718 2.73368 4.83113C2.52972 5.034 2.41581 5.31064 2.41581 5.59813V6.68299H19.7736V5.59813C19.7736 5.31064 19.6597 5.034 19.4557 4.83113C19.2528 4.62718 18.9762 4.51327 18.6887 4.51327Z" fill="white"/>
</svg>
