<svg width="26" height="26" viewBox="0 0 26 26" fill="none" xmlns="http://www.w3.org/2000/svg">
<path d="M23.1191 3.49072C23.113 2.8483 22.8538 2.23421 22.3979 1.78158C21.942 1.32895 21.326 1.07427 20.6836 1.07275L5.23047 1.02393C4.58868 1.02405 3.97313 1.27866 3.51877 1.73192C3.06441 2.18518 2.80832 2.80011 2.80664 3.44189V19.3833C2.80664 20.7163 3.89453 21.7271 5.23047 21.7271H18.4316L17.7969 19.5786L23.1191 24.4614V3.49072ZM16.3149 16.3467C16.3149 16.3467 15.8892 15.8394 15.5337 15.4033C17.0835 14.9668 17.6748 14.0122 17.6748 14.0122C17.2491 14.2946 16.793 14.528 16.3149 14.708C15.763 14.9372 15.1883 15.1072 14.6006 15.2153C13.5879 15.4013 12.5494 15.3974 11.5381 15.2036C10.9432 15.0931 10.361 14.923 9.80029 14.6958C9.50366 14.5822 9.21521 14.4482 8.93701 14.2949C8.90137 14.2715 8.86621 14.2598 8.83057 14.2358C8.80664 14.2241 8.79492 14.2124 8.78174 14.2124C8.56885 14.0942 8.45068 14.0117 8.45068 14.0117C8.45068 14.0117 9.01807 14.9438 10.52 15.3916C10.165 15.8398 9.72754 16.3589 9.72754 16.3589C7.11475 16.2764 6.12158 14.5781 6.12158 14.5781C6.12158 10.8154 7.82422 7.76074 7.82422 7.76074C9.52685 6.49854 11.1348 6.53418 11.1348 6.53418L11.2529 6.67578C9.12451 7.27734 8.15527 8.20898 8.15527 8.20898C8.15527 8.20898 8.41504 8.06738 8.85254 7.87842C10.1177 7.32422 11.123 7.18262 11.5381 7.13574C11.6043 7.12197 11.6716 7.11397 11.7393 7.11182C12.5316 7.00901 13.3333 7.00114 14.1274 7.08838C15.3744 7.23162 16.5824 7.61198 17.6865 8.20898C17.6865 8.20898 16.7524 7.32275 14.7422 6.72217L14.9077 6.53369C14.9077 6.53369 16.5273 6.49805 18.2188 7.76221C18.2188 7.76221 19.9214 10.8169 19.9214 14.5796C19.9214 14.5659 18.9277 16.2642 16.3149 16.3467Z" fill="white"/>
<path d="M10.8174 10.8872C10.1436 10.8872 9.61133 11.4653 9.61133 12.1846C9.61133 12.9038 10.1553 13.4819 10.8174 13.4819C11.4912 13.4819 12.0234 12.9043 12.0234 12.1846C12.0356 11.4639 11.4912 10.8872 10.8174 10.8872ZM15.1328 10.8872C14.459 10.8872 13.9268 11.4653 13.9268 12.1846C13.9268 12.9038 14.4707 13.4819 15.1328 13.4819C15.8071 13.4819 16.3389 12.9043 16.3389 12.1846C16.3389 11.4648 15.7954 10.8872 15.1328 10.8872Z" fill="white"/>
</svg>
