<svg width="40" height="41" viewBox="0 0 40 41" fill="none" xmlns="http://www.w3.org/2000/svg">
<rect x="-0.00585938" y="0.324707" width="39.9945" height="39.9945" rx="19.9972" fill="#6747ED"/>
<path fill-rule="evenodd" clip-rule="evenodd" d="M18.6395 21.6396C15.6816 21.6396 13.3069 19.2649 13.3069 16.307C13.3069 13.3491 15.6816 10.9744 18.6395 10.9744C21.5974 10.9744 23.9721 13.3491 23.9721 16.307C23.9721 19.2649 21.5974 21.6396 18.6395 21.6396ZM18.6395 8.30811C23.0556 8.30811 26.6384 11.8909 26.6384 16.307C26.6384 20.7231 23.0556 24.3059 18.6395 24.3059C14.2235 24.3059 10.6406 20.7231 10.6406 16.307C10.6406 11.8909 14.2235 8.30811 18.6395 8.30811ZM26.2635 24.7225C26.8051 25.2641 26.8051 26.0973 26.2635 26.5972L20.9309 31.9298C20.3893 32.4714 19.5561 32.4714 19.0561 31.9298C18.5145 31.3883 18.5145 30.555 19.0561 30.0551L24.3887 24.7225C24.8887 24.1809 25.7635 24.1809 26.2635 24.7225ZM29.3464 9.64125C29.3464 10.3912 28.7631 10.9744 28.0132 10.9744C27.2633 10.9744 26.6801 10.3912 26.6801 9.64125C26.6801 8.89136 27.2633 8.30811 28.0132 8.30811C28.7215 8.30811 29.3464 8.89136 29.3464 9.64125Z" fill="white"/>
</svg>
