<svg xmlns="http://www.w3.org/2000/svg" width="1440" height="900" fill="none"><path fill="url(#paint0_linear)" d="M0 0h1440v900H0z"></path><mask id="a" maskUnits="userSpaceOnUse" x="0" y="0" width="1440" height="900"><path fill="#fff" d="M0 0h1440v900H0z"></path></mask><g mask="url(#a)"><path fill="url(#paint1_linear)" d="M0 736.071h1440V900H0z"></path><path fill-rule="evenodd" clip-rule="evenodd" d="M0 0h1440v390s-349.02-16.194-720-116.669C349.016 172.857 0 0 0 0z" fill="url(#paint2_linear)"></path><g opacity=".4" filter="url(#filter0_d)"><path fill-rule="evenodd" clip-rule="evenodd" d="M512.71-419.866L944.045 42.279c39.833 42.678 39.833 111.874 0 154.553L512.71 658.977c-39.834 42.678-104.417 42.678-144.25 0L-62.875 196.832c-39.834-42.679-39.834-111.875 0-154.553L368.46-419.866c39.833-42.679 104.416-42.679 144.25 0z" fill="#fff"></path></g></g><defs><linearGradient id="paint0_linear" x1="1440" y1="0" x2="0" y2="0" gradientUnits="userSpaceOnUse"><stop stop-color="#fff"></stop><stop offset="1" stop-color="#EBEFF5"></stop></linearGradient><linearGradient id="paint1_linear" x1="0" y1="736.071" x2="0" y2="900" gradientUnits="userSpaceOnUse"><stop stop-color="#F9FBFE" stop-opacity=".01"></stop><stop offset="1" stop-color="#F9FBFE"></stop></linearGradient><linearGradient id="paint2_linear" x1="0" y1="390" x2="1440" y2="390" gradientUnits="userSpaceOnUse"><stop stop-color="#fff"></stop><stop offset="1" stop-color="#EBEFF5"></stop></linearGradient><filter id="filter0_d" x="-152.75" y="-481.875" width="1186.67" height="1262.86" filterUnits="userSpaceOnUse" color-interpolation-filters="sRGB"><feGaussianBlur stdDeviation="30"></feGaussianBlur></filter></defs></svg>