<svg width="41" height="41" viewBox="0 0 41 41" fill="none" xmlns="http://www.w3.org/2000/svg">
<rect x="0.744141" y="0.116211" width="39.9945" height="39.9945" rx="19.9972" fill="#345D9D"/>
<path fill-rule="evenodd" clip-rule="evenodd" d="M20.6429 21.5657L18.5609 28.5866H29.6973C29.8463 28.5813 29.9913 28.6356 30.1003 28.7373C30.2092 28.839 30.2733 28.9799 30.2784 29.1289V29.3129L29.31 32.6538C29.222 32.9792 28.9205 33.2004 28.5837 33.1864H11.5401L14.3968 23.4541L11.2012 24.4225L11.9275 22.1952L15.1231 21.2268L19.1419 7.57252C19.233 7.24924 19.5325 7.02955 19.8682 7.0399H24.1775C24.3265 7.03468 24.4715 7.08889 24.5805 7.19061C24.6894 7.29233 24.7535 7.43321 24.7586 7.5822V7.76619L21.3692 19.29L24.5649 18.3216L23.887 20.6458L20.6429 21.5657Z" fill="white"/>
</svg>
