<svg width="67" height="67" viewBox="0 0 67 67" fill="none" xmlns="http://www.w3.org/2000/svg">
<g clip-path="url(#clip0_1_39704)">
<path fill-rule="evenodd" clip-rule="evenodd" d="M61.9985 33.787C61.9985 41.4044 58.9725 48.7099 53.5861 54.0962C48.1998 59.4825 40.8944 62.5085 33.277 62.5085C25.6595 62.5085 18.3541 59.4825 12.9678 54.0962C7.58144 48.7099 4.55543 41.4044 4.55543 33.787C4.55543 26.1696 7.58144 18.8641 12.9678 13.4778C18.3541 8.09149 25.6595 5.06548 33.277 5.06548C40.8944 5.06548 48.1998 8.09149 53.5861 13.4778C58.9725 18.8641 61.9985 26.1696 61.9985 33.787ZM0.452354 33.787C0.452354 42.4926 3.91065 50.8417 10.0665 56.9975C16.2223 63.1533 24.5713 66.6116 33.277 66.6116C41.9826 66.6116 50.3317 63.1533 56.4875 56.9975C62.6433 50.8417 66.1016 42.4926 66.1016 33.787C66.1016 25.0814 62.6433 16.7323 56.4875 10.5765C50.3317 4.4207 41.9826 0.962402 33.277 0.962402C24.5713 0.962402 16.2223 4.4207 10.0665 10.5765C3.91065 16.7323 0.452354 25.0814 0.452354 33.787ZM18.9162 31.7355C18.3721 31.7355 17.8503 31.9516 17.4655 32.3364C17.0808 32.7211 16.8647 33.2429 16.8647 33.787C16.8647 34.3311 17.0808 34.8529 17.4655 35.2377C17.8503 35.6224 18.3721 35.8385 18.9162 35.8385H42.6853L33.876 44.6437C33.6853 44.8345 33.534 45.0609 33.4307 45.3102C33.3275 45.5594 33.2744 45.8265 33.2744 46.0962C33.2744 46.366 33.3275 46.6331 33.4307 46.8823C33.534 47.1315 33.6853 47.358 33.876 47.5487C34.0667 47.7395 34.2932 47.8908 34.5424 47.994C34.7916 48.0972 35.0587 48.1504 35.3285 48.1504C35.5982 48.1504 35.8654 48.0972 36.1146 47.994C36.3638 47.8908 36.5902 47.7395 36.781 47.5487L49.0902 35.2395C49.2813 35.0489 49.4328 34.8225 49.5363 34.5733C49.6397 34.3241 49.6929 34.0569 49.6929 33.787C49.6929 33.5172 49.6397 33.25 49.5363 33.0007C49.4328 32.7515 49.2813 32.5251 49.0902 32.3345L36.781 20.0253C36.3958 19.6401 35.8733 19.4236 35.3285 19.4236C34.7837 19.4236 34.2612 19.6401 33.876 20.0253C33.4908 20.4105 33.2744 20.933 33.2744 21.4778C33.2744 22.0226 33.4908 22.545 33.876 22.9303L42.6853 31.7355H18.9162Z" fill="white"/>
</g>
<defs>
<clipPath id="clip0_1_39704">
<rect width="65.6492" height="65.6492" fill="white" transform="matrix(-1 0 0 1 66.1016 0.962402)"/>
</clipPath>
</defs>
</svg>
