<svg width="17" height="18" viewBox="0 0 17 18" fill="none" xmlns="http://www.w3.org/2000/svg">
<g clip-path="url(#clip0_10897_2077)">
<path d="M10.6097 10.3434H10.0788L9.89066 10.162C10.5492 9.39592 10.9457 8.4014 10.9457 7.31951C10.9457 4.90711 8.99021 2.95166 6.57781 2.95166C4.16541 2.95166 2.20996 4.90711 2.20996 7.31951C2.20996 9.73191 4.16541 11.6874 6.57781 11.6874C7.6597 11.6874 8.65422 11.2909 9.42028 10.6324L9.60171 10.8205V11.3514L12.9616 14.7045L13.9628 13.7033L10.6097 10.3434V10.3434ZM6.57781 10.3434C4.90459 10.3434 3.55392 8.99274 3.55392 7.31951C3.55392 5.64629 4.90459 4.29561 6.57781 4.29561C8.25104 4.29561 9.60171 5.64629 9.60171 7.31951C9.60171 8.99274 8.25104 10.3434 6.57781 10.3434Z" fill="url(#paint0_linear_10897_2077)" style="mix-blend-mode:hard-light"/>
</g>
<defs>
<linearGradient id="paint0_linear_10897_2077" x1="2.20996" y1="2.95166" x2="2.90005" y2="15.3493" gradientUnits="userSpaceOnUse">
<stop stop-color="#414593"/>
<stop offset="1" stop-color="#00022E"/>
</linearGradient>
<clipPath id="clip0_10897_2077">
<rect width="16.1275" height="16.1275" fill="white" transform="translate(0.194336 0.936035)"/>
</clipPath>
</defs>
</svg>
