<svg width="31" height="31" viewBox="0 0 31 31" fill="none" xmlns="http://www.w3.org/2000/svg">
<path fill-rule="evenodd" clip-rule="evenodd" d="M3.78286 6.68066H26.2766C26.9668 6.68066 27.5263 7.24015 27.5263 7.93032C27.5263 8.62048 26.9668 9.17997 26.2766 9.17997H3.78286C3.09269 9.17997 2.5332 8.62048 2.5332 7.93032C2.5332 7.24015 3.09269 6.68066 3.78286 6.68066ZM3.78286 11.6793H26.2766C26.9668 11.6793 27.5263 12.2388 27.5263 12.9289C27.5263 13.6191 26.9668 14.1786 26.2766 14.1786H3.78286C3.09269 14.1786 2.5332 13.6191 2.5332 12.9289C2.5332 12.2388 3.09269 11.6793 3.78286 11.6793ZM3.78286 16.6779H26.2766C26.9668 16.6779 27.5263 17.2374 27.5263 17.9275C27.5263 18.6177 26.9668 19.1772 26.2766 19.1772H3.78286C3.09269 19.1772 2.5332 18.6177 2.5332 17.9275C2.5332 17.2374 3.09269 16.6779 3.78286 16.6779ZM3.78286 21.6765H26.2766C26.9668 21.6765 27.5263 22.236 27.5263 22.9262C27.5263 23.6163 26.9668 24.1758 26.2766 24.1758H3.78286C3.09269 24.1758 2.5332 23.6163 2.5332 22.9262C2.5332 22.236 3.09269 21.6765 3.78286 21.6765Z" fill="white"/>
</svg>
