<svg width="26" height="26" viewBox="0 0 26 26" fill="none" xmlns="http://www.w3.org/2000/svg">
<mask id="mask0_10966_143" style="mask-type:alpha" maskUnits="userSpaceOnUse" x="0" y="0" width="26" height="26">
<path d="M21.2882 8.5657C21.3014 8.74805 21.3014 8.93043 21.3014 9.11278C21.3014 14.6746 17.0037 21.083 9.14881 21.083C6.72886 21.083 4.48084 20.3927 2.58984 19.1944C2.93367 19.2334 3.26423 19.2465 3.62129 19.2465C5.61804 19.2465 7.45616 18.5822 8.924 17.449C7.04623 17.4099 5.4726 16.1986 4.93042 14.5313C5.19491 14.5704 5.45937 14.5964 5.7371 14.5964C6.12057 14.5964 6.50409 14.5443 6.8611 14.4532C4.904 14.0624 3.43613 12.3691 3.43613 10.3241V10.272C4.00472 10.5847 4.66596 10.78 5.36677 10.8061C4.2163 10.0506 3.46258 8.76108 3.46258 7.30223C3.46258 6.52073 3.67412 5.80434 4.04441 5.17912C6.14699 7.73208 9.30747 9.39929 12.8514 9.58167C12.7853 9.26906 12.7456 8.94347 12.7456 8.61783C12.7456 6.29929 14.6498 4.41064 17.0169 4.41064C18.2467 4.41064 19.3574 4.91863 20.1377 5.73923C21.103 5.55688 22.0286 5.20518 22.8485 4.72325C22.5311 5.70017 21.8567 6.52077 20.9707 7.04175C21.8303 6.95061 22.6634 6.71611 23.4303 6.39051C22.8486 7.22409 22.1213 7.9665 21.2882 8.5657Z" fill="white"/>
</mask>
<g mask="url(#mask0_10966_143)">
<rect x="0.505859" y="0.242676" width="25.0086" height="25.0086" fill="white"/>
</g>
</svg>
